<svg width="1000" height="500" viewBox="0 0 1000 500" fill="none" xmlns="http://www.w3.org/2000/svg">
<path d="M321.758 183.229C321.758 193.272 322.845 201.414 324.747 207.386C326.92 213.357 329.637 219.872 333.441 226.929C334.8 229.1 335.343 231.272 335.343 233.172C335.343 235.886 333.713 238.6 330.181 241.314L313.063 252.714C310.618 254.343 308.172 255.157 305.999 255.157C303.281 255.157 300.564 253.8 297.847 251.357C294.043 247.286 290.783 242.943 288.066 238.6C285.349 233.986 282.631 228.829 279.643 222.586C258.449 247.557 231.822 260.043 199.76 260.043C176.936 260.043 158.731 253.529 145.418 240.5C132.104 227.472 125.311 210.1 125.311 188.386C125.311 165.314 133.462 146.586 150.037 132.472C166.611 118.357 188.62 111.3 216.606 111.3C225.844 111.3 235.354 112.114 245.407 113.472C255.46 114.829 265.785 117 276.654 119.443V99.6287C276.654 79.0001 272.306 64.6144 263.883 56.2001C255.189 47.7858 240.516 43.7144 219.595 43.7144C210.085 43.7144 200.303 44.8001 190.25 47.243C180.197 49.6858 170.415 52.6716 160.905 56.4716C156.558 58.3716 153.297 59.4573 151.395 60.0001C149.493 60.543 148.135 60.8144 147.048 60.8144C143.244 60.8144 141.342 58.1001 141.342 52.4001V39.1001C141.342 34.7573 141.885 31.5001 143.244 29.6001C144.603 27.7001 147.048 25.8001 150.852 23.9001C160.362 19.0144 171.774 14.943 185.087 11.6858C198.401 8.15727 212.53 6.5287 227.474 6.5287C259.808 6.5287 283.447 13.8573 298.662 28.5144C313.606 43.1716 321.214 65.4287 321.214 95.2858V183.229H321.758ZM211.443 224.486C220.41 224.486 229.648 222.857 239.43 219.6C249.211 216.343 257.906 210.372 265.242 202.229C269.589 197.072 272.85 191.372 274.48 184.857C276.11 178.343 277.197 170.472 277.197 161.243V149.843C269.318 147.943 260.895 146.314 252.2 145.229C243.505 144.143 235.082 143.6 226.659 143.6C208.455 143.6 195.141 147.129 186.174 154.457C177.208 161.786 172.86 172.1 172.86 185.672C172.86 198.429 176.121 207.929 182.914 214.443C189.435 221.229 198.945 224.486 211.443 224.486ZM429.627 253.8C424.736 253.8 421.476 252.986 419.302 251.086C417.128 249.457 415.226 245.657 413.596 240.5L349.744 30.6858C348.114 25.2573 347.299 21.7287 347.299 19.8287C347.299 15.4858 349.472 13.043 353.82 13.043H380.447C385.61 13.043 389.142 13.8573 391.044 15.7573C393.218 17.3858 394.848 21.1858 396.478 26.343L442.126 206.029L484.512 26.343C485.871 20.9144 487.501 17.3858 489.675 15.7573C491.849 14.1287 495.653 13.043 500.543 13.043H522.28C527.443 13.043 530.975 13.8573 533.149 15.7573C535.322 17.3858 537.224 21.1858 538.311 26.343L581.241 208.2L628.247 26.343C629.877 20.9144 631.779 17.3858 633.681 15.7573C635.855 14.1287 639.387 13.043 644.278 13.043H669.547C673.895 13.043 676.34 15.2144 676.34 19.8287C676.34 21.1858 676.068 22.543 675.797 24.1716C675.525 25.8001 674.981 27.9716 673.895 30.9573L608.412 240.772C606.782 246.2 604.88 249.729 602.706 251.357C600.533 252.986 597.001 254.072 592.381 254.072H569.014C563.852 254.072 560.32 253.257 558.146 251.357C555.972 249.457 554.07 245.929 552.983 240.5L510.868 65.4287L469.025 240.229C467.666 245.657 466.036 249.186 463.862 251.086C461.689 252.986 457.885 253.8 452.994 253.8H429.627ZM778.775 261.129C764.646 261.129 750.517 259.5 736.931 256.243C723.346 252.986 712.749 249.457 705.685 245.386C701.337 242.943 698.349 240.229 697.262 237.786C696.175 235.343 695.631 232.629 695.631 230.186V216.343C695.631 210.643 697.805 207.929 701.881 207.929C703.511 207.929 705.141 208.2 706.772 208.743C708.402 209.286 710.847 210.372 713.564 211.457C722.803 215.529 732.856 218.786 743.453 220.957C754.321 223.129 764.918 224.214 775.786 224.214C792.904 224.214 806.218 221.229 815.456 215.257C824.694 209.286 829.585 200.6 829.585 189.472C829.585 181.872 827.139 175.629 822.249 170.472C817.358 165.314 808.12 160.7 794.806 156.357L755.408 144.143C735.573 137.9 720.901 128.672 711.934 116.457C702.968 104.514 698.349 91.2144 698.349 77.1001C698.349 65.7001 700.794 55.6573 705.685 46.9716C710.576 38.2858 717.097 30.6858 725.248 24.7144C733.399 18.4716 742.637 13.8573 753.506 10.6001C764.374 7.34298 775.786 5.98584 787.741 5.98584C793.719 5.98584 799.968 6.25727 805.946 7.07155C812.195 7.88584 817.901 8.97155 823.607 10.0573C829.041 11.4144 834.204 12.7716 839.095 14.4001C843.985 16.0287 847.789 17.6573 850.506 19.2858C854.31 21.4573 857.027 23.6287 858.658 26.0716C860.288 28.243 861.103 31.2287 861.103 35.0287V47.7858C861.103 53.4858 858.929 56.4716 854.854 56.4716C852.68 56.4716 849.148 55.3858 844.529 53.2144C829.041 46.1573 811.652 42.6287 792.36 42.6287C776.873 42.6287 764.646 45.0716 756.223 50.2287C747.8 55.3858 743.453 63.2573 743.453 74.3858C743.453 81.9858 746.17 88.5001 751.604 93.6573C757.038 98.8144 767.091 103.972 781.492 108.586L820.075 120.8C839.638 127.043 853.767 135.729 862.19 146.857C870.613 157.986 874.689 170.743 874.689 184.857C874.689 196.529 872.243 207.114 867.624 216.343C862.733 225.572 856.212 233.714 847.789 240.229C839.366 247.014 829.313 251.9 817.629 255.429C805.402 259.229 792.632 261.129 778.775 261.129Z" fill="#252F3E"/>
<path fill-rule="evenodd" clip-rule="evenodd" d="M830.128 393.043C740.736 459 610.858 494.014 499.185 494.014C342.68 494.014 201.662 436.2 95.1513 340.114C86.7282 332.514 94.3361 322.2 104.389 328.172C219.595 394.943 361.699 435.386 508.695 435.386C607.869 435.386 716.825 414.757 817.086 372.414C832.03 365.629 844.801 382.186 830.128 393.043Z" fill="#FF9900"/>
<path fill-rule="evenodd" clip-rule="evenodd" d="M867.353 350.7C855.941 336.043 791.817 343.643 762.744 347.172C754.049 348.257 752.691 340.657 760.57 334.957C811.652 299.129 895.611 309.443 905.392 321.386C915.174 333.6 902.675 417.472 854.854 457.643C847.518 463.886 840.453 460.629 843.714 452.486C854.582 425.615 878.765 365.086 867.353 350.7Z" fill="#FF9900"/>
</svg>
