<svg width="28" height="28" viewBox="0 0 28 28" fill="none" xmlns="http://www.w3.org/2000/svg">
<g id="Frame">
<g clip-path="url(#clip0_20_9759)">
<g id="Group">
<path id="Vector" fill-rule="evenodd" clip-rule="evenodd" d="M0 0H28V28H0V0Z" fill="url(#paint0_linear_20_9759)"/>
<path id="Vector_2" fill-rule="evenodd" clip-rule="evenodd" d="M21.0522 15.8697L21.1922 14.959C22.3843 15.6702 22.4067 15.9698 22.4046 15.981C22.4018 15.9831 22.189 16.149 21.0522 15.8697ZM13.9227 13.2566C13.9225 13.4408 13.8493 13.6175 13.7192 13.7479C13.589 13.8783 13.4125 13.9518 13.2283 13.9524C13.0436 13.9524 12.8664 13.879 12.7358 13.7484C12.6052 13.6178 12.5318 13.4406 12.5318 13.2559C12.5318 13.0712 12.6052 12.894 12.7358 12.7634C12.8664 12.6328 13.0436 12.5594 13.2283 12.5594C13.6112 12.5594 13.9227 12.873 13.9227 13.2566ZM19.431 21.8876C19.431 21.9737 19.0845 22.1046 18.78 22.2222L18.4685 22.3412C18.136 22.4735 17.7426 22.5925 17.3002 22.694C16.197 22.9502 14.6752 23.1035 13.2283 23.1035C9.37619 23.1035 7.32379 22.3972 7.32099 21.8449L5.77959 9.499C7.10889 10.5154 9.83959 11.1664 13.2283 11.1664C16.4693 11.1664 19.7831 10.5385 21.3371 9.436L20.3809 15.68C18.3712 15.0682 15.9065 13.888 14.6885 13.3014L14.615 13.2664L14.6164 13.2559C14.6164 12.4873 13.9934 11.8629 13.2283 11.8629C12.8596 11.8638 12.5063 12.011 12.246 12.2722C11.9858 12.5334 11.8398 12.8872 11.8402 13.2559C11.8402 14.0238 12.4632 14.6489 13.2283 14.6489C13.7414 14.6489 14.1852 14.364 14.4253 13.9475C15.6895 14.5551 18.2123 15.7612 20.2745 16.3751L19.431 21.8876ZM13.229 5.5965C17.9022 5.5965 21.5289 6.8985 21.5548 8.022L21.538 8.1256C21.349 9.2309 17.7916 10.4706 13.229 10.4706C8.75739 10.4706 5.73199 9.2631 5.60599 8.1081L5.59549 8.0241C5.61159 6.8495 8.67339 5.5965 13.2283 5.5965H13.229ZM21.3056 14.2191L22.2464 8.0871C22.2471 8.0689 22.2506 8.0521 22.2506 8.0339C22.2506 6.0718 17.6635 4.9 13.2283 4.9C8.40249 4.9 4.90039 6.2181 4.90039 8.0339L4.90249 8.0766L6.63009 21.8876C6.63009 23.7076 12.1265 23.8 13.2283 23.8C14.7242 23.8 16.3041 23.6404 17.4563 23.373C17.8875 23.2767 18.311 23.1485 18.7233 22.9894L19.0257 22.8725C19.6165 22.6478 20.1247 22.4539 20.1205 21.9408L20.9465 16.562C21.405 16.6726 21.7844 16.73 22.0875 16.73C22.4935 16.7293 22.7686 16.6299 22.9345 16.4304C23.0026 16.3513 23.0518 16.2578 23.0783 16.1569C23.1049 16.056 23.1081 15.9503 23.0878 15.848C22.9989 15.3713 22.4417 14.8645 21.3056 14.2191Z" fill="white"/>
</g>
</g>
</g>
<defs>
<linearGradient id="paint0_linear_20_9759" x1="0" y1="2800" x2="2800" y2="0" gradientUnits="userSpaceOnUse">
<stop stop-color="#1B660F"/>
<stop offset="1" stop-color="#6CAE3E"/>
</linearGradient>
<clipPath id="clip0_20_9759">
<rect width="28" height="28" rx="4" fill="white"/>
</clipPath>
</defs>
</svg>
