<?xml version="1.0" encoding="UTF-8" standalone="no"?>
<svg
   xmlns:dc="http://purl.org/dc/elements/1.1/"
   xmlns:cc="http://creativecommons.org/ns#"
   xmlns:rdf="http://www.w3.org/1999/02/22-rdf-syntax-ns#"
   xmlns:svg="http://www.w3.org/2000/svg"
   xmlns="http://www.w3.org/2000/svg"
   xmlns:sodipodi="http://sodipodi.sourceforge.net/DTD/sodipodi-0.dtd"
   xmlns:inkscape="http://www.inkscape.org/namespaces/inkscape"
   sodipodi:docname="azure.svg"
   inkscape:version="1.0beta1 (32d4812, 2019-09-19)"
   id="svg8"
   version="1.1"
   viewBox="0 0 149.30252 115.64349"
   height="115.64348mm"
   width="149.30252mm">
  <defs
     id="defs2" />
  <sodipodi:namedview
     inkscape:document-rotation="0"
     inkscape:window-maximized="0"
     inkscape:window-y="23"
     inkscape:window-x="0"
     inkscape:window-height="1209"
     inkscape:window-width="1600"
     fit-margin-bottom="0"
     fit-margin-right="0"
     fit-margin-left="0"
     fit-margin-top="0"
     inkscape:pagecheckerboard="true"
     showgrid="false"
     inkscape:current-layer="layer1"
     inkscape:document-units="mm"
     inkscape:cy="559.99925"
     inkscape:cx="399.99804"
     inkscape:zoom="0.35"
     inkscape:pageshadow="2"
     inkscape:pageopacity="0.0"
     borderopacity="1.0"
     bordercolor="#666666"
     pagecolor="#ffffff"
     id="base" />
  <metadata
     id="metadata5">
    <rdf:RDF>
      <cc:Work
         rdf:about="">
        <dc:format>image/svg+xml</dc:format>
        <dc:type
           rdf:resource="http://purl.org/dc/dcmitype/StillImage" />
        <dc:title />
      </cc:Work>
    </rdf:RDF>
  </metadata>
  <g
     transform="translate(677.93078,-313.85427)"
     id="layer1"
     inkscape:groupmode="layer"
     inkscape:label="Layer 1">
    <g
       inkscape:label="Layer 1"
       id="layer1-1"
       transform="matrix(0.3017762,0,0,0.3017762,-530.64384,340.46164)">
      <path
         inkscape:connector-curvature="0"
         d="M 310.6582,0.00195313 C 310.50701,0.05956339 272.79887,31.648348 226.86133,70.199219 L 143.33789,140.29102 71.667969,264.49609 C 32.250846,332.80655 0.00203536,388.79005 0,388.9082 c 0.00556697,0.11452 29.149496,0.17362 64.771484,0.12891 l 64.773436,-0.082 89.07617,-191.04492 C 267.61302,92.835468 308.42468,5.2974072 309.31445,3.3808594 c 0.88977,-1.9165479 1.49493,-3.43650515 1.34375,-3.37890627 z M 329.55273,30.984375 c -0.39732,0.692418 -71.07421,195.320915 -71.07421,195.722655 0,0.21219 30.80203,37.02096 68.44726,81.79883 l 68.44531,81.41406 -1.25,0.26563 c -0.68773,0.14584 -60.56769,10.74372 -133.0664,23.55078 l -131.81641,23.28515 217.52734,0.0293 217.52735,0.0273 -0.89258,-1.55859 C 562.90995,434.66276 510.14524,343.20425 446.14453,232.27734 377.78366,113.79328 329.68557,30.752873 329.55273,30.984375 Z"
         transform="matrix(0.87675348,0,0,0.87675348,-488.06679,-88.169544)"
         style="fill:#0089d6;fill-opacity:1;stroke-width:0.321894"
         id="path21" />
    </g>
  </g>
</svg>
