<svg width="29" height="32" viewBox="0 0 29 32" fill="none" xmlns="http://www.w3.org/2000/svg">
<g clip-path="url(#clip0_84_4750)">
<path fill-rule="evenodd" clip-rule="evenodd" d="M10.5739 18.2487L11.6893 26.9511C11.1943 27.0211 11.1175 27.0566 10.5765 27.1336C10.0988 25.4444 9.18642 24.3419 8.18885 23.6993C7.30995 23.1323 6.0958 23.005 4.9339 23.2362L4.85911 23.322C5.66662 23.2378 6.62011 23.355 7.60032 23.9772C8.5604 24.5858 9.33619 26.159 9.62098 27.1062C9.98635 28.3169 10.2394 29.6114 9.25622 30.9842C8.54983 31.9692 6.47492 32.5118 4.81743 31.3008C3.60906 30.4177 4.53623 29.8645 2.12169 27.8557C1.12333 27.0241 1.47592 25.6127 2.06605 24.7213C2.84384 23.2154 6.85903 21.302 6.63168 18.8943C6.55071 18.0195 6.4111 16.88 5.59981 16.0989C5.57009 16.4235 5.62414 16.7349 5.62414 16.7349C5.62414 16.7349 5.29168 16.311 5.12615 15.7297C4.96023 15.5061 4.83179 15.4357 4.65669 15.1385C4.53204 15.4829 4.54879 15.8814 4.54879 15.8814C4.54879 15.8814 4.27557 15.2358 4.23209 14.6922C4.07015 14.9356 4.03007 15.3981 4.03007 15.3981C4.03007 15.3981 3.67528 14.3814 3.75625 13.8335C3.59431 13.3568 3.11567 12.4116 3.25068 10.2633C4.13577 10.8835 6.08124 10.736 6.83968 9.61674C7.09117 9.24617 7.26328 8.2338 6.71324 6.23885C6.36104 4.95985 5.48653 3.05504 5.1445 2.33229L5.10442 2.36127C5.28311 2.94451 5.65405 4.16414 5.79565 4.75637C6.22643 6.55125 6.3417 7.17546 6.13987 8.00255C5.96776 8.7233 5.55633 9.1924 4.5113 9.71927C3.46687 10.2467 2.08021 8.96255 1.99325 8.89159C0.978537 8.0807 0.192171 6.75952 0.105019 6.11752C0.0140774 5.41476 0.50947 4.99283 0.758961 4.41879C0.402175 4.52072 0.00390625 4.70221 0.00390625 4.70221C0.00390625 4.70221 0.478957 4.20972 1.06549 3.78318C1.309 3.62208 1.4502 3.52015 1.70627 3.30708C1.33572 3.30088 1.03518 3.31108 1.03518 3.31108C1.03518 3.31108 1.65202 2.97649 2.2928 2.73304C1.82413 2.71225 1.37581 2.72944 1.37581 2.72944C1.37581 2.72944 2.75489 2.11123 3.8438 1.65891C4.59227 1.3511 5.32299 1.44185 5.73443 2.03727C6.27349 2.81659 6.84068 3.24072 8.04107 3.50276C8.77957 3.17516 9.00274 3.00787 9.92931 2.75423C10.745 1.85619 11.3852 1.74006 11.3852 1.74006C11.3852 1.74006 11.0675 2.03108 10.9829 2.49059C11.4454 2.12542 11.952 1.82061 11.952 1.82061C11.952 1.82061 11.7557 2.06366 11.5734 2.44902L11.6149 2.51198C12.155 2.18738 12.789 1.93214 12.789 1.93214C12.789 1.93214 12.6073 2.1624 12.3947 2.45961C12.8021 2.45601 13.627 2.4768 13.9473 2.51398C15.8375 2.55455 16.2298 0.49044 16.9549 0.231802C17.8634 -0.0937945 18.2692 -0.290072 19.8182 1.23338C21.146 2.54036 22.1845 4.8817 21.669 5.40497C21.2372 5.8413 20.3844 5.23627 19.4401 4.05721C18.9413 3.4324 18.5638 2.69386 18.3865 1.75525C18.2367 0.963545 17.6568 0.503632 17.6568 0.503632C17.6568 0.503632 17.9938 1.25576 17.9938 1.91895C17.9938 2.28072 18.0395 3.63468 18.6184 4.3948C18.5602 4.50533 18.5339 4.94366 18.4706 5.0282C17.796 4.21171 16.3481 3.62748 16.1127 3.45519C16.9105 4.11078 18.7475 5.61764 19.4529 7.06233C20.1204 8.42808 19.7267 9.6807 20.0637 10.0047C20.1598 10.0966 21.4994 11.7686 21.7565 12.6083C22.2062 14.0726 21.7842 15.6106 21.1953 16.564L19.5536 16.8206C19.3132 16.7541 19.1517 16.7207 18.9357 16.596C19.0546 16.3845 19.2899 15.859 19.2935 15.7511L19.1998 15.5882C18.6886 16.314 17.8329 17.0183 17.1215 17.4227C16.1907 17.9515 15.1174 17.8698 14.4186 17.6533C12.4368 17.0407 10.5619 15.6987 10.11 15.3464C10.11 15.3464 10.0962 15.6278 10.1802 15.6911C10.6808 16.2562 11.8259 17.2769 12.9328 17.9895L10.5739 18.2487ZM17.3339 14.0416C18.0855 14.604 18.7439 14.9808 19.4391 14.8888C19.8653 14.8331 20.2422 14.1557 20.5085 13.5415C20.6911 13.1189 20.6911 12.662 20.4239 12.5141C20.2893 12.4386 19.6589 12.468 19.2165 12.5207C18.3739 12.6211 17.4635 12.9141 17.2637 13.0694C16.9013 13.3502 17.0658 13.8397 17.3339 14.0416ZM17.419 7.19365C17.4519 7.19925 17.4817 7.20484 17.505 7.21344C17.7788 7.30838 17.5935 7.40272 17.5439 7.51625C17.4958 7.62778 17.4194 7.70033 17.5333 8.06191C17.5359 8.0691 17.5379 8.0757 17.5405 8.0833C17.5461 8.09689 17.553 8.11408 17.5586 8.12947C17.5724 8.16385 17.587 8.19842 17.6057 8.2374C17.8131 8.66093 18.0395 9.05948 18.4184 9.26276C18.5161 9.24717 18.6178 9.23498 18.7221 9.23038C19.0783 9.21459 19.3025 9.27095 19.4453 9.3485C19.4584 9.27655 19.4614 9.17301 19.4533 9.01931C19.4249 8.48444 19.5595 7.57301 18.5323 7.09391C18.1442 6.91323 17.6001 6.96859 17.419 7.19365ZM10.611 10.8344C10.6884 10.9013 10.7536 10.9485 10.8134 10.9881C11.0402 10.8795 11.3002 10.7716 11.5982 10.6747C12.1023 10.5108 12.5213 10.4262 12.8654 10.3811C13.0299 10.1964 13.2222 9.87198 13.1741 9.28355C13.1089 8.48444 12.5046 8.61276 12.9585 8.17964C13.1968 7.95298 11.7749 7.65616 10.6712 8.41029C9.85731 8.96614 9.83159 10.159 10.611 10.8344ZM28.1571 27.1824L12.8011 29.9562L11.4733 18.8522L13.6615 18.551C14.0147 18.7103 14.2612 18.771 14.6862 18.8789C15.3467 19.0514 16.1123 19.2163 17.2443 18.6453C17.508 18.514 18.0576 18.0109 18.2792 17.7233L27.2437 16.0949L28.1571 27.1824ZM27.2128 26.3815L26.4199 17.845L24.1896 22.5325L21.2533 20.5921L18.8041 24.6913L15.9564 23.857L13.4479 27.6914L13.5769 28.8979L27.2128 26.3815Z" fill="white"/>
</g>
<defs>
<clipPath id="clip0_84_4750">
<rect width="28.16" height="32" fill="white"/>
</clipPath>
</defs>
</svg>
