<?xml version="1.0" encoding="UTF-8" standalone="no"?>
<svg
   xmlns:dc="http://purl.org/dc/elements/1.1/"
   xmlns:cc="http://creativecommons.org/ns#"
   xmlns:rdf="http://www.w3.org/1999/02/22-rdf-syntax-ns#"
   xmlns:svg="http://www.w3.org/2000/svg"
   xmlns="http://www.w3.org/2000/svg"
   xmlns:sodipodi="http://sodipodi.sourceforge.net/DTD/sodipodi-0.dtd"
   xmlns:inkscape="http://www.inkscape.org/namespaces/inkscape"
   inkscape:version="1.0beta1 (32d4812, 2019-09-19)"
   height="786.86267"
   width="700.73871"
   sodipodi:docname="elastic.svg"
   version="1.1"
   viewBox="0 0 700.73871 786.86267"
   data-name="Layer 1"
   id="Layer_1">
  <metadata
     id="metadata25">
    <rdf:RDF>
      <cc:Work
         rdf:about="">
        <dc:format>image/svg+xml</dc:format>
        <dc:type
           rdf:resource="http://purl.org/dc/dcmitype/StillImage" />
        <dc:title>Elastic Search Color</dc:title>
      </cc:Work>
    </rdf:RDF>
  </metadata>
  <sodipodi:namedview
     inkscape:current-layer="Layer_1"
     inkscape:window-maximized="0"
     inkscape:window-y="23"
     inkscape:window-x="0"
     inkscape:cy="544.00556"
     inkscape:cx="384"
     inkscape:zoom="0.35"
     showgrid="false"
     id="namedview23"
     inkscape:window-height="1209"
     inkscape:window-width="1600"
     inkscape:pageshadow="2"
     inkscape:pageopacity="0"
     guidetolerance="10"
     gridtolerance="10"
     objecttolerance="10"
     borderopacity="1"
     inkscape:document-rotation="0"
     bordercolor="#666666"
     pagecolor="#ffffff" />
  <defs
     id="defs12">
    <style
       id="style10">.cls-1{fill:#343741;}.cls-1,.cls-2,.cls-3{fill-rule:evenodd;}.cls-2{fill:#fec514;}.cls-3{fill:#00bfb3;}</style>
  </defs>
  <title
     id="title14">Elastic Search Color</title>
  <path
     style="stroke-width:12.2937"
     inkscape:connector-curvature="0"
     id="path16"
     d="m 0,393.43136 a 393.39719,393.39719 0 0 0 12.908345,98.34929 H 491.74648 a 98.349295,98.349295 0 0 0 98.34929,-98.34929 v 0 A 98.349295,98.349295 0 0 0 491.74648,295.08205 H 13.400091 A 393.39719,393.39719 0 0 0 0,393.43136 Z"
     class="cls-1" />
  <path
     style="stroke-width:12.2937"
     inkscape:connector-curvature="0"
     id="path18"
     d="M 662.50545,188.37308 A 363.76946,363.76946 0 0 0 700.73873,147.55811 392.41369,392.41369 0 0 0 40.937894,221.32009 H 578.53973 a 123.79718,123.79718 0 0 0 83.96572,-32.94701 z"
     class="cls-2" />
  <path
     style="stroke-width:12.2937"
     inkscape:connector-curvature="0"
     id="path20"
     d="M 578.53973,565.54262 H 40.937894 a 392.41369,392.41369 0 0 0 659.800836,73.76197 363.76946,363.76946 0 0 0 -38.23328,-40.81495 123.79718,123.79718 0 0 0 -83.96572,-32.94702 z"
     class="cls-3" />
</svg>
