<?xml version="1.0" encoding="UTF-8" standalone="no"?>
<svg
   xmlns:dc="http://purl.org/dc/elements/1.1/"
   xmlns:cc="http://creativecommons.org/ns#"
   xmlns:rdf="http://www.w3.org/1999/02/22-rdf-syntax-ns#"
   xmlns:svg="http://www.w3.org/2000/svg"
   xmlns="http://www.w3.org/2000/svg"
   xmlns:sodipodi="http://sodipodi.sourceforge.net/DTD/sodipodi-0.dtd"
   xmlns:inkscape="http://www.inkscape.org/namespaces/inkscape"
   inkscape:version="1.0beta1 (32d4812, 2019-09-19)"
   sodipodi:docname="gcp.svg"
   id="svg55"
   version="1.1"
   viewBox="0 0 882.28571 882.28571"
   height="882.28571"
   width="882.28571">
  <metadata
     id="metadata59">
    <rdf:RDF>
      <cc:Work
         rdf:about="">
        <dc:format>image/svg+xml</dc:format>
        <dc:type
           rdf:resource="http://purl.org/dc/dcmitype/StillImage" />
        <dc:title>Artboard 1</dc:title>
      </cc:Work>
    </rdf:RDF>
  </metadata>
  <sodipodi:namedview
     inkscape:current-layer="svg55"
     inkscape:window-maximized="0"
     inkscape:window-y="23"
     inkscape:window-x="0"
     inkscape:cy="560"
     inkscape:cx="400"
     inkscape:zoom="0.35"
     showgrid="false"
     id="namedview57"
     inkscape:window-height="1209"
     inkscape:window-width="1600"
     inkscape:pageshadow="2"
     inkscape:pageopacity="0"
     guidetolerance="10"
     gridtolerance="10"
     objecttolerance="10"
     borderopacity="1"
     inkscape:document-rotation="0"
     bordercolor="#666666"
     pagecolor="#ffffff" />
  <defs
     id="defs15">
    <radialGradient
       gradientUnits="userSpaceOnUse"
       gradientTransform="matrix(9.1902464,0,0,9.1902464,2191.7569,-1153.2163)"
       r="90.313202"
       cy="139.6505"
       cx="-221.8309"
       id="a">
      <stop
         id="stop10"
         stop-opacity="0.1"
         stop-color="#fff"
         offset="0" />
      <stop
         id="stop12"
         stop-opacity="0"
         stop-color="#fff"
         offset="1" />
    </radialGradient>
  </defs>
  <title
     id="title17">Artboard 1</title>
  <path
     style="stroke-width:6.89286"
     inkscape:connector-curvature="0"
     id="path19"
     fill="#fbbc05"
     d="m 565.26047,656.79761 -82.71429,143.785 H 265.92643 A 53.931093,53.931093 0 0 1 219.14668,773.47094 L 43.930246,467.97951 a 53.955218,53.955218 0 0 1 0,-53.62643 l 66.676674,-116.21357 82.30141,143.00335 124.07142,215.65475 z" />
  <path
     style="stroke-width:6.89286"
     inkscape:connector-curvature="0"
     id="path21"
     fill="#ea4335"
     d="M 838.35547,467.97882 663.13904,773.51643 A 53.87595,53.87595 0 0 1 616.35929,800.6281 H 482.5 L 565.21429,656.8431 689.37739,441.14286 565.21429,225.4881 h 164.78546 l 108.30954,188.86429 a 53.618157,53.618157 0 0 1 0.0462,53.62643 z" />
  <path
     style="stroke-width:6.89286"
     inkscape:connector-curvature="0"
     id="path23"
     fill="#4285f4"
     d="M 730.04525,225.4881 H 316.97975 L 192.90833,441.14286 110.60761,298.09333 219.14736,108.81547 a 53.87595,53.87595 0 0 1 46.77907,-27.112366 h 350.47904 a 53.986925,53.986925 0 0 1 46.77975,27.111676 z" />
  <path
     style="stroke-width:6.89286"
     inkscape:connector-curvature="0"
     id="path25"
     fill="#e0e0e0"
     d="M 565.26047,225.4881 689.3319,441.14286 565.21429,656.79761 H 317.02525 L 192.90833,441.14286 316.97975,225.4881 h 248.28072" />
  <circle
     style="stroke-width:6.89286"
     id="circle27"
     fill="#fff"
     r="107.85046"
     cy="441.14285"
     cx="441.14285" />
  <path
     inkscape:connector-curvature="0"
     id="path29"
     style="isolation:isolate;stroke-width:6.89286"
     opacity="0.2"
     fill="#fff"
     d="m 219.14668,113.27239 a 53.87595,53.87595 0 0 1 46.77975,-27.111676 h 350.47904 a 53.986925,53.986925 0 0 1 46.77975,27.111676 l 64.3331,112.21571 h 2.57311 L 663.18453,108.81547 A 53.87595,53.87595 0 0 0 616.40478,81.703793 H 265.92643 a 53.931093,53.931093 0 0 0 -46.77975,27.111677 l -108.53976,189.27786 1.2869,2.25189 z" />
  <polyline
     transform="scale(6.8928571)"
     id="polyline31"
     fill-opacity="0.2"
     fill="#1a237e"
     points="27.987 64 45.987 32.713 105.913 32.713 105.54 32.06 45.987 32.06 27.987 63.347" />
  <path
     inkscape:connector-curvature="0"
     id="path33"
     style="isolation:isolate;stroke-width:6.89286"
     opacity="0.2"
     fill="#fff"
     d="m 43.930246,418.81 66.676674,-116.25975 82.30072,143.04953 124.07142,215.65475 h 245.66143 l 2.61929,-4.5031 H 316.97906 L 192.90764,441.14286 110.60692,298.09332 43.930246,414.3069 A 54.276425,54.276425 0 0 0 36.899532,443.39475 54.130296,54.130296 0 0 1 43.930246,418.81 Z" />
  <g
     transform="scale(6.8928571)"
     id="g37"
     opacity="0.2">
    <path
       inkscape:connector-curvature="0"
       id="path35"
       fill="#bf360c"
       d="M 70.38,115.4933 H 38.58 A 7.8242,7.8242 0 0 1 31.7933,111.56 L 6.3733,67.24 a 7.8531,7.8531 0 0 1 -1.02,-3.5667 7.77,7.77 0 0 0 1.02,4.22 l 25.42,44.3267 a 7.8162,7.8162 0 0 0 6.7867,3.9333 h 31.4267 z" />
  </g>
  <g
     transform="scale(6.8928571)"
     id="g43"
     opacity="0.2">
    <polygon
       id="polygon39"
       fill="#3e2723"
       points="100.013,64 100.38,64 82.38,32.713 82.007,32.713 " />
    <path
       inkscape:connector-curvature="0"
       id="path41"
       fill="#3e2723"
       d="m 121.6267,67.24 -25.42,44.3267 A 7.8162,7.8162 0 0 1 89.42,115.5 H 70.38 L 70,116.1533 h 19.42 a 7.8323,7.8323 0 0 0 6.7867,-3.9333 l 25.42,-44.3267 a 7.8287,7.8287 0 0 0 1.02,-4.22 7.8531,7.8531 0 0 1 -1.02,3.5667 z" />
  </g>
  <g
     transform="scale(6.8928571)"
     id="g49"
     opacity="0.2">
    <path
       inkscape:connector-curvature="0"
       id="path45"
       fill="#fff"
       d="m 105.9133,33.36 15.7133,27.4 a 7.8531,7.8531 0 0 1 1.02,3.5667 7.77,7.77 0 0 0 -1.02,-4.22 l -15.7133,-27.4 H 82.0067 l 0.38,0.6533" />
    <polygon
       id="polygon47"
       fill="#fff"
       points="82.007,95.287 70.007,116.147 70.38,116.147 82.007,95.94 100.38,64 100.013,64 " />
  </g>
  <path
     inkscape:connector-curvature="0"
     style="fill:url(#a);stroke-width:6.89286"
     id="path51"
     fill="url(#a)"
     d="M 838.35547,414.3069 730.04594,225.44261 663.13904,108.76929 A 53.87595,53.87595 0 0 0 616.35929,81.657611 H 265.92643 A 53.931093,53.931093 0 0 0 219.14668,108.76929 L 43.930246,414.3069 a 53.955218,53.955218 0 0 0 0,53.62643 L 219.14668,773.47094 a 53.87595,53.87595 0 0 0 46.77975,27.11167 h 350.47904 a 53.986925,53.986925 0 0 0 46.77975,-27.11167 L 838.40165,467.93333 a 53.842864,53.842864 0 0 0 -0.0462,-53.62643 z" />
  <rect
     style="stroke-width:6.89286"
     y="0"
     x="0"
     id="rect53"
     fill="none"
     height="882.28571"
     width="882.28571" />
</svg>
