<?xml version="1.0" encoding="UTF-8" standalone="no"?>
<svg
   xmlns:dc="http://purl.org/dc/elements/1.1/"
   xmlns:cc="http://creativecommons.org/ns#"
   xmlns:rdf="http://www.w3.org/1999/02/22-rdf-syntax-ns#"
   xmlns:svg="http://www.w3.org/2000/svg"
   xmlns="http://www.w3.org/2000/svg"
   xmlns:sodipodi="http://sodipodi.sourceforge.net/DTD/sodipodi-0.dtd"
   xmlns:inkscape="http://www.inkscape.org/namespaces/inkscape"
   inkscape:version="1.0beta1 (32d4812, 2019-09-19)"
   height="993.0719"
   width="1018.2857"
   sodipodi:docname="github.svg"
   id="svg14"
   version="1.1"
   viewBox="0 0 1018.2857 993.0719"
   role="img">
  <metadata
     id="metadata20">
    <rdf:RDF>
      <cc:Work
         rdf:about="">
        <dc:format>image/svg+xml</dc:format>
        <dc:type
           rdf:resource="http://purl.org/dc/dcmitype/StillImage" />
      </cc:Work>
    </rdf:RDF>
  </metadata>
  <defs
     id="defs18" />
  <sodipodi:namedview
     inkscape:current-layer="svg14"
     inkscape:window-maximized="0"
     inkscape:window-y="23"
     inkscape:window-x="0"
     inkscape:cy="559.703"
     inkscape:cx="400"
     inkscape:zoom="0.35"
     showgrid="false"
     id="namedview16"
     inkscape:window-height="1209"
     inkscape:window-width="1600"
     inkscape:pageshadow="2"
     inkscape:pageopacity="0"
     guidetolerance="10"
     gridtolerance="10"
     objecttolerance="10"
     borderopacity="1"
     inkscape:document-rotation="0"
     bordercolor="#666666"
     pagecolor="#ffffff" />
  <title
     id="title10">GitHub icon</title>
  <path
     style="stroke-width:42.4286"
     inkscape:connector-curvature="0"
     id="path12"
     d="M 509.14286,0 C 227.84143,0 0,227.96871 0,509.14286 c 0,224.99871 145.86943,415.8 348.12643,483.04928 25.45714,4.79443 34.79143,-10.94657 34.79143,-24.48128 0,-12.09215 -0.42429,-44.12572 -0.63643,-86.55429 -141.62657,30.71829 -171.49629,-68.31 -171.49629,-68.31 -23.166,-58.76357 -56.64214,-74.46214 -56.64214,-74.46214 -46.11986,-31.56686 3.564,-30.93043 3.564,-30.93043 51.12643,3.564 77.98371,52.44171 77.98371,52.44171 45.39858,77.85643 119.18186,55.36929 148.28786,42.34372 4.58229,-32.92457 17.69272,-55.36929 32.24572,-68.09786 C 303.15214,721.413 184.30971,677.62671 184.30971,482.54014 c 0,-55.58143 19.72929,-100.98 52.39929,-136.62 -5.72786,-12.85585 -22.91143,-64.61871 4.455,-134.75314 0,0 42.64071,-13.662 140.01429,52.18714 40.73142,-11.32843 84.00857,-16.929 127.28571,-17.18357 43.27714,0.25457 86.55429,5.85514 127.28571,17.18357 C 732.48686,197.505 775.12757,211.167 775.12757,211.167 c 27.36643,70.13443 10.18286,121.89729 5.09143,134.75314 32.45786,35.64 52.18714,81.03857 52.18714,136.62 0,195.59572 -119.01214,238.66072 -232.29643,251.17715 17.82,15.27428 34.36715,46.50171 34.36715,94.19142 0,68.14029 -0.63643,122.87315 -0.63643,139.42029 0,13.365 8.91,29.27571 35.00357,24.18429 C 872.54357,924.73071 1018.2857,733.80214 1018.2857,509.14286 1018.2857,227.96871 790.317,0 509.14286,0" />
</svg>
