<svg width="110" height="128" viewBox="0 0 110 128" fill="none" xmlns="http://www.w3.org/2000/svg">
<g clip-path="url(#clip0_3512_3292)">
<path d="M27.5377 125.542L26.02 115.352L15.8291 116.87L17.5637 127.06L27.5377 125.542Z" fill="url(#paint0_linear_3512_3292)"/>
<path d="M107.33 96.9216L105.596 86.9477L61.1465 93.8859L62.4473 103.86L107.33 96.9216Z" fill="url(#paint1_linear_3512_3292)"/>
<path d="M46.6173 106.462L56.8082 104.728L55.2905 94.7534L45.0996 96.2711L46.6173 106.462Z" fill="url(#paint2_linear_3512_3292)"/>
<path d="M43.5828 122.941L41.8482 112.967L31.874 114.484L33.1751 124.675L43.5828 122.941Z" fill="url(#paint3_linear_3512_3292)"/>
<path d="M13.4429 101.041L14.9607 111.232L25.1516 109.714L23.6338 99.5234L13.4429 101.041Z" fill="url(#paint4_linear_3512_3292)"/>
<path d="M63.3135 109.497L65.0481 119.905L109.714 112.967L108.197 102.776L63.3135 109.497Z" fill="url(#paint5_linear_3512_3292)"/>
<path d="M49.219 122.073L59.1929 120.772L57.6752 110.364L47.4844 112.099L49.219 122.073Z" fill="url(#paint6_linear_3512_3292)"/>
<path d="M29.2715 98.6562L31.0059 108.847L40.9801 107.329L39.4621 97.1383L29.2715 98.6562Z" fill="url(#paint7_linear_3512_3292)"/>
<path d="M16.9125 94.7534L4.5533 13.6602L0 14.3106L12.5759 95.4039L16.9125 94.7534Z" fill="url(#paint8_linear_3512_3292)"/>
<path d="M22.7667 93.8859L9.32337 6.72153L4.98682 7.58889L18.4301 94.5364L22.7667 93.8859Z" fill="url(#paint9_linear_3512_3292)"/>
<path d="M32.7419 92.3682L18.6481 0L14.3115 0.867227L28.4052 92.8018L32.7419 92.3682Z" fill="url(#paint10_linear_3512_3292)"/>
<path d="M38.5947 91.5005L25.5851 7.37164L21.4653 8.02209L34.4749 91.9341L38.5947 91.5005Z" fill="url(#paint11_linear_3512_3292)"/>
<path d="M48.5696 89.7664L37.0779 15.178L32.7412 15.8285L44.2331 90.6338L48.5696 89.7664Z" fill="url(#paint12_linear_3512_3292)"/>
<path d="M54.4236 88.8994L42.4981 11.4922L38.1616 12.1427L50.304 89.5499L54.4236 88.8994Z" fill="url(#paint13_linear_3512_3292)"/>
</g>
<defs>
<linearGradient id="paint0_linear_3512_3292" x1="26.6214" y1="152.862" x2="2.81582" y2="-1.83428" gradientUnits="userSpaceOnUse">
<stop stop-color="#FAED1E"/>
<stop offset="1" stop-color="#F15B2B"/>
</linearGradient>
<linearGradient id="paint1_linear_3512_3292" x1="91.4096" y1="142.892" x2="67.6043" y2="-11.8032" gradientUnits="userSpaceOnUse">
<stop stop-color="#FAED1E"/>
<stop offset="1" stop-color="#F15B2B"/>
</linearGradient>
<linearGradient id="paint2_linear_3512_3292" x1="58.3003" y1="147.987" x2="34.4946" y2="-6.70896" gradientUnits="userSpaceOnUse">
<stop stop-color="#FAED1E"/>
<stop offset="1" stop-color="#F15B2B"/>
</linearGradient>
<linearGradient id="paint3_linear_3512_3292" x1="42.466" y1="150.424" x2="18.6603" y2="-4.27245" gradientUnits="userSpaceOnUse">
<stop stop-color="#FAED1E"/>
<stop offset="1" stop-color="#F15B2B"/>
</linearGradient>
<linearGradient id="paint4_linear_3512_3292" x1="26.6041" y1="152.865" x2="2.79859" y2="-1.8315" gradientUnits="userSpaceOnUse">
<stop stop-color="#FAED1E"/>
<stop offset="1" stop-color="#F15B2B"/>
</linearGradient>
<linearGradient id="paint5_linear_3512_3292" x1="91.4243" y1="142.89" x2="67.6188" y2="-11.8064" gradientUnits="userSpaceOnUse">
<stop stop-color="#FAED1E"/>
<stop offset="1" stop-color="#F15B2B"/>
</linearGradient>
<linearGradient id="paint6_linear_3512_3292" x1="58.2995" y1="147.987" x2="34.4937" y2="-6.70943" gradientUnits="userSpaceOnUse">
<stop stop-color="#FAED1E"/>
<stop offset="1" stop-color="#F15B2B"/>
</linearGradient>
<linearGradient id="paint7_linear_3512_3292" x1="42.466" y1="150.424" x2="18.6609" y2="-4.27117" gradientUnits="userSpaceOnUse">
<stop stop-color="#FAED1E"/>
<stop offset="1" stop-color="#F15B2B"/>
</linearGradient>
<linearGradient id="paint8_linear_3512_3292" x1="23.2281" y1="150.308" x2="0.650726" y2="3.59236" gradientUnits="userSpaceOnUse">
<stop stop-color="#FAED1E"/>
<stop offset="1" stop-color="#F15B2B"/>
</linearGradient>
<linearGradient id="paint9_linear_3512_3292" x1="29.744" y1="153.47" x2="5.50388" y2="-4.05127" gradientUnits="userSpaceOnUse">
<stop stop-color="#FAED1E"/>
<stop offset="1" stop-color="#F15B2B"/>
</linearGradient>
<linearGradient id="paint10_linear_3512_3292" x1="40.306" y1="155.504" x2="14.6046" y2="-11.5125" gradientUnits="userSpaceOnUse">
<stop stop-color="#FAED1E"/>
<stop offset="1" stop-color="#F15B2B"/>
</linearGradient>
<linearGradient id="paint11_linear_3512_3292" x1="45.3268" y1="149.047" x2="21.8954" y2="-3.21903" gradientUnits="userSpaceOnUse">
<stop stop-color="#FAED1E"/>
<stop offset="1" stop-color="#F15B2B"/>
</linearGradient>
<linearGradient id="paint12_linear_3512_3292" x1="54.2523" y1="141.118" x2="33.4377" y2="5.85705" gradientUnits="userSpaceOnUse">
<stop stop-color="#FAED1E"/>
<stop offset="1" stop-color="#F15B2B"/>
</linearGradient>
<linearGradient id="paint13_linear_3512_3292" x1="60.4489" y1="142.164" x2="38.8366" y2="1.71852" gradientUnits="userSpaceOnUse">
<stop stop-color="#FAED1E"/>
<stop offset="1" stop-color="#F15B2B"/>
</linearGradient>
<clipPath id="clip0_3512_3292">
<rect width="109.714" height="128" fill="white"/>
</clipPath>
</defs>
</svg>
