<?xml version="1.0" encoding="UTF-8" standalone="no"?>
<svg
   xmlns:dc="http://purl.org/dc/elements/1.1/"
   xmlns:cc="http://creativecommons.org/ns#"
   xmlns:rdf="http://www.w3.org/1999/02/22-rdf-syntax-ns#"
   xmlns:svg="http://www.w3.org/2000/svg"
   xmlns="http://www.w3.org/2000/svg"
   xmlns:sodipodi="http://sodipodi.sourceforge.net/DTD/sodipodi-0.dtd"
   xmlns:inkscape="http://www.inkscape.org/namespaces/inkscape"
   inkscape:version="1.0beta1 (32d4812, 2019-09-19)"
   sodipodi:docname="hadoop.svg"
   xml:space="preserve"
   enable-background="new 0 0 50 50"
   viewBox="0 0 773.05713 597.13232"
   height="597.13232"
   width="773.05713"
   y="0px"
   x="0px"
   id="Layer_1"
   version="1.1"><metadata
   id="metadata35">
  <rdf:RDF>
    <cc:Work
       rdf:about="">
      <dc:format>image/svg+xml</dc:format>
      <dc:type
         rdf:resource="http://purl.org/dc/dcmitype/StillImage" />
      <dc:title></dc:title>
    </cc:Work>
  </rdf:RDF>
</metadata>
<defs
   id="defs33" />
<sodipodi:namedview
   inkscape:current-layer="Layer_1"
   inkscape:window-maximized="0"
   inkscape:window-y="23"
   inkscape:window-x="0"
   inkscape:cy="554.51262"
   inkscape:cx="400"
   inkscape:zoom="0.35"
   showgrid="false"
   id="namedview31"
   inkscape:window-height="1209"
   inkscape:window-width="1600"
   inkscape:pageshadow="2"
   inkscape:pageopacity="0"
   guidetolerance="10"
   gridtolerance="10"
   objecttolerance="10"
   borderopacity="1"
   inkscape:document-rotation="0"
   bordercolor="#666666"
   pagecolor="#ffffff" />

<polygon
   transform="matrix(15.399545,0,0,15.399545,0,-84.503181)"
   id="polygon10"
   points="7.9,17.7 5.3,20.8 3.9,22.3 2.5,22.8 2.1,21.9 2.8,21 2.9,19.7 3.4,19.7 3.8,20.1 3.7,18.8 3.2,18.4 3.2,17.9 2,18.6 0.8,19.9 0.6,21.1 1.1,22.1 1.5,23.7 2.4,24.1 3.4,24.1 4.3,23.5 3.7,26.6 4.3,30 3.6,31.6 1.5,33.9 1.8,35.4 2.9,37 4.8,38.3 5.9,38.5 7,38.5 6.3,41.5 8.9,42.6 12.2,43 13.3,42.2 13.4,40.3 14.7,38.2 14.8,36.5 17.8,36.8 20.6,36.5 17.8,38.2 18.3,40.2 20,43 21.8,43.7 23.1,43.2 23.7,42 26.6,39.8 27.2,40.3 31.7,40.5 32.6,39.7 32.7,38.4 32.4,37.9 32.2,34.4 30.7,31.4 30.9,30 31.8,30.5 34.4,32.9 35.6,33 37,32.4 38.4,31.4 39.1,29.1 43.1,29.4 45.6,28.4 47.6,26.6 49,23.9 49.4,20.7 49.1,17.1 48.3,13.8 47.5,12.7 46.4,12.4 44.5,14.5 42.8,15.1 41.3,12.6 39.8,11.2 38.9,10.7 35.7,7.9 33,6.5 30.4,6.3 27.3,6.8 24.6,7.8 22.8,9.3 21.3,11.1 19.8,11.5 17.2,14 13.7,14.6 10.6,16 "
   fill="#FCD116"
   clip-rule="evenodd"
   fill-rule="evenodd" />

<polygon
   transform="matrix(15.399545,0,0,15.399545,0,-84.503181)"
   id="polygon12"
   points="3.9,20.7 3.7,20.8 4.1,21.3 4.2,20.7 "
   fill="#1E1E1E" />

<path
   style="stroke-width:15.3995"
   inkscape:connector-curvature="0"
   id="path14"
   d="m 765.35737,175.74913 c -3.07991,-23.09932 -9.23973,-46.19864 -18.47945,-61.59818 -1.53996,-1.53996 -3.07991,-4.61987 -4.61987,-6.15982 -4.61986,-4.61986 -10.77968,-7.69977 -16.9395,-10.779682 -6.15981,-3.079911 -13.85959,-3.079911 -20.0194,0 -1.53996,1.53995 -3.07991,1.53995 -4.61987,3.079912 -3.07991,3.07991 -6.15982,7.69977 -9.23972,12.31963 -3.07991,4.61987 -7.69978,10.77968 -10.77969,13.85959 -4.61986,4.61987 -10.77968,6.15982 -16.93949,9.23973 -3.07991,-6.15982 -4.61987,-12.31964 -9.23973,-16.9395 -4.61986,-6.15982 -7.69977,-12.31964 -13.85959,-18.47945 C 636.0012,95.671488 632.92129,92.591583 628.30142,87.971719 623.68156,84.89181 619.0617,81.811901 614.44183,78.731993 600.58224,69.492266 589.80256,60.252539 577.48293,49.472858 572.86306,44.852994 566.70324,40.233131 562.08338,35.613267 534.3642,12.51395 508.18497,1.7342693 480.46579,0.19431484 452.74661,-1.3456396 423.48748,6.3541332 388.06853,20.213723 c -16.9395,7.699772 -29.25914,15.399544 -40.03882,24.639271 -10.77968,9.239727 -18.47945,20.019408 -29.25914,33.878999 -6.15981,0 -10.77968,1.539954 -15.39954,3.079908 -6.15982,1.539955 -10.77968,6.159818 -18.47945,12.319636 -4.61987,4.619861 -9.23973,9.239733 -13.85959,12.319633 v 0 c -4.61987,4.61987 -7.69978,7.69978 -12.31964,12.31964 -32.33904,4.61986 -56.97831,10.77968 -80.07763,20.01941 -23.09932,9.23973 -44.65868,21.55936 -66.21804,40.03881 -9.23973,7.69978 -16.939503,15.39955 -23.099321,24.63928 -6.159818,9.23972 -12.319636,16.9395 -16.939499,26.17922 -4.619863,4.61987 -9.239727,9.23973 -13.85959,13.85959 -4.619864,4.61987 -9.239727,7.69977 -15.399545,9.23973 v 0 c -3.079909,1.53995 -4.619863,1.53995 -4.619863,1.53995 0,0 0,-1.53995 0,-1.53995 7.699772,-7.69977 9.239727,-18.47945 9.239727,-29.25914 1.539954,1.53996 1.539954,3.07991 3.079908,4.61987 1.539955,1.53995 1.539955,3.07991 3.079909,4.61986 l 3.079909,-3.07991 4.619864,1.53996 c 1.539954,-7.69978 3.079909,-15.39955 1.539954,-24.63927 -1.539954,-4.61987 -3.079909,-9.23973 -7.699772,-12.31964 0,-1.53995 1.539954,-1.53995 1.539954,-3.07991 1.539955,-3.07991 3.079909,-6.15982 3.079909,-10.77968 l -3.079909,-1.53996 v 0 l 3.079909,1.53996 4.619864,-3.07991 -6.159818,1.53995 c -9.239727,1.53996 -27.719181,12.31964 -41.578771,26.17923 -4.619863,4.61986 -9.2397267,10.77968 -12.3196356,16.9395 C 0,229.64753 0,235.80735 0,241.96717 c 1.5399545,6.15982 4.6198634,10.77968 9.2397268,16.9395 1.5399542,4.61986 1.5399542,7.69977 3.0799092,10.77968 1.539954,3.07991 3.079909,6.15982 3.079909,9.23973 4.619863,7.69977 10.779681,13.85959 16.939499,15.39954 6.159818,1.53995 12.319636,1.53995 18.479453,0 -1.539954,7.69977 -1.539954,15.39954 -3.079908,23.09932 0,10.77968 0,23.09931 1.539954,36.9589 0,3.07991 0,6.15982 1.539954,9.23973 0,3.07991 1.539955,6.15982 1.539955,9.23973 -1.539955,3.07991 -3.079909,6.15982 -3.079909,9.23972 -1.539954,4.61987 -3.079909,10.77969 -6.159818,15.39955 -4.619863,4.61986 -7.699772,7.69977 -12.319636,12.31964 -3.079909,3.0799 -7.699772,7.69977 -10.779681,10.77968 0,0 -1.539954,1.53995 -3.079909,3.07991 -7.6997722,7.69977 -9.2397267,9.23972 -7.6997722,21.55936 1.5399542,7.69977 4.6198632,15.39954 7.6997722,24.63927 3.079909,7.69977 9.239727,13.85959 15.399545,21.55936 10.779681,9.23973 24.639271,18.47946 38.498862,24.63927 7.699772,3.07991 16.939499,4.61987 24.639271,3.07991 0,1.53996 0,3.07991 -1.539954,3.07991 -1.539955,3.07991 -3.079909,6.15982 -4.619864,10.77968 -9.239727,21.55937 0,32.33905 15.399541,38.49886 7.69978,3.07991 16.9395,6.15982 24.63928,7.69978 1.53995,0 3.0799,1.53995 6.15981,1.53995 9.23973,3.07991 27.71918,7.69977 43.11873,9.23973 16.9395,1.53995 32.33904,-3.07991 36.95891,-18.47946 1.53995,-6.15981 3.0799,-10.77968 3.0799,-15.39954 0,-4.61986 0,-9.23973 0,-13.85959 4.61987,-10.77968 7.69978,-13.85959 10.77969,-18.47945 0,-1.53996 1.53995,-1.53996 1.53995,-3.07991 3.07991,-6.15982 6.15982,-9.23973 6.15982,-13.85959 0,-4.61987 0,-9.23973 0,-15.39955 0,0 0,-1.53995 0,-3.07991 9.23972,1.53996 20.01941,1.53996 29.25913,1.53996 4.61987,0 9.23973,0 15.39955,0 -1.53996,0 -3.07991,1.53995 -4.61987,1.53995 0,0 -1.53995,0 -1.53995,1.53996 -13.85959,6.15981 -13.85959,20.0194 -9.23973,32.33904 3.07991,12.31964 10.77968,24.63927 16.9395,30.79909 10.77968,15.39954 20.01941,29.25913 30.79909,35.41895 12.31964,7.69977 26.17923,7.69977 44.65868,-1.53995 9.23973,-4.61987 12.31964,-10.77968 15.39955,-16.9395 1.53995,-1.53996 3.0799,-4.61986 4.61986,-6.15982 3.07991,-3.07991 12.31963,-10.77968 23.09932,-18.47945 3.07991,-3.07991 6.15981,-4.61987 10.77968,-7.69978 3.07991,1.53996 4.61986,3.07991 9.23972,4.61987 4.61987,1.53995 10.77969,1.53995 16.9395,1.53995 4.61987,0 21.55937,0 32.33905,0 3.07991,0 6.15982,0 7.69977,0 10.77968,0 20.01941,0 26.17923,-4.61986 7.69977,-4.61986 10.77968,-10.77968 12.31963,-23.09932 0,-6.15982 0,-9.23972 0,-12.31963 0,-3.07991 -1.53995,-6.15982 -4.61986,-10.77968 0,-6.15982 0,-10.77969 0,-16.9395 0,-6.15982 0,-12.31964 0,-16.9395 0,-6.15982 -1.53996,-12.31964 -3.07991,-18.47946 -1.53996,-6.15981 -3.07991,-10.77968 -6.15982,-16.9395 -1.53995,-4.61986 -3.07991,-7.69977 -4.61986,-12.31963 l -3.07991,1.53995 v 0 l 3.07991,-1.53995 v 0 c -1.53996,-6.15982 -4.61987,-12.31964 -7.69977,-18.47946 0,-1.53995 0,-3.0799 0,-4.61986 1.53995,1.53996 4.61986,4.61986 6.15981,6.15982 l 9.23973,9.23973 c 6.15982,6.15981 12.31964,12.31963 20.01941,16.9395 7.69977,4.61986 15.39954,7.69977 26.17922,6.15981 10.77969,0 23.09932,-4.61986 33.879,-12.31963 9.23973,-7.69977 16.9395,-16.9395 21.55936,-27.71918 1.53996,-3.07991 1.53996,-6.15982 3.07991,-9.23973 0,-3.07991 1.53996,-4.61986 1.53996,-7.69977 15.39954,3.07991 33.879,3.07991 49.27854,1.53995 15.39955,-1.53995 32.33904,-6.15982 44.65868,-12.31963 20.01941,-10.77968 33.879,-26.17923 44.65868,-44.65868 v 0 c 12.31964,-20.01941 18.47945,-44.65868 21.55936,-69.29795 -1.53995,-18.47946 -3.07991,-46.19864 -7.69977,-72.37786 z M 534.3642,362.08362 c -4.61986,15.39954 -12.31964,41.57877 9.23973,46.19863 7.69977,1.53996 12.31963,1.53996 23.09931,-4.61986 -9.23972,1.53995 -13.85959,1.53995 -20.0194,0 -6.15982,-1.53996 -9.23973,-4.61987 -10.77969,-9.23973 1.53996,1.53995 4.61987,1.53995 10.77969,3.07991 15.39954,3.07991 30.79909,-3.07991 33.87899,-15.39955 1.53996,-6.15981 1.53996,-9.23972 4.61987,-18.47945 3.07991,1.53996 6.15982,1.53996 10.77968,3.07991 -1.53996,6.15982 -4.61986,12.31964 -6.15982,20.01941 -4.61986,16.9395 -24.63927,30.79909 -43.11872,29.25913 -16.9395,0 -26.17923,-10.77968 -38.49887,-20.01941 -7.69977,-6.15981 -15.39954,-13.85959 -23.09931,-20.0194 -20.01941,-6.15982 -36.95891,-13.85959 -55.43836,-27.71918 13.85959,15.39954 23.09931,24.63927 41.57877,32.33904 -3.07991,27.71918 -12.31964,47.73859 -20.01941,73.91781 -3.07991,12.31964 -32.33904,60.05823 -41.57877,64.67809 -6.15982,3.07991 -41.57877,33.879 -49.27854,38.49886 -4.61987,6.15982 -9.23973,15.39955 -16.9395,20.01941 -23.09932,12.31964 -38.49887,-10.77968 -50.8185,-30.79909 -6.15982,-9.23972 -21.55936,-35.41895 -7.69977,-43.11872 12.31963,-6.15982 20.0194,-12.31964 33.87899,-20.01941 1.53996,3.07991 4.61987,7.69977 7.69978,10.77968 0,-4.61986 -1.53996,-7.69977 -1.53996,-12.31963 -1.53995,-7.69978 -1.53995,-12.31964 0,-20.01941 0,-6.15982 1.53996,-13.85959 1.53996,-20.01941 -1.53996,7.69977 -6.15982,13.85959 -7.69978,21.55936 -1.53995,3.07991 -1.53995,4.61986 -1.53995,7.69977 -29.25913,6.15982 -60.05822,6.15982 -89.31736,1.53996 -1.53995,-10.77968 -4.61986,-23.09932 -6.15982,-30.79909 0,9.23973 0,35.41895 0,49.27854 0,10.77968 0,15.39955 -6.15981,24.63927 -4.61987,9.23973 -7.69978,10.77968 -15.39955,26.17923 0,9.23973 0,15.39954 -1.53995,24.63927 -4.61987,15.39955 -46.19864,3.07991 -56.97832,0 -13.85959,-3.07991 -41.57877,-9.23973 -35.41895,-27.71918 6.15982,-15.39954 10.77968,-32.33904 13.85959,-55.43836 -24.639273,-35.41895 -47.73859,-84.6975 -52.358453,-129.35618 -3.079909,-33.87899 -1.539955,-55.43836 6.159817,-75.45776 12.319636,-32.33905 27.719176,-61.59818 53.898406,-84.6975 35.41895,-30.79909 67.758,-43.11873 120.11645,-50.8185 -12.31964,13.85959 -24.63927,29.25914 -38.49886,44.65868 -13.85959,15.39955 -21.55936,32.33905 -30.79909,49.27854 -12.31964,24.63928 -12.31964,33.879 4.61986,53.89841 13.85959,18.47945 21.55936,26.17923 26.17923,44.65868 -4.61987,10.77968 -6.15982,18.47945 -7.69977,32.33904 16.93949,18.47946 29.25913,30.79909 44.65867,33.879 15.39955,3.07991 29.25914,3.07991 43.11873,-4.61986 30.79909,-15.39955 60.05822,-36.95891 95.47718,-38.49886 16.9395,-40.03882 15.39954,-73.91782 6.15981,-113.95663 -4.61986,-26.17923 -7.69977,-52.35845 -9.23972,-78.53768 -6.15982,27.71918 -7.69977,52.35845 -3.07991,80.07763 6.15982,33.879 10.77968,70.83791 -6.15982,100.09704 -32.33904,3.07991 -60.05822,21.55936 -89.31736,36.95891 -12.31963,6.15982 -23.09931,6.15982 -36.95891,3.07991 -9.23972,-1.53996 -16.93949,-9.23973 -30.79908,-24.63927 0,-15.39955 3.0799,-21.55937 9.23972,-35.41896 10.77968,-21.55936 23.09932,-41.57877 36.95891,-63.13813 -15.39955,20.01941 -30.79909,36.95891 -43.11873,55.43836 -4.61986,-13.85959 -12.31963,-21.55936 -23.09931,-36.95891 -10.77968,-15.39954 -12.31964,-21.55936 -4.61987,-40.03881 9.23973,-18.47946 15.39955,-33.879 30.79909,-49.27854 24.63927,-27.71919 47.73859,-56.97832 75.45777,-84.6975 15.39955,-13.859593 21.55936,-13.859593 40.03882,-16.939502 18.47945,-3.079909 35.41895,-6.159818 53.8984,-10.779681 -18.47945,3.079909 -35.41895,4.619863 -52.35845,4.619863 0,0 0,0 0,0 16.9395,-21.559362 26.17923,-33.878998 53.89841,-46.198634 67.758,-29.2591348 110.87672,-32.3390428 163.23517,12.319636 13.85959,12.319636 26.17923,23.099317 40.03882,32.339044 -4.61986,0 -9.23973,1.539954 -15.39955,3.079909 7.69978,-1.539955 15.39955,0 23.09932,1.539954 1.53996,1.539955 4.61986,3.079909 6.15982,4.619864 9.23973,6.159815 15.39954,9.239727 21.55936,18.479457 7.69977,9.23973 12.31964,20.01941 18.47946,30.79909 -3.07991,-1.53996 -6.15982,-1.53996 -9.23973,-3.07991 -1.53996,-1.53996 -4.61986,-1.53996 -6.15982,-1.53996 -4.61986,0 -7.69977,0 -12.31963,3.07991 0,0 0,0 0,0 -6.15982,3.07991 -13.8596,6.15982 -20.01941,6.15982 3.07991,1.53996 9.23972,1.53996 12.31963,0 0,0 1.53996,0 1.53996,0 -1.53996,1.53996 -1.53996,4.61986 -3.07991,7.69977 0,3.07991 0,7.69978 1.53995,10.77968 0,0 0,0 0,0 0,1.53996 1.53996,1.53996 1.53996,3.07991 -3.07991,1.53996 -4.61987,1.53996 -7.69978,3.07991 12.31964,-1.53995 24.63928,-1.53995 36.95891,0 1.53996,4.61987 1.53996,7.69977 3.07991,12.31964 -1.53995,0 -3.07991,0 -4.61986,0 0,0 0,0 0,0 -6.15982,-4.61987 -12.31964,-4.61987 -21.55936,-1.53996 -26.17923,6.15982 -20.01941,21.55937 -32.33905,44.65868 12.31964,-15.39954 12.31964,-32.33904 32.33905,-36.9589 4.61986,-1.53996 7.69977,-3.07991 10.77968,-1.53996 -6.15982,3.07991 -10.77968,7.69977 -13.85959,13.85959 -6.15982,16.9395 -1.53996,29.25914 -9.23973,44.65868 7.69977,-13.85959 7.69977,-26.17922 15.39954,-41.57877 3.07991,-4.61986 12.31964,-13.85959 16.9395,-13.85959 1.53996,0 3.07991,0 4.61987,0 1.53995,9.23973 1.53995,18.47945 1.53995,24.63927 -1.53995,13.85959 -4.61986,33.879 -6.15982,41.57877 7.69978,-9.23972 10.77968,-27.71918 13.85959,-41.57877 3.07991,-13.85959 3.07991,-30.79909 0,-46.19863 -4.61986,-21.55936 16.9395,-16.9395 29.25914,-27.71918 9.23972,-7.69977 15.39954,-18.47946 23.09932,-26.17923 7.69977,-7.69977 21.55936,3.07991 24.63927,12.31964 13.85959,33.879 20.0194,87.7774 16.9395,123.19635 -4.61987,38.49887 -23.09932,81.61759 -56.97832,100.09705 -43.11872,24.63927 -95.47718,9.23972 -138.5959,-4.61987 -9.23973,-3.07991 -15.39955,-7.69977 -23.09932,-12.31963 4.61986,7.69977 6.15982,18.47945 3.07991,27.71918 z m -38.49886,155.5354 c -1.53996,15.39954 -6.15982,16.9395 -21.55936,16.9395 -6.15982,0 -32.33905,0 -38.49887,-1.53996 -9.23972,-1.53995 -13.85959,-1.53995 -16.93949,-3.07991 13.85959,-10.77968 38.49886,-53.8984 43.11872,-69.29795 4.61986,-15.39954 10.77968,-29.25913 13.85959,-44.65868 1.53996,6.15982 3.07991,12.31964 6.15982,18.47946 4.61986,10.77968 6.15982,16.9395 7.69977,29.25913 0,12.31964 0,24.63927 1.53996,36.95891 4.61986,7.69977 4.61986,9.23973 4.61986,16.9395 z M 46.198634,197.30849 c -3.079909,4.61986 -4.619863,9.23973 -4.619863,12.31963 -4.619864,16.9395 1.539954,32.33905 -13.859591,44.65868 7.699773,13.85959 6.159818,20.01941 23.099317,13.85959 6.159818,-3.0799 12.319636,-6.15981 16.9395,-10.77968 -1.539955,6.15982 -4.619864,12.31964 -6.159818,18.47946 0,1.53995 0,1.53995 -1.539955,3.07991 -12.319635,4.61986 -27.71918,7.69977 -33.878998,-4.61987 C 23.099317,268.14639 21.559363,261.98658 20.019408,254.2868 0,234.2674 29.259135,206.54822 46.198634,197.30849 Z m 1.539955,18.47945 c 0,-1.53995 0,-4.61986 1.539954,-6.15982 0,-1.53995 0,-1.53995 1.539954,-3.0799 4.619864,3.0799 4.619864,6.15981 6.159818,12.31963 -3.079909,-3.07991 -6.159818,-4.61986 -9.239726,-3.07991 z m 15.399544,180.17467 c 9.239727,30.79909 24.639272,63.13814 41.578767,89.31736 0,0 0,0 0,0 -1.53995,4.61987 -3.07991,9.23973 -4.61986,12.31964 -12.319635,16.9395 -43.118725,-7.69977 -52.358451,-16.9395 -10.779682,-10.77968 -16.9395,-23.09932 -18.479454,-33.879 -1.539955,-7.69977 0,-7.69977 6.159818,-13.85959 7.699772,-7.69977 15.399544,-15.39954 23.099317,-23.09931 1.539954,-4.61987 3.079909,-9.23973 4.619863,-13.8596 z M 649.86079,141.87013 c 0,1.53995 1.53995,3.07991 1.53995,4.61986 0,0 -1.53995,1.53996 -1.53995,1.53996 -1.53996,-1.53996 -3.07991,-4.61987 -4.61987,-6.15982 1.53996,0 3.07991,0 4.61987,0 z M 76.997723,235.80735 Z M 52.358452,198.84844 Z M 13.85959,257.36671 Z M 229.45322,483.74002 Z M 605.20211,369.78339 v 0 0 z m 138.5959,-52.35845 z"
   fill="#1E1E1E" />

<path
   style="stroke-width:15.3995"
   inkscape:connector-curvature="0"
   id="path16"
   d="m 688.35965,160.34958 c 21.55936,-7.69977 32.33904,-24.63927 36.9589,-46.19863 -9.23972,16.9395 -21.55936,32.33904 -40.03881,40.03881 -9.23973,4.61987 -15.39955,3.07991 -26.17923,1.53996 10.77968,4.61986 18.47946,7.69977 29.25914,4.61986 z"
   fill="#1E1E1E" />

<path
   style="stroke-width:15.3995"
   inkscape:connector-curvature="0"
   id="path18"
   d="m 565.16329,181.90894 c -6.15982,0 -13.85959,1.53996 -23.09932,3.07991 0,-3.07991 -1.53995,-4.61986 -1.53995,-7.69977 -3.07991,-6.15982 -7.69977,-10.77968 -13.85959,-12.31964 4.61986,-3.0799 10.77968,-6.15981 15.39954,-9.23972 -12.31963,6.15982 -26.17922,4.61986 -36.9589,10.77968 -9.23973,6.15982 -21.55937,26.17923 -30.79909,33.879 6.15981,-3.07991 12.31963,-7.69977 18.47945,-12.31964 0,3.07991 1.53995,7.69977 3.07991,10.77968 3.07991,4.61987 6.15982,9.23973 10.77968,10.77968 -3.07991,4.61987 -6.15982,9.23973 -7.69977,15.39955 16.9395,-20.01941 41.57877,-36.95891 66.21804,-43.11873 z"
   fill="#1E1E1E" />

<path
   style="stroke-width:15.3995"
   inkscape:connector-curvature="0"
   id="path20"
   d="m 454.28657,158.80963 c 4.61986,-18.47946 10.77968,-35.41896 38.49886,-47.73859 -36.95891,9.23973 -43.11873,24.63927 -38.49886,47.73859 z"
   fill="#1E1E1E" />

<path
   style="stroke-width:15.3995"
   inkscape:connector-curvature="0"
   id="path22"
   d="m 514.34479,334.36444 c -1.53995,4.61986 -1.53995,12.31963 -3.07991,16.9395 1.53996,-6.15982 4.61987,-13.85959 7.69978,-18.47946 3.0799,-6.15982 4.61986,-6.15982 10.77968,-9.23973 4.61986,-1.53995 12.31963,-6.15981 15.39954,-7.69977 -4.61986,0 -12.31963,3.07991 -16.9395,3.07991 -10.77968,1.53996 -12.31963,4.61986 -13.85959,15.39955 z"
   fill="#1E1E1E" />

<path
   style="stroke-width:15.3995"
   inkscape:connector-curvature="0"
   id="path24"
   d="m 317.23062,126.47058 c -13.85959,13.85959 -26.17923,58.51827 -30.79909,76.99773 6.15982,-15.39955 23.09932,-56.97832 35.41895,-67.758 3.07991,-3.07991 6.15982,-4.61986 9.23973,-6.15982 -9.23973,15.39955 -7.69977,18.47946 -4.61986,38.49886 3.07991,-20.0194 9.23972,-29.25913 21.55936,-44.65868 12.31964,-3.0799 24.63927,-7.69977 38.49886,-12.31963 -15.39954,1.53995 -29.25913,3.07991 -44.65868,4.61986 -13.85959,3.07991 -16.9395,3.07991 -24.63927,10.77968 z"
   fill="#1E1E1E" />

<path
   style="stroke-width:15.3995"
   inkscape:connector-curvature="0"
   id="path26"
   d="m 500.4852,205.00826 c -3.07991,-4.61986 0,-10.77968 4.61987,-13.85959 4.61986,-3.07991 10.77968,0 13.85959,4.61986 0,0 0,1.53996 0,1.53996 -4.61987,3.07991 -9.23973,7.69977 -13.85959,12.31963 -1.53996,0 -4.61987,-1.53995 -4.61987,-4.61986"
   fill="#FFFACB"
   clip-rule="evenodd"
   fill-rule="evenodd" />

<path
   style="stroke-width:15.3995"
   inkscape:connector-curvature="0"
   id="path28"
   d="m 614.44183,160.34958 c 0,-4.61986 4.61987,-7.69977 7.69978,-7.69977 4.61986,0 7.69977,4.61986 7.69977,7.69977 0,1.53996 0,1.53996 0,3.07991 -4.61987,0 -7.69977,1.53995 -12.31964,3.07991 -1.53995,0 -3.07991,-3.07991 -3.07991,-6.15982"
   fill="#FFFACB"
   clip-rule="evenodd"
   fill-rule="evenodd" />

</svg>
