<?xml version="1.0" encoding="UTF-8" standalone="no"?>
<svg
   xmlns:dc="http://purl.org/dc/elements/1.1/"
   xmlns:cc="http://creativecommons.org/ns#"
   xmlns:rdf="http://www.w3.org/1999/02/22-rdf-syntax-ns#"
   xmlns:svg="http://www.w3.org/2000/svg"
   xmlns="http://www.w3.org/2000/svg"
   xmlns:xlink="http://www.w3.org/1999/xlink"
   xmlns:sodipodi="http://sodipodi.sourceforge.net/DTD/sodipodi-0.dtd"
   xmlns:inkscape="http://www.inkscape.org/namespaces/inkscape"
   inkscape:version="1.0beta1 (32d4812, 2019-09-19)"
   sodipodi:docname="haproxy.svg"
   id="svg166"
   version="1.1"
   text-anchor="middle"
   font-size="14px"
   font-family="Roboto"
   height="915.38458"
   width="909.5061"
   stroke-linejoin="round"
   stroke-linecap="round"
   stroke="#000"
   fill-rule="evenodd"
   fill="#fff"
   viewBox="0 0 197.05966 198.33333">
  <metadata
     id="metadata170">
    <rdf:RDF>
      <cc:Work
         rdf:about="">
        <dc:format>image/svg+xml</dc:format>
        <dc:type
           rdf:resource="http://purl.org/dc/dcmitype/StillImage" />
      </cc:Work>
    </rdf:RDF>
  </metadata>
  <sodipodi:namedview
     inkscape:current-layer="svg166"
     inkscape:window-maximized="0"
     inkscape:window-y="23"
     inkscape:window-x="0"
     inkscape:cy="554.83517"
     inkscape:cx="397.69231"
     inkscape:zoom="0.35"
     showgrid="false"
     id="namedview168"
     inkscape:window-height="1209"
     inkscape:window-width="1600"
     inkscape:pageshadow="2"
     inkscape:pageopacity="0"
     guidetolerance="10"
     gridtolerance="10"
     objecttolerance="10"
     borderopacity="1"
     inkscape:document-rotation="0"
     bordercolor="#666666"
     pagecolor="#ffffff" />
  <use
     height="100%"
     width="100%"
     transform="scale(3.0989583)"
     id="use10"
     y="0.5"
     x="0.5"
     xlink:href="#A" />
  <symbol
     transform="translate(-0.49999995,-0.49999995)"
     overflow="visible"
     id="A">
    <g
       id="g46"
       fill="none"
       stroke="#284a6a">
      <path
         inkscape:connector-curvature="0"
         id="path12"
         stroke-width=".26"
         d="m 31.766,23.7 -6.65,-7.518" />
      <path
         inkscape:connector-curvature="0"
         id="path14"
         stroke-width=".13"
         d="m 10.793,17.908 5.205,7.6" />
      <g
         id="g24"
         stroke-width=".26">
        <path
           inkscape:connector-curvature="0"
           id="path16"
           d="m 31.766,23.7 6.578,-7.6 m 1.374,15.987 7.807,-6.578 m -7.807,6.568 7.807,6.867 m -9.108,8.676 -6.65,-7.373 m -6.65,7.373 6.65,-7.373 m -15.76,-1.592 7.518,-6.578 m -7.517,-6.58 7.518,6.578 m 8.24,-8.386 -15.76,1.807 m 15.76,-1.806 15.76,1.807" />
        <path
           inkscape:connector-curvature="0"
           id="path18"
           d="M 39.718,32.077 38.343,16.1 m 1.375,15.977 -1.3,15.542" />
        <path
           inkscape:connector-curvature="0"
           id="path20"
           d="m 47.525,38.944 -15.76,1.3 m -15.758,-1.6 15.76,1.6" />
        <path
           inkscape:connector-curvature="0"
           id="path22"
           d="m 25.116,47.62 -1.6,-15.542 m 1.6,-15.905 -1.6,15.903" />
      </g>
      <g
         id="g44"
         stroke-width=".13">
        <path
           inkscape:connector-curvature="0"
           id="path26"
           d="m 8.778,27.522 7.23,-2.024 m 1.517,-14.746 7.6,5.422 m 1.726,-8.82 -1.735,8.82 M 26.851,7.354 38.343,16.1 M 36.6,7.354 38.334,16.1 m 7.592,-5.348 -7.6,5.35 M 52.721,17.908 38.343,16.1 m 9.182,9.398 5.205,-7.6 m -5.205,7.6 7.373,2.024" />
        <path
           inkscape:connector-curvature="0"
           id="path28"
           d="m 47.525,25.498 7.23,10.988 M 36.61,7.354 25.116,16.174" />
        <path
           inkscape:connector-curvature="0"
           id="path30"
           d="m 47.525,25.498 -1.6,-14.747 m 1.6,28.193 7.23,-2.458" />
        <path
           inkscape:connector-curvature="0"
           id="path32"
           d="m 47.525,38.944 7.373,-11.422 m -7.373,11.422 5.205,7.012 m -5.205,-7.012 -1.6,14.168 m -7.508,-5.492 7.518,5.494" />
        <path
           inkscape:connector-curvature="0"
           id="path34"
           d="M 38.417,47.62 52.73,45.957 M 38.417,47.62 36.693,56.5 M 38.417,47.62 26.85,56.5 m -1.735,-8.88 1.735,8.9" />
        <path
           inkscape:connector-curvature="0"
           id="path36"
           d="m 25.116,47.62 11.577,8.88 m -11.567,-8.88 -7.6,5.494 m 7.6,-5.494 -14.333,-1.592 m 5.214,-7.373 -5.214,7.373" />
        <path
           inkscape:connector-curvature="0"
           id="path38"
           d="m 16.007,38.655 1.518,14.458 m -1.518,-14.458 -7.3,-2.24 m 7.3,-10.917 -7.3,10.916" />
        <path
           inkscape:connector-curvature="0"
           id="path40"
           d="M 16.007,38.655 8.777,27.523 M 17.525,10.753 16.007,25.5" />
        <path
           inkscape:connector-curvature="0"
           id="path42"
           d="M 10.793,17.908 25.106,16.173" />
      </g>
    </g>
    <g
       id="g84"
       stroke-width=".101"
       stroke="#24405d">
      <path
         inkscape:connector-curvature="0"
         id="path48"
         fill="none"
         d="M 17.525,10.752 11.96,8.15 M 17.526,10.752 17.094,4.68 M 26.852,7.354 17.093,4.68" />
      <path
         inkscape:connector-curvature="0"
         id="path50"
         fill="none"
         d="M 26.85,7.354 22.657,2.222 M 26.85,7.354 28.585,1.2 m -11.06,9.552 5.132,-8.53 M 36.61,7.354 28.585,1.2" />
      <path
         inkscape:connector-curvature="0"
         id="path52"
         fill="none"
         d="M 36.61,7.354 34.793,0.993 m -7.952,6.36 7.952,-6.36 m 1.816,6.36 4.194,-5.133 m 5.133,8.53 -5.143,-8.528" />
      <path
         inkscape:connector-curvature="0"
         id="path54"
         fill="none"
         d="M 45.935,10.752 46.441,4.68 M 36.61,7.354 46.44,4.679 m -0.504,6.073 5.7,-2.892 m -5.7,2.892 9.903,1.518" />
      <path
         inkscape:connector-curvature="0"
         id="path56"
         fill="none"
         d="M 52.73,17.908 55.838,12.27 M 52.73,17.908 51.645,7.86 m 1.085,10.048 6.506,-0.506 m -6.506,0.506 8.9,5.06" />
      <path
         inkscape:connector-curvature="0"
         id="path58"
         fill="none"
         d="m 54.898,27.522 4.337,-10.12 m -4.337,10.12 6.723,-4.554 m -6.723,4.554 7.518,1.518 m -7.663,7.446 7.663,-7.446" />
      <path
         inkscape:connector-curvature="0"
         id="path60"
         fill="none"
         d="m 54.753,36.486 7.88,-1.446 m -7.735,-7.518 7.735,7.518 m -7.88,1.446 6.723,4.482 m -8.746,4.988 8.747,-4.988" />
      <path
         inkscape:connector-curvature="0"
         id="path62"
         fill="none"
         d="m 52.73,45.956 6.434,0.65 m -4.4,-10.12 4.4,10.12 m -6.424,-0.65 3.036,5.7 m -3.036,-5.7 -1.147,9.976" />
      <path
         inkscape:connector-curvature="0"
         id="path64"
         fill="none"
         d="m 51.573,55.932 -5.638,-2.82 m 0,0 0.434,6.3 m -0.434,-6.3 9.83,-1.446 m -9.83,1.446 -5.142,8.675" />
      <path
         inkscape:connector-curvature="0"
         id="path66"
         fill="none"
         d="m 36.693,56.5 4.1,5.277 m -4.1,-5.277 9.687,2.892 m -9.687,-2.892 -1.9,6.506 m 1.9,-6.506 -8.096,6.506" />
      <path
         inkscape:connector-curvature="0"
         id="path68"
         fill="none"
         d="m 26.85,56.5 1.735,6.506 M 26.85,56.5 34.792,63.006 M 26.85,56.5 22.73,61.777 m -5.206,-8.665 5.205,8.675" />
      <path
         inkscape:connector-curvature="0"
         id="path70"
         fill="none"
         d="m 26.85,56.5 -9.83,3.036 m 0.504,-6.424 -0.506,6.434 m 0.506,-6.434 -5.638,3.108 m -1.094,-10.192 1.084,10.193" />
      <path
         inkscape:connector-curvature="0"
         id="path72"
         fill="none"
         d="M 17.525,53.112 7.623,51.74 m 3.17,-5.712 -3.18,5.7 m 3.18,-5.7 -6.506,0.65 M 10.793,46.028 1.84,41.04 M 8.707,36.414 1.84,41.04 M 8.707,36.414 0.9,35.04" />
      <path
         inkscape:connector-curvature="0"
         id="path74"
         fill="none"
         d="m 8.706,36.414 -4.4,10.265 M 8.778,27.522 0.898,35.04" />
      <path
         inkscape:connector-curvature="0"
         id="path76"
         fill="none"
         d="M 8.706,36.414 0.9,29.04 M 8.78,27.522 2.056,23.04" />
      <path
         inkscape:connector-curvature="0"
         id="path78"
         fill="none"
         d="M 8.778,27.522 0.898,29.04 M 8.778,27.522 4.296,17.402" />
      <path
         inkscape:connector-curvature="0"
         id="path80"
         fill="none"
         d="M 10.793,17.908 4.287,17.402 m 6.506,0.506 -8.737,5.132 m 8.737,-5.132 -3.1,-5.348 m 3.1,5.348 1.157,-9.76" />
      <path
         inkscape:connector-curvature="0"
         id="path82"
         fill="none"
         d="M 17.525,10.752 7.693,12.56" />
    </g>
    <g
       id="g158"
       fill-rule="nonzero"
       stroke="none">
      <path
         inkscape:connector-curvature="0"
         id="path86"
         fill="#256ea5"
         d="m 19.655,35.835 0.053,-7.6 7.605,0.053 -0.053,7.6 z m 8.228,-8.372 0.053,-7.6 7.605,0.053 -0.053,7.6 z m -0.002,16.67 0.053,-7.6 7.605,0.053 -0.053,7.6 z m 8.3,-8.37 0.053,-7.6 7.605,0.053 -0.053,7.6 z" />
      <path
         inkscape:connector-curvature="0"
         id="path88"
         fill="#3378bc"
         d="m 35.743,18.744 0.037,-5.277 5.3,0.037 -0.037,5.277 z m -13.25,-0.001 0.037,-5.277 5.3,0.037 -0.037,5.277 z m -9.172,9.4 0.037,-5.277 5.3,0.037 -0.037,5.277 z m -0.006,13.257 0.055,-5.277 5.298,0.055 -0.055,5.277 z m 31.598,-0.1 0.037,-5.277 5.3,0.037 -0.037,5.277 z m 0.107,-13.12 0.055,-5.277 5.298,0.055 -0.055,5.277 z" />
      <path
         inkscape:connector-curvature="0"
         id="path90"
         fill="#169bd6"
         d="m 9.026,19.63 0.024,-3.47 3.463,0.024 -0.024,3.47 z m 6.77,-7.062 0.024,-3.47 3.463,0.024 -0.024,3.47 z m 9.32,-3.493 0.024,-3.47 3.463,0.024 -0.024,3.47 z M 6.987,29.24 l 0.024,-3.47 3.44,0.024 -0.024,3.47 z m 43.993,-13.032 3.47,-0.024 0.024,3.463 -3.47,0.024 z m -6.773,-7.18 3.47,-0.024 0.024,3.463 -3.47,0.024 z m -9.35,-3.406 3.47,-0.024 0.024,3.463 -3.47,0.024 z m 18.14,20.186 3.47,-0.024 0.024,3.463 -3.47,0.024 z" />
      <path
         inkscape:connector-curvature="0"
         id="path92"
         fill="#3378bc"
         d="m 22.42,50.4 0.037,-5.277 5.3,0.037 -0.037,5.277 z m 13.25,0 0.037,-5.277 5.3,0.037 -0.037,5.277 z" />
      <path
         inkscape:connector-curvature="0"
         id="path94"
         fill="#169bd6"
         d="m 50.957,47.73 0.024,-3.47 3.463,0.024 -0.024,3.47 z m -6.698,7.134 0.024,-3.47 3.463,0.024 -0.024,3.47 z m -9.32,3.42 0.024,-3.47 3.463,0.024 -0.024,3.47 z m 18.056,-20.164 0.024,-3.47 3.463,0.024 -0.024,3.47 z m -43.962,6.14 3.47,-0.024 0.024,3.463 -3.47,0.024 z m 6.772,7.108 3.47,-0.024 0.024,3.463 -3.47,0.024 z m 9.276,3.405 3.47,-0.024 0.024,3.463 -3.47,0.024 z M 7.013,34.66 l 3.47,-0.024 0.024,3.463 -3.47,0.024 z" />
      <g
         id="g156"
         fill="#00a8da">
        <use
           height="100%"
           width="100%"
           y="0"
           x="0"
           id="use96"
           xlink:href="#C" />
        <use
           height="100%"
           width="100%"
           id="use98"
           y="5.6680002"
           x="2.473"
           xlink:href="#C" />
        <use
           height="100%"
           width="100%"
           id="use100"
           y="-5.0240002"
           x="-3.3469999"
           xlink:href="#C" />
        <use
           height="100%"
           width="100%"
           id="use102"
           y="-9.3190002"
           x="-47.243999"
           xlink:href="#C" />
        <path
           inkscape:connector-curvature="0"
           id="path104"
           d="M 0,29.977 0.013,28.097 1.929,28.11 1.916,30 Z" />
        <use
           height="100%"
           width="100%"
           id="use106"
           y="-9.3179998"
           x="-7.5700002"
           xlink:href="#C" />
        <use
           height="100%"
           width="100%"
           id="use108"
           y="5.6760001"
           x="-57.144001"
           xlink:href="#C" />
        <use
           height="100%"
           width="100%"
           id="use110"
           y="-15.132"
           x="-36.472"
           xlink:href="#C" />
        <use
           height="100%"
           width="100%"
           id="use112"
           y="-0.0020000001"
           x="-54.817001"
           xlink:href="#C" />
        <use
           height="100%"
           width="100%"
           id="use114"
           y="-5.0960002"
           x="-51.394001"
           xlink:href="#C" />
        <path
           inkscape:connector-curvature="0"
           id="path116"
           d="m 16.123,3.73 1.88,-0.013 0.013,1.916 -1.88,0.013 z m 11.612,-3.696 1.88,-0.013 0.013,1.916 -1.88,0.013 z" />
        <use
           height="100%"
           width="100%"
           id="use118"
           y="-12.667"
           x="-12.667"
           xlink:href="#C" />
        <use
           height="100%"
           width="100%"
           id="use120"
           y="11.574"
           x="3.4230001"
           xlink:href="#C" />
        <path
           inkscape:connector-curvature="0"
           id="path122"
           d="M 33.85,1.88 33.863,0 l 1.916,0.013 -0.013,1.88 z" />
        <use
           height="100%"
           width="100%"
           id="use124"
           y="-15.215"
           x="-18.417"
           xlink:href="#C" />
        <use
           height="100%"
           width="100%"
           id="use126"
           y="38.581001"
           x="-7.572"
           xlink:href="#C" />
        <use
           height="100%"
           width="100%"
           id="use128"
           y="17.615999"
           x="3.4230001"
           xlink:href="#C" />
        <use
           height="100%"
           width="100%"
           id="use130"
           y="38.580002"
           x="-47.247002"
           xlink:href="#C" />
        <use
           height="100%"
           width="100%"
           id="use132"
           y="23.667999"
           x="2.473"
           xlink:href="#C" />
        <use
           height="100%"
           width="100%"
           id="use134"
           y="44.467999"
           x="-18.419001"
           xlink:href="#C" />
        <use
           height="100%"
           width="100%"
           id="use136"
           y="29.336"
           x="-0.001"
           xlink:href="#C" />
        <use
           height="100%"
           width="100%"
           id="use138"
           y="34.431999"
           x="-3.349"
           xlink:href="#C" />
        <path
           inkscape:connector-curvature="0"
           id="path140"
           d="m 45.493,58.534 1.88,-0.013 0.013,1.916 -1.88,0.013 z m -11.542,3.55 1.88,-0.013 0.013,1.916 -1.88,0.013 z" />
        <use
           height="100%"
           width="100%"
           id="use142"
           y="42.147999"
           x="-42.077"
           xlink:href="#C" />
        <use
           height="100%"
           width="100%"
           id="use144"
           y="29.261999"
           x="-54.889"
           xlink:href="#C" />
        <use
           height="100%"
           width="100%"
           id="use146"
           y="23.667999"
           x="-57.146999"
           xlink:href="#C" />
        <use
           height="100%"
           width="100%"
           id="use148"
           y="34.43"
           x="-51.469002"
           xlink:href="#C" />
        <use
           height="100%"
           width="100%"
           id="use150"
           y="17.615"
           x="-58.237"
           xlink:href="#C" />
        <use
           height="100%"
           width="100%"
           id="use152"
           y="45.641998"
           x="-30.43"
           xlink:href="#C" />
        <use
           height="100%"
           width="100%"
           id="use154"
           y="44.403999"
           x="-36.543999"
           xlink:href="#C" />
      </g>
    </g>
  </symbol>
  <defs
     id="defs164">
    <style
       id="style161"
       type="text/css" />
    <path
       inkscape:connector-curvature="0"
       d="m 58.237,18.332 0.013,-1.88 1.916,0.013 -0.013,1.88 z"
       id="C" />
  </defs>
</svg>
