<?xml version="1.0" encoding="UTF-8" standalone="no"?>
<svg
   xmlns:dc="http://purl.org/dc/elements/1.1/"
   xmlns:cc="http://creativecommons.org/ns#"
   xmlns:rdf="http://www.w3.org/1999/02/22-rdf-syntax-ns#"
   xmlns:svg="http://www.w3.org/2000/svg"
   xmlns="http://www.w3.org/2000/svg"
   xmlns:sodipodi="http://sodipodi.sourceforge.net/DTD/sodipodi-0.dtd"
   xmlns:inkscape="http://www.inkscape.org/namespaces/inkscape"
   inkscape:version="1.0beta1 (32d4812, 2019-09-19)"
   sodipodi:docname="heroku.svg"
   id="svg14"
   preserveAspectRatio="xMidYMid"
   version="1.1"
   viewBox="0 0 912.85712 1014.2842"
   height="1014.2842"
   width="912.85712">
  <metadata
     id="metadata20">
    <rdf:RDF>
      <cc:Work
         rdf:about="">
        <dc:format>image/svg+xml</dc:format>
        <dc:type
           rdf:resource="http://purl.org/dc/dcmitype/StillImage" />
      </cc:Work>
    </rdf:RDF>
  </metadata>
  <defs
     id="defs18" />
  <sodipodi:namedview
     inkscape:current-layer="svg14"
     inkscape:window-maximized="0"
     inkscape:window-y="23"
     inkscape:window-x="0"
     inkscape:cy="560"
     inkscape:cx="400"
     inkscape:zoom="0.35"
     showgrid="false"
     id="namedview16"
     inkscape:window-height="1209"
     inkscape:window-width="1600"
     inkscape:pageshadow="2"
     inkscape:pageopacity="0"
     guidetolerance="10"
     gridtolerance="10"
     objecttolerance="10"
     borderopacity="1"
     inkscape:document-rotation="0"
     bordercolor="#666666"
     pagecolor="#ffffff" />
  <g
     transform="scale(3.5658482)"
     id="g12">
    <path
       inkscape:connector-curvature="0"
       id="path10"
       fill="#430098"
       d="m 230.4,0 c 13.99552,0 25.37047,11.23151 25.59657,25.1766 L 256,25.6 v 233.24444 c 0,13.99552 -11.235,25.37048 -25.1767,25.59657 l -0.4233,0.003 H 25.6 c -13.99552,0 -25.3704704,-11.23499 -25.59656986,-25.1767 L 0,258.84444 V 25.6 C 0,11.60096 11.234995,0.2294592 25.176704,0.00342909 L 25.6,0 Z m 0,14.222222 H 25.6 c -6.174,0 -11.217937,4.947469 -11.374053,11.084647 L 14.222222,25.6 v 233.24444 c 0,6.174 4.947469,11.21794 11.084647,11.37406 L 25.6,270.2225 h 204.8 c 6.1775,0 11.21805,-4.94747 11.37406,-11.08464 l 0.004,-0.29314 V 25.6 c 0,-6.272 -5.10222,-11.377778 -11.37778,-11.377778 z M 64,184.88889 96,213.33333 64,241.77778 Z M 92.444444,42.666667 v 80.750223 c 14.200886,-4.62222 34.051556,-9.63911 53.333336,-9.63911 17.58222,0 28.10666,6.912 33.83822,12.71111 12.1088,12.2496 12.39716,27.82021 12.38101,29.89678 l -5.7e-4,0.0588 0.004,85.33334 H 163.556 v -84.94222 c -0.13867,-6.63823 -3.33867,-14.61334 -17.77778,-14.61334 -28.63168,0 -60.713314,14.25632 -61.666029,14.68289 l -0.01931,0.009 L 64,166.016 V 42.666667 Z m 99.555556,0 c -1.92,16.156444 -8.46933,31.644444 -21.33333,46.222222 v 0 h -28.44445 c 11.17867,-14.666667 18.19734,-30.101333 21.33334,-46.222222 v 0 z" />
  </g>
</svg>
