<svg fill="none" height="40" viewBox="0 0 30 40" width="30" xmlns="http://www.w3.org/2000/svg" xmlns:xlink="http://www.w3.org/1999/xlink"><clipPath id="a"><path d="m0 0h30v40h-30z"/></clipPath><g clip-path="url(#a)" fill="#414150"><path d="m25 37.5h-20c-1.38281 0-2.5-1.1172-2.5-2.5v-30c0-1.38281 1.11719-2.5 2.5-2.5h10v8.75c0 2.0703 1.6797 3.75 3.75 3.75h8.75v20c0 1.3828-1.1172 2.5-2.5 2.5zm-6.25-25c-.6875 0-1.25-.5625-1.25-1.25v-8.71094c.2188.05469.4219.16406.5781.32813l9.0547 9.05471c.1641.164.2734.3593.3281.5781zm-13.75-12.5c-2.75781 0-5 2.24219-5 5v30c0 2.7578 2.24219 5 5 5h20c2.7578 0 5-2.2422 5-5v-22.1953c0-.9922-.3984-1.9453-1.1016-2.6485l-9.0468-9.05464c-.7032-.703122-1.6563-1.10156-2.6485-1.10156z"/><path d="m9.495 34-1.081-16.054h2.599l.506 9.246.207 3.818h.207l1.61-9.361h2.806l1.61 9.361h.207l.207-3.818.506-9.246h2.507l-1.081 16.054h-3.887l-1.426-9.085h-.184l-1.426 9.085z"/></g></svg>