<svg width="30" height="40" viewBox="0 0 30 40" fill="none" xmlns="http://www.w3.org/2000/svg">
<g clip-path="url(#clip0_459_140701)">
<path d="M25 37.5H5C3.61719 37.5 2.5 36.3828 2.5 35V5C2.5 3.61719 3.61719 2.5 5 2.5H15V11.25C15 13.3203 16.6797 15 18.75 15H27.5V35C27.5 36.3828 26.3828 37.5 25 37.5ZM18.75 12.5C18.0625 12.5 17.5 11.9375 17.5 11.25V2.53906C17.7188 2.59375 17.9219 2.70312 18.0781 2.86719L27.1328 11.9219C27.2969 12.0859 27.4062 12.2812 27.4609 12.5H18.75ZM5 0C2.24219 0 0 2.24219 0 5V35C0 37.7578 2.24219 40 5 40H25C27.7578 40 30 37.7578 30 35V12.8047C30 11.8125 29.6016 10.8594 28.8984 10.1562L19.8516 1.10156C19.1484 0.398438 18.1953 0 17.2031 0H5Z" fill="#414150"/>
<path d="M14.9 34.276C13.8573 34.276 12.9527 34.092 12.186 33.724C11.4193 33.3407 10.783 32.7963 10.277 32.091C9.78633 31.3857 9.41833 30.5193 9.173 29.492C8.943 28.4647 8.828 27.2917 8.828 25.973C8.828 24.6697 8.943 23.5043 9.173 22.477C9.41833 21.4343 9.78633 20.5603 10.277 19.855C10.783 19.1497 11.4193 18.613 12.186 18.245C12.9527 17.8617 13.8573 17.67 14.9 17.67C16.9853 17.67 18.5187 18.3983 19.5 19.855C20.4813 21.3117 20.972 23.351 20.972 25.973C20.972 28.595 20.4813 30.6343 19.5 32.091C18.5187 33.5477 16.9853 34.276 14.9 34.276ZM14.9 31.815C15.4367 31.815 15.889 31.7153 16.257 31.516C16.625 31.3013 16.9163 31.0023 17.131 30.619C17.361 30.2357 17.522 29.768 17.614 29.216C17.7213 28.6487 17.775 28.02 17.775 27.33V24.593C17.775 23.213 17.5603 22.1243 17.131 21.327C16.717 20.5297 15.9733 20.131 14.9 20.131C13.8267 20.131 13.0753 20.5297 12.646 21.327C12.232 22.1243 12.025 23.213 12.025 24.593V27.353C12.025 28.733 12.232 29.8217 12.646 30.619C13.0753 31.4163 13.8267 31.815 14.9 31.815Z" fill="#414150"/>
</g>
<defs>
<clipPath id="clip0_459_140701">
<rect width="30" height="40" fill="white"/>
</clipPath>
</defs>
</svg>
