<svg width="30" height="40" viewBox="0 0 30 40" fill="none" xmlns="http://www.w3.org/2000/svg">
<g clip-path="url(#clip0_459_140698)">
<path d="M25 37.5H5C3.61719 37.5 2.5 36.3828 2.5 35V5C2.5 3.61719 3.61719 2.5 5 2.5H15V11.25C15 13.3203 16.6797 15 18.75 15H27.5V35C27.5 36.3828 26.3828 37.5 25 37.5ZM18.75 12.5C18.0625 12.5 17.5 11.9375 17.5 11.25V2.53906C17.7188 2.59375 17.9219 2.70312 18.0781 2.86719L27.1328 11.9219C27.2969 12.0859 27.4062 12.2812 27.4609 12.5H18.75ZM5 0C2.24219 0 0 2.24219 0 5V35C0 37.7578 2.24219 40 5 40H25C27.7578 40 30 37.7578 30 35V12.8047C30 11.8125 29.6016 10.8594 28.8984 10.1562L19.8516 1.10156C19.1484 0.398438 18.1953 0 17.2031 0H5Z" fill="#414150"/>
<path d="M9.84 34V17.946H15.935C17.499 17.946 18.695 18.3907 19.523 19.28C20.351 20.1693 20.765 21.3807 20.765 22.914C20.765 24.4473 20.351 25.6587 19.523 26.548C18.695 27.4373 17.499 27.882 15.935 27.882H12.853V34H9.84ZM12.853 25.421H15.314C16.1267 25.421 16.7093 25.26 17.062 24.938C17.4147 24.6007 17.591 24.0717 17.591 23.351V22.477C17.591 21.7563 17.4147 21.235 17.062 20.913C16.7093 20.5757 16.1267 20.407 15.314 20.407H12.853V25.421Z" fill="#414150"/>
</g>
<defs>
<clipPath id="clip0_459_140698">
<rect width="30" height="40" fill="white"/>
</clipPath>
</defs>
</svg>
