<?xml version="1.0" encoding="UTF-8" standalone="no"?>
<svg
   xmlns:dc="http://purl.org/dc/elements/1.1/"
   xmlns:cc="http://creativecommons.org/ns#"
   xmlns:rdf="http://www.w3.org/1999/02/22-rdf-syntax-ns#"
   xmlns:svg="http://www.w3.org/2000/svg"
   xmlns="http://www.w3.org/2000/svg"
   xmlns:sodipodi="http://sodipodi.sourceforge.net/DTD/sodipodi-0.dtd"
   xmlns:inkscape="http://www.inkscape.org/namespaces/inkscape"
   inkscape:version="1.0beta1 (32d4812, 2019-09-19)"
   height="1000.0001"
   width="1000.0001"
   sodipodi:docname="mailgun.svg"
   xml:space="preserve"
   viewBox="0 0 1000.0001 1000.0001"
   y="0px"
   x="0px"
   id="Layer_1"
   version="1.1"><metadata
   id="metadata71">
  <rdf:RDF>
    <cc:Work
       rdf:about="">
      <dc:format>image/svg+xml</dc:format>
      <dc:type
         rdf:resource="http://purl.org/dc/dcmitype/StillImage" />
    </cc:Work>
  </rdf:RDF>
</metadata>
<defs
   id="defs69" />
<sodipodi:namedview
   inkscape:current-layer="Layer_1"
   inkscape:window-maximized="0"
   inkscape:window-y="23"
   inkscape:window-x="0"
   inkscape:cy="317.61506"
   inkscape:cx="259.61418"
   inkscape:zoom="0.35"
   showgrid="false"
   id="namedview67"
   inkscape:window-height="1209"
   inkscape:window-width="1600"
   inkscape:pageshadow="2"
   inkscape:pageopacity="0"
   guidetolerance="10"
   gridtolerance="10"
   objecttolerance="10"
   borderopacity="1"
   inkscape:document-rotation="0"
   bordercolor="#666666"
   pagecolor="#ffffff" />

<style
   id="style10"
   type="text/css">
	.st0{fill:#C02126;}
	.st1{fill:#646569;}
</style>

<g
   transform="matrix(10.245902,0,0,10.245902,-2602.4591,-2397.5411)"
   id="g64">
	<g
   id="g42">
		
		
		
		
		
		
		
		
		
		
		
		
		
		
		
	</g>

	<g
   id="g62">
		<g
   id="g58">
			
			
			
			
			
			
			
		</g>

		<path
   inkscape:connector-curvature="0"
   id="path60"
   d="m 302.9,264.4 c -10.2,0 -18.5,8.3 -18.5,18.5 0,10.2 8.3,18.5 18.5,18.5 10.2,0 18.5,-8.3 18.5,-18.5 0,-10.2 -8.3,-18.5 -18.5,-18.5 z m -28.8,18.5 c 0,-15.9 12.9,-28.8 28.8,-28.8 15.9,0 28.8,12.9 28.8,28.8 0,1.1 -0.1,2.1 -0.2,3.1 -0.2,2.8 1.8,4.9 4.6,4.9 4.7,0 5.2,-6.1 5.2,-8.1 0,-21.3 -17.2,-38.5 -38.5,-38.5 -21.3,0 -38.5,17.2 -38.5,38.5 0,21.3 17.2,38.5 38.5,38.5 11.3,0 21.4,-4.9 28.5,-12.6 l 7.9,6.6 c -8.9,10 -21.9,16.3 -36.4,16.3 -27,0 -48.8,-21.9 -48.8,-48.8 0,-27 21.9,-48.8 48.8,-48.8 27,0 48.8,21.9 48.8,48.8 0,10.8 -5.2,19.6 -15.5,19.6 -4.6,0 -7.3,-2.1 -8.9,-4.4 -5.1,8.2 -14.1,13.6 -24.5,13.6 -15.7,0.1 -28.6,-12.8 -28.6,-28.7 z m 28.8,-8.5 c 4.7,0 8.5,3.8 8.5,8.4 0,4.7 -3.8,8.5 -8.5,8.5 -4.7,0 -8.5,-3.8 -8.5,-8.5 0.1,-4.6 3.8,-8.4 8.5,-8.4 z"
   class="st0" />

	</g>

</g>

</svg>
