<?xml version="1.0" encoding="UTF-8" standalone="no"?>
<svg
   xmlns:dc="http://purl.org/dc/elements/1.1/"
   xmlns:cc="http://creativecommons.org/ns#"
   xmlns:rdf="http://www.w3.org/1999/02/22-rdf-syntax-ns#"
   xmlns:svg="http://www.w3.org/2000/svg"
   xmlns="http://www.w3.org/2000/svg"
   xmlns:sodipodi="http://sodipodi.sourceforge.net/DTD/sodipodi-0.dtd"
   xmlns:inkscape="http://www.inkscape.org/namespaces/inkscape"
   inkscape:version="1.0beta1 (32d4812, 2019-09-19)"
   sodipodi:docname="mysql.svg"
   id="svg14"
   preserveAspectRatio="xMidYMid"
   version="1.1"
   viewBox="0 0 939.80267 922.53302"
   height="922.53302"
   width="939.80267">
  <metadata
     id="metadata20">
    <rdf:RDF>
      <cc:Work
         rdf:about="">
        <dc:format>image/svg+xml</dc:format>
        <dc:type
           rdf:resource="http://purl.org/dc/dcmitype/StillImage" />
      </cc:Work>
    </rdf:RDF>
  </metadata>
  <defs
     id="defs18" />
  <sodipodi:namedview
     inkscape:current-layer="svg14"
     inkscape:window-maximized="0"
     inkscape:window-y="23"
     inkscape:window-x="0"
     inkscape:cy="560"
     inkscape:cx="399.97552"
     inkscape:zoom="0.35"
     showgrid="false"
     id="namedview16"
     inkscape:window-height="1209"
     inkscape:window-width="1600"
     inkscape:pageshadow="2"
     inkscape:pageopacity="0"
     guidetolerance="10"
     gridtolerance="10"
     objecttolerance="10"
     borderopacity="1"
     inkscape:document-rotation="0"
     bordercolor="#666666"
     pagecolor="#ffffff" />
  <path
     style="stroke-width:3.6739"
     inkscape:connector-curvature="0"
     id="path10"
     fill="#00546B"
     d="m 865.65864,713.51442 c -51.13492,-1.27511 -90.76522,3.84158 -124.00399,17.90047 -9.5878,3.8335 -24.92991,3.83751 -26.20902,15.97961 5.11676,5.11676 5.75431,13.42538 10.22935,20.4548 7.67514,12.77966 21.09243,30.04255 33.2386,38.99278 13.42129,10.22535 26.84658,20.45071 40.90559,29.40093 24.9299,15.34211 53.05558,24.28823 77.34393,39.63027 14.067,8.94207 28.12168,20.45477 42.18468,30.04255 7.03359,5.10862 11.50463,13.42126 20.45487,16.61719 v -1.91673 c -4.4752,-5.75426 -5.75431,-14.06289 -10.22535,-20.45477 -6.38787,-6.39186 -12.78373,-12.14614 -19.1756,-18.53801 -18.53804,-24.92588 -41.54729,-46.65963 -66.47686,-64.55608 -20.45071,-14.06295 -65.19777,-33.23851 -73.50663,-56.88925 0,0 -0.64155,-0.63757 -1.2791,-1.27514 14.06283,-1.27919 30.68006,-6.39182 44.1055,-10.22942 21.73398,-5.75424 41.5473,-4.47508 63.91849,-10.22535 10.22536,-2.55833 20.45487,-5.75426 30.68022,-8.95021 v -5.7502 C 896.34286,712.23921 888.03018,696.90123 875.884,686.03417 843.28711,657.90434 807.49014,630.42413 770.41821,607.41494 750.6009,594.63123 725.03343,586.31851 703.94134,575.45558 696.27437,571.614 683.48647,569.70133 679.01543,563.3094 667.50686,549.24653 661.11499,530.71257 652.8064,514.09117 634.27652,478.93203 616.37188,439.94716 600.39242,402.87514 588.89195,377.94525 581.85847,353.01524 567.79555,330.00646 501.96035,221.34487 430.37045,155.50931 320.42972,90.949113 296.77904,77.527792 268.65736,71.773539 238.61471,64.74411 222.63912,64.102485 206.65538,62.827378 190.6756,62.185753 180.45025,57.710593 170.22083,45.568537 161.27057,39.814233 124.84431,16.801105 30.878946,-33.05068 4.0323944,32.784804 -13.226459,74.332035 29.599857,115.23735 44.300165,136.33364 c 10.871033,14.70052 24.929891,31.3177 32.600946,47.93915 4.475138,10.85886 5.750232,22.37149 10.22537,33.87605 10.229399,28.1177 19.813129,59.44335 33.238479,85.65272 7.03348,13.42132 14.70048,27.48422 23.6507,39.62618 5.11266,7.02942 14.05885,10.22942 15.97963,21.73396 -8.94614,12.78368 -9.58778,31.95933 -14.70453,47.93911 -23.00907,72.22707 -14.05886,161.71342 18.53804,214.76489 10.22535,15.97562 34.51754,51.13899 67.11469,37.71367 28.76338,-11.50459 22.37149,-47.93911 30.68012,-79.89844 1.92082,-7.6751 0.64162,-12.78368 4.47512,-17.89641 0.003,0.63758 0,1.27918 0,1.27918 8.95021,17.8964 17.89641,35.15537 26.205,53.05148 19.8172,31.3177 54.33096,63.91861 83.09416,85.65278 15.34617,11.50044 27.48825,31.31771 46.66376,38.35116 v -1.92082 h -1.27917 c -3.83755,-5.75426 -9.58778,-8.30862 -14.70047,-12.78368 -11.50456,-11.50456 -24.29234,-25.56751 -33.23849,-38.35116 -26.84257,-35.79701 -50.49737,-75.42317 -71.58958,-116.33257 -10.22535,-19.81313 -19.17556,-41.54728 -27.48419,-61.36035 -3.83755,-7.67508 -3.83755,-19.17558 -10.22941,-23.00905 -9.58778,14.05883 -23.64664,26.205 -30.68012,43.46389 -12.13804,27.48419 -13.42129,61.36033 -17.89641,96.51534 -2.55435,0.64165 -1.27921,0 -2.5584,1.27922 -20.45072,-5.11675 -27.4842,-26.205 -35.15539,-44.1055 -19.17558,-45.3805 -22.3715,-118.24955 -5.75023,-170.6594 4.47512,-13.42535 23.6507,-55.6101 15.97964,-68.39385 -3.8335,-12.14619 -16.62128,-19.17558 -23.6507,-28.76336 -8.30862,-12.14618 -17.25883,-27.48421 -23.00907,-40.9094 -15.3421,-35.7929 -23.01313,-75.42317 -39.63028,-111.22018 C 93.51833,152.94697 80.097043,135.69219 69.230056,120.3541 57.087975,103.09529 43.662593,90.949113 34.074679,70.494274 30.882791,63.464845 26.403624,51.960326 31.516318,44.289238 c 1.279188,-5.112645 3.833488,-7.029411 8.95021,-8.308608 8.308626,-7.033484 31.959328,1.916732 40.267771,5.750249 23.650701,9.583698 43.463881,18.538038 63.281081,31.959325 8.94617,6.391857 18.53395,18.538036 30.03851,21.733966 h 13.42533 c 20.45477,4.47107 43.46389,1.279127 62.63945,7.02943 33.88012,10.86293 64.55609,26.84663 92.04461,44.1055 83.73579,53.0515 152.76297,128.47878 199.42707,218.60263 7.67106,14.69644 10.86293,28.1258 17.89641,43.46389 13.42535,31.32176 30.04255,63.28107 43.46387,93.96124 13.42129,30.03849 26.205,60.72278 45.38051,85.65272 9.59185,13.41726 47.93906,20.4507 65.19767,27.48419 12.78373,5.75026 32.60104,10.86702 44.1055,17.89642 21.72999,13.41722 43.46396,28.76343 63.91866,43.46387 10.22935,7.66703 42.18469,23.65074 44.10551,36.43043 z" />
  <path
     style="stroke-width:3.6739"
     inkscape:connector-curvature="0"
     id="path12"
     fill="#00546B"
     d="m 213.68151,158.05956 c -10.86697,0 -18.53395,1.28325 -26.20501,3.20003 0,-0.003 0,0.64162 0,1.27919 h 1.27921 c 5.11674,10.22535 14.05886,17.25883 20.45071,26.20497 5.11675,10.22535 9.58778,20.4548 14.70453,30.68421 0.63754,-0.64163 1.27512,-1.27919 1.27512,-1.27919 8.9543,-6.39592 13.42534,-16.62128 13.42534,-31.95932 -3.83756,-4.47513 -4.47513,-8.95023 -7.67105,-13.42535 -3.83351,-6.39594 -12.14619,-9.58778 -17.25885,-14.70454 z" />
</svg>
