<?xml version="1.0" encoding="UTF-8" standalone="no"?>
<svg
   xmlns:dc="http://purl.org/dc/elements/1.1/"
   xmlns:cc="http://creativecommons.org/ns#"
   xmlns:rdf="http://www.w3.org/1999/02/22-rdf-syntax-ns#"
   xmlns:svg="http://www.w3.org/2000/svg"
   xmlns="http://www.w3.org/2000/svg"
   xmlns:sodipodi="http://sodipodi.sourceforge.net/DTD/sodipodi-0.dtd"
   xmlns:inkscape="http://www.inkscape.org/namespaces/inkscape"
   inkscape:version="1.0beta1 (32d4812, 2019-09-19)"
   sodipodi:docname="nginx.svg"
   id="svg14"
   version="1.1"
   height="1037.6669"
   width="904.34534"
   viewBox="-35.5 26 452.17267 518.83344">
  <metadata
     id="metadata20">
    <rdf:RDF>
      <cc:Work
         rdf:about="">
        <dc:format>image/svg+xml</dc:format>
        <dc:type
           rdf:resource="http://purl.org/dc/dcmitype/StillImage" />
      </cc:Work>
    </rdf:RDF>
  </metadata>
  <defs
     id="defs18" />
  <sodipodi:namedview
     inkscape:current-layer="svg14"
     inkscape:window-maximized="0"
     inkscape:window-y="23"
     inkscape:window-x="0"
     inkscape:cy="560.00026"
     inkscape:cx="395.88611"
     inkscape:zoom="0.35"
     showgrid="false"
     id="namedview16"
     inkscape:window-height="1209"
     inkscape:window-width="1600"
     inkscape:pageshadow="2"
     inkscape:pageopacity="0"
     guidetolerance="10"
     gridtolerance="10"
     objecttolerance="10"
     borderopacity="1"
     inkscape:document-rotation="0"
     bordercolor="#666666"
     pagecolor="#ffffff" />
  <path
     style="stroke-width:16.2145"
     inkscape:connector-curvature="0"
     id="path10"
     fill="#009438"
     d="M -35.482937,285.80695 V 161.97688 a 11.025855,11.025855 0 0 1 6.24258,-10.55564 L 184.35314,28.061389 c 3.84284,-2.399745 8.15589,-2.88618 11.99873,-0.486435 L 410.90203,151.40503 a 11.512289,11.512289 0 0 1 5.75614,10.55563 v 247.18993 a 11.512289,11.512289 0 0 1 -5.75614,10.55564 L 226.5919,526.23544 a 912.38947,912.38947 0 0 1 -29.28338,16.79821 c -4.31305,2.39975 -8.64232,2.39975 -12.97159,0 L -29.726792,419.6738 c -3.842834,-2.39975 -5.756145,-5.28593 -5.756145,-10.08542 V 285.75831 Z" />
  <path
     style="stroke-width:16.2145"
     inkscape:connector-curvature="0"
     id="path12"
     fill="#fefefe"
     d="m 115.70098,239.70915 v 144.30898 c 0,16.31178 -12.97159,30.71025 -30.24002,30.24003 -10.53942,-0.48644 -18.711524,-4.79949 -24.321738,-13.91204 -2.88618,-4.31305 -3.842835,-9.11254 -3.842835,-14.39846 V 185.48789 c 0,-13.45803 8.155889,-23.02458 18.711524,-27.35385 10.555634,-4.32927 21.111268,-3.3564 31.683119,0 10.08541,2.88618 17.75486,9.11255 24.32173,16.79822 L 259.68567,328.0457 c 0.48644,0.48644 0.97287,1.45931 1.91331,2.39975 V 184.51502 c 0,-15.35512 10.53942,-27.35385 25.45676,-28.79694 18.71152,-2.39974 31.19668,11.02586 33.10999,24.97032 V 384.991 c 0,11.35014 -5.28593,19.68439 -14.8849,24.97032 -7.19924,3.84283 -14.88491,4.79949 -23.02458,4.31305 a 52.372809,52.372809 0 0 1 -31.68312,-13.44181 c -4.79949,-4.31306 -8.15589,-9.59898 -12.48516,-14.39847 L 116.64142,240.9901 c 0,-0.48644 -0.48643,-0.97287 -0.97286,-1.45931 z" />
</svg>
