<svg xmlns="http://www.w3.org/2000/svg" width="48" height="48" fill="none"><g clip-path="url(#clip0)"><path d="M24.157 23.955c6.614 0 11.977-5.363 11.977-11.978C36.134 5.362 30.77 0 24.157 0c-6.615 0-11.978 5.362-11.978 11.977s5.363 11.978 11.978 11.978z" fill="url(#paint0_linear)"/><path d="M23.136 47.708A57.787 57.787 0 014.17 27.883a1.339 1.339 0 01.584-1.86l9.07-4.451a1.349 1.349 0 011.752.537 44.846 44.846 0 0019.47 17.623 58.066 58.066 0 01-9.869 7.976c-.624.39-1.417.39-2.04 0z" fill="url(#paint1_linear)"/><path d="M25.177 47.708a57.74 57.74 0 0018.966-19.826 1.343 1.343 0 00-.577-1.86l-9.077-4.45a1.349 1.349 0 00-1.752.536 44.827 44.827 0 01-19.47 17.624 57.74 57.74 0 009.87 7.976c.623.389 1.416.389 2.04 0z" fill="#2684FF"/></g><defs><linearGradient id="paint0_linear" x1="24.157" y1="3.981" x2="24.157" y2="28.574" gradientUnits="userSpaceOnUse"><stop stop-color="#2684FF"/><stop offset=".82" stop-color="#0052CC"/><stop offset="1" stop-color="#0052CC"/></linearGradient><linearGradient id="paint1_linear" x1="16.785" y1="27.883" x2="25.023" y2="45.123" gradientUnits="userSpaceOnUse"><stop stop-color="#2684FF"/><stop offset=".62" stop-color="#0052CC"/><stop offset="1" stop-color="#0052CC"/></linearGradient><clipPath id="clip0"><path fill="#fff" d="M0 0h48v48H0z"/></clipPath></defs></svg>
