<svg width="48" height="48" fill="none" xmlns="http://www.w3.org/2000/svg"><path d="M5.028 44.413H0V19.175c0-2.591 1.063-4.158 1.953-5.028 1.972-1.935 4.65-1.992 5.087-1.992h7.909c2.824 0 4.447 1.14 5.338 2.1 1.76 1.915 1.779 4.39 1.74 5.048v9.515c0 2.746-1.122 4.371-2.05 5.241-1.915 1.799-4.447 1.838-5.047 1.818H5.028v8.536zm10.095-13.577c.27 0 1.025-.077 1.431-.465.31-.29.465-.812.465-1.575v-9.765c0-.27-.058-.986-.445-1.392-.375-.387-1.083-.465-1.624-.465H7c-1.973 0-1.973 1.488-1.973 1.992v11.662l10.096.008zM42.972 3.587H48v25.258c0 2.591-1.063 4.158-1.953 5.028-1.972 1.935-4.65 1.992-5.086 1.992h-7.91c-2.824 0-4.448-1.14-5.338-2.1-1.76-1.915-1.779-4.39-1.74-5.047v-9.503c0-2.747 1.122-4.371 2.05-5.241 1.915-1.799 4.448-1.838 5.048-1.818h9.901V3.587zM32.877 17.175c-.27 0-1.025.077-1.431.465-.31.29-.465.812-.465 1.575v9.765c0 .27.058.986.445 1.393.375.387 1.083.465 1.624.465H41c1.992-.02 1.992-1.5 1.992-2.012V17.175H32.877z" fill="#25C151"/></svg>
