<?xml version="1.0" encoding="UTF-8" standalone="no"?>
<svg
   xmlns:dc="http://purl.org/dc/elements/1.1/"
   xmlns:cc="http://creativecommons.org/ns#"
   xmlns:rdf="http://www.w3.org/1999/02/22-rdf-syntax-ns#"
   xmlns:svg="http://www.w3.org/2000/svg"
   xmlns="http://www.w3.org/2000/svg"
   xmlns:sodipodi="http://sodipodi.sourceforge.net/DTD/sodipodi-0.dtd"
   xmlns:inkscape="http://www.inkscape.org/namespaces/inkscape"
   inkscape:version="1.0beta1 (32d4812, 2019-09-19)"
   sodipodi:docname="ping.svg"
   id="svg38"
   version="1.1"
   fill="none"
   viewBox="0 0 1000 1000"
   height="1000"
   width="1000">
  <metadata
     id="metadata42">
    <rdf:RDF>
      <cc:Work
         rdf:about="">
        <dc:format>image/svg+xml</dc:format>
        <dc:type
           rdf:resource="http://purl.org/dc/dcmitype/StillImage" />
      </cc:Work>
    </rdf:RDF>
  </metadata>
  <sodipodi:namedview
     inkscape:current-layer="svg38"
     inkscape:window-maximized="0"
     inkscape:window-y="23"
     inkscape:window-x="0"
     inkscape:cy="560"
     inkscape:cx="400"
     inkscape:zoom="0.35"
     showgrid="false"
     id="namedview40"
     inkscape:window-height="1104"
     inkscape:window-width="1600"
     inkscape:pageshadow="2"
     inkscape:pageopacity="0"
     guidetolerance="10"
     gridtolerance="10"
     objecttolerance="10"
     borderopacity="1"
     inkscape:document-rotation="0"
     bordercolor="#666666"
     pagecolor="#ffffff" />
  <path
     inkscape:connector-curvature="0"
     style="fill:url(#paint0_radial);stroke-width:10"
     id="path10"
     fill="url(#paint0_radial)"
     d="M 913.75,0 H 86.2503 L 0,86.2503 V 913.75 L 86.2503,1000 H 913.75 L 1000,913.75 V 86.2503 Z" />
  <g
     transform="scale(10)"
     id="g14"
     filter="url(#filter0_d)">
    <path
       inkscape:connector-curvature="0"
       id="path12"
       fill="white"
       d="M 18.2812,52.6562 V 61 H 13.8906 V 38.25 h 7.7813 c 1.2396,0 2.3593,0.1823 3.3593,0.5469 1,0.3541 1.849,0.8541 2.5469,1.5 0.7084,0.6354 1.25,1.401 1.625,2.2969 0.3854,0.8958 0.5781,1.8906 0.5781,2.9843 0,1.0209 -0.1927,1.9636 -0.5781,2.8281 -0.375,0.8646 -0.9166,1.6146 -1.625,2.25 -0.6979,0.625 -1.5469,1.1146 -2.5469,1.4688 -1,0.3542 -2.1197,0.5312 -3.3593,0.5312 z m 0,-3.5624 h 3.3907 c 0.625,0 1.1666,-0.0938 1.625,-0.2813 0.4583,-0.1875 0.8385,-0.4427 1.1406,-0.7656 0.3125,-0.3229 0.5417,-0.6927 0.6875,-1.1094 0.1562,-0.4271 0.2344,-0.8698 0.2344,-1.3281 0,-0.5313 -0.0782,-1.0261 -0.2344,-1.4844 -0.1458,-0.4583 -0.375,-0.8594 -0.6875,-1.2031 -0.3021,-0.3438 -0.6823,-0.6146 -1.1406,-0.8125 -0.4584,-0.1979 -1,-0.2969 -1.625,-0.2969 h -3.3907 z m 15.8594,-5 h 9.2032 v 13.375 h 4.5781 V 61 H 34.1406 v -3.5312 h 4.8125 v -9.8282 h -4.8125 z m 4.5,-4.3282 c 0,-0.3333 0.0573,-0.6406 0.1719,-0.9218 0.125,-0.2917 0.2969,-0.5365 0.5156,-0.7344 0.2188,-0.2084 0.4792,-0.3698 0.7813,-0.4844 0.3125,-0.1146 0.6562,-0.1719 1.0312,-0.1719 0.7709,0 1.3802,0.2188 1.8282,0.6563 0.4583,0.4271 0.6874,0.9791 0.6874,1.6562 0,0.6771 -0.2291,1.2344 -0.6874,1.6719 -0.448,0.4271 -1.0573,0.6406 -1.8282,0.6406 -0.375,0 -0.7187,-0.0573 -1.0312,-0.1719 -0.3021,-0.1145 -0.5625,-0.2708 -0.7813,-0.4687 -0.2187,-0.2083 -0.3906,-0.4531 -0.5156,-0.7344 -0.1146,-0.2916 -0.1719,-0.6041 -0.1719,-0.9375 z m 17.5,4.3282 0.2656,2.3437 c 0.6042,-0.8437 1.3386,-1.4948 2.2032,-1.9531 0.8646,-0.4688 1.8229,-0.7032 2.875,-0.7032 0.8541,0 1.6354,0.125 2.3437,0.375 0.7084,0.25 1.3177,0.6511 1.8281,1.2032 0.5209,0.5416 0.9219,1.2448 1.2032,2.1094 0.2916,0.8541 0.4375,1.8958 0.4375,3.125 V 61 H 62.9531 V 50.6562 c 0,-0.6666 -0.0781,-1.2135 -0.2343,-1.6406 -0.1459,-0.4375 -0.3594,-0.7812 -0.6407,-1.0312 -0.2812,-0.25 -0.6198,-0.4219 -1.0156,-0.5156 -0.3958,-0.1042 -0.8437,-0.1563 -1.3437,-0.1563 -0.7396,0 -1.3698,0.151 -1.8907,0.4531 -0.5208,0.2917 -0.9427,0.6979 -1.2656,1.2188 V 61 H 52.2031 V 44.0938 Z m 14.8438,8.3281 c 0,-1.2813 0.1562,-2.4531 0.4687,-3.5157 0.3229,-1.0624 0.7813,-1.9739 1.375,-2.7343 0.5938,-0.7604 1.3125,-1.349 2.1563,-1.7657 0.8437,-0.4166 1.7968,-0.625 2.8594,-0.625 0.9895,0 1.8385,0.1667 2.5468,0.5 0.7084,0.3334 1.3125,0.8073 1.8125,1.4219 l 0.1719,-1.6093 h 3.9531 v 16.3593 c 0,1.1459 -0.1979,2.1667 -0.5937,3.0625 -0.3854,0.8959 -0.9323,1.6511 -1.6406,2.2656 -0.698,0.6146 -1.5417,1.0782 -2.5313,1.3907 -0.9792,0.3229 -2.0625,0.4843 -3.25,0.4843 -0.5104,0 -1.0573,-0.052 -1.6406,-0.1562 -0.5834,-0.1042 -1.1615,-0.2656 -1.7344,-0.4844 -0.5729,-0.2187 -1.1146,-0.5 -1.625,-0.8437 C 72.8021,65.8385 72.3646,65.4375 72,64.9688 l 1.9531,-2.6407 c 0.5521,0.625 1.1771,1.099 1.875,1.4219 0.6979,0.3333 1.4531,0.5 2.2657,0.5 1.2187,0 2.1666,-0.3281 2.8437,-0.9844 0.6875,-0.6458 1.0313,-1.5677 1.0313,-2.7656 v -0.9688 c -0.5105,0.5626 -1.1094,1 -1.7969,1.3126 -0.6771,0.3124 -1.4636,0.4687 -2.3594,0.4687 -1.0521,0 -2,-0.2135 -2.8437,-0.6406 C 74.1354,60.2344 73.4219,59.6354 72.8281,58.875 72.2344,58.1146 71.776,57.2135 71.4531,56.1719 71.1406,55.1198 70.9844,53.9792 70.9844,52.75 Z m 4.3594,0.3281 c 0,0.7083 0.0677,1.3698 0.2031,1.9844 0.1458,0.6041 0.3646,1.1354 0.6562,1.5937 0.2917,0.4479 0.6615,0.8021 1.1094,1.0625 0.4479,0.2604 0.9792,0.3906 1.5937,0.3906 0.7605,0 1.3855,-0.1458 1.875,-0.4374 0.5,-0.2917 0.8959,-0.698 1.1876,-1.2188 v -7.1562 c -0.2917,-0.5313 -0.6876,-0.9376 -1.1876,-1.2188 -0.4895,-0.2917 -1.1041,-0.4375 -1.8437,-0.4375 -0.6146,0 -1.1458,0.1354 -1.5937,0.4063 -0.448,0.2604 -0.823,0.625 -1.125,1.0937 -0.2917,0.4583 -0.5105,1 -0.6563,1.625 -0.1458,0.6146 -0.2187,1.276 -0.2187,1.9844 z" />
  </g>
  <defs
     id="defs36">
    <filter
       color-interpolation-filters="sRGB"
       filterUnits="userSpaceOnUse"
       height="38.203098"
       width="80.4375"
       y="35.453098"
       x="9.8906202"
       id="filter0_d">
      <feFlood
         id="feFlood16"
         result="BackgroundImageFix"
         flood-opacity="0" />
      <feColorMatrix
         id="feColorMatrix18"
         values="0 0 0 0 0 0 0 0 0 0 0 0 0 0 0 0 0 0 127 0"
         type="matrix"
         in="SourceAlpha" />
      <feOffset
         id="feOffset20"
         dy="2" />
      <feGaussianBlur
         id="feGaussianBlur22"
         stdDeviation="2" />
      <feColorMatrix
         id="feColorMatrix24"
         values="0 0 0 0 0 0 0 0 0 0 0 0 0 0 0 0 0 0 0.15 0"
         type="matrix" />
      <feBlend
         id="feBlend26"
         result="effect1_dropShadow"
         in2="BackgroundImageFix"
         mode="normal" />
      <feBlend
         id="feBlend28"
         result="shape"
         in2="effect1_dropShadow"
         in="SourceGraphic"
         mode="normal" />
    </filter>
    <radialGradient
       gradientTransform="matrix(-900.0011,820.00102,-1140.0839,-1251.3115,1000,80)"
       gradientUnits="userSpaceOnUse"
       r="1"
       cy="0"
       cx="0"
       id="paint0_radial">
      <stop
         id="stop31"
         stop-color="#ACBAC7" />
      <stop
         id="stop33"
         stop-color="#677A8F"
         offset="1" />
    </radialGradient>
  </defs>
</svg>
