<svg width="1000" height="500" viewBox="0 0 1000 500" fill="none" xmlns="http://www.w3.org/2000/svg">
<path d="M617.569 360.979C620.677 335.067 619.746 331.267 639.031 335.464L643.927 335.895C658.756 336.57 678.154 333.508 689.55 328.209C714.082 316.817 728.628 297.796 704.439 302.794C649.261 314.186 645.467 295.488 645.467 295.488C703.732 208.967 728.089 99.1379 707.065 72.2539C649.723 -1.07581 550.464 33.6002 548.804 34.5005L548.275 34.5982C537.372 32.3342 525.171 30.9816 511.465 30.7598C486.495 30.3492 467.548 37.3112 453.175 48.2213C453.175 48.2213 276.104 -24.7889 284.342 140.039C286.094 175.103 334.561 405.36 392.368 335.811C413.495 310.38 433.914 288.877 433.914 288.877C444.052 295.618 456.191 299.057 468.922 297.822L469.906 296.982C469.598 300.139 469.734 303.228 470.3 306.884C455.411 323.536 459.786 326.46 430.014 332.593C399.892 338.806 417.589 349.868 429.139 352.759C443.146 356.265 475.55 361.231 497.45 330.554L496.578 334.055C502.419 338.732 502.025 367.672 502.853 388.349C503.682 409.028 505.066 428.324 509.277 439.701C513.489 451.075 518.458 480.379 557.586 471.987C590.288 464.973 615.291 454.879 617.569 360.978" fill="black"/>
<path d="M617.569 360.979C620.677 335.067 619.746 331.267 639.031 335.464L643.927 335.895C658.756 336.57 678.154 333.508 689.55 328.209C714.082 316.817 728.628 297.796 704.439 302.794C649.261 314.186 645.467 295.488 645.467 295.488C703.732 208.967 728.089 99.1379 707.065 72.2539C649.723 -1.07581 550.464 33.6002 548.804 34.5005L548.275 34.5982C537.372 32.3342 525.171 30.9816 511.465 30.7598C486.495 30.3492 467.548 37.3112 453.175 48.2213C453.175 48.2213 276.104 -24.7889 284.342 140.039C286.094 175.103 334.561 405.36 392.368 335.811C413.495 310.38 433.914 288.877 433.914 288.877C444.052 295.618 456.191 299.057 468.922 297.822L469.906 296.982C469.598 300.139 469.734 303.228 470.3 306.884C455.411 323.536 459.786 326.46 430.014 332.593C399.892 338.806 417.589 349.868 429.139 352.759C443.146 356.265 475.55 361.231 497.45 330.554L496.578 334.055C502.419 338.732 502.025 367.672 502.853 388.349C503.682 409.028 505.066 428.324 509.277 439.701C513.489 451.075 518.458 480.379 557.586 471.987C590.288 464.973 615.291 454.879 617.569 360.978" stroke="black" stroke-width="37.3953"/>
<path d="M704.444 302.792C649.261 314.184 645.467 295.485 645.467 295.485C703.732 208.959 728.089 99.1279 707.069 72.2472C649.727 -1.07814 550.464 33.6 548.808 34.5003L548.275 34.5959C537.372 32.3308 525.171 30.9815 511.458 30.7575C486.488 30.348 467.548 37.3088 453.175 48.2168C453.175 48.2168 276.101 -24.7902 284.336 140.037C286.088 175.103 334.555 405.36 392.363 335.811C413.492 310.38 433.907 288.877 433.907 288.877C444.047 295.618 456.186 299.057 468.911 297.822L469.9 296.982C469.593 300.139 469.733 303.228 470.296 306.884C455.404 323.536 459.78 326.46 430.009 332.593C399.886 338.806 417.582 349.868 429.136 352.759C443.143 356.265 475.549 361.23 497.444 330.554L496.571 334.054C502.406 338.732 506.504 364.479 505.817 387.819C505.13 411.16 504.672 427.184 509.269 439.701C513.867 452.217 518.449 480.379 557.585 471.987C590.287 464.973 607.233 446.798 609.591 416.481C611.264 394.927 615.049 398.113 615.289 378.843L618.325 369.721C621.827 340.504 618.881 331.078 639.029 335.462L643.925 335.892C658.753 336.568 678.161 333.506 689.552 328.207C714.079 316.815 728.626 297.794 704.442 302.792H704.444Z" fill="#336791"/>
<path d="M499.814 319.54C498.295 373.905 500.196 428.649 505.511 441.954C510.829 455.259 522.211 481.137 561.35 472.745C594.049 465.73 605.946 452.153 611.109 422.185C614.911 400.136 622.242 338.902 623.182 326.356" stroke="white" stroke-width="12.4651" stroke-linecap="round" stroke-linejoin="round"/>
<path d="M452.902 47.0025C452.902 47.0025 275.707 -25.4786 283.945 139.348C285.697 174.414 334.166 404.679 391.974 335.127C413.098 309.692 432.203 289.744 432.203 289.744" stroke="white" stroke-width="12.4651" stroke-linecap="round" stroke-linejoin="round"/>
<path d="M548.614 33.7736C542.48 35.6983 647.181 -4.53213 706.683 71.5611C727.701 98.4429 703.345 208.274 645.081 294.802" stroke="white" stroke-width="12.4651" stroke-linecap="round" stroke-linejoin="round"/>
<path d="M645.08 294.802C645.08 294.802 648.877 313.507 704.061 302.107C728.24 297.109 713.689 316.132 689.167 327.53C669.041 336.877 623.921 339.273 623.184 326.356C621.287 293.028 646.932 303.153 645.081 294.802C643.408 287.282 631.94 279.9 624.354 261.493C617.731 245.427 533.523 122.222 647.706 140.52C651.889 139.654 617.926 31.8226 511.066 30.0692C404.231 28.3158 407.736 161.56 407.736 161.56" stroke="white" stroke-width="12.4651" stroke-linecap="round" stroke-linejoin="bevel"/>
<path d="M469.906 306.2C455.012 322.851 459.392 325.775 429.62 331.91C399.496 338.125 417.195 349.184 428.745 352.074C442.753 355.582 475.158 360.548 497.054 329.864C503.722 320.522 497.014 305.615 487.855 301.815C483.43 299.98 477.512 297.681 469.906 306.2V306.2Z" stroke="white" stroke-width="12.4651" stroke-linecap="round" stroke-linejoin="round"/>
<path d="M468.931 305.909C467.43 296.119 472.146 284.469 477.199 270.839C484.792 250.389 502.313 229.936 488.297 165.065C477.85 116.725 407.779 155.005 407.735 161.56C407.692 168.112 410.904 194.783 406.564 225.841C400.901 266.369 432.332 300.646 468.524 297.139" stroke="white" stroke-width="12.4651" stroke-linecap="round" stroke-linejoin="round"/>
<path d="M452.258 160.577C451.942 162.816 456.354 168.79 462.105 169.588C467.847 170.389 472.762 165.721 473.074 163.484C473.385 161.246 468.98 158.78 463.226 157.978C457.48 157.176 452.563 158.344 452.26 160.577H452.258Z" fill="white" stroke="white" stroke-width="4.155"/>
<path d="M627.153 156.013C627.465 158.252 623.059 164.225 617.306 165.024C611.56 165.825 606.645 161.157 606.33 158.92C606.026 156.682 610.433 154.216 616.181 153.414C621.928 152.613 626.842 153.78 627.153 156.014V156.013Z" fill="white" stroke="white" stroke-width="2.0775"/>
<path d="M647.706 140.52C648.653 158.08 643.927 170.041 643.331 188.735C642.449 215.906 656.275 247.006 635.442 278.145" stroke="white" stroke-width="12.4651" stroke-linecap="round" stroke-linejoin="round"/>
</svg>
