<svg width="1000" height="500" viewBox="0 0 1000 500" fill="none" xmlns="http://www.w3.org/2000/svg">
<path d="M500.002 2.28979C363.04 2.28979 252 113.108 252 249.816C252 386.52 363.04 497.347 500.002 497.347C636.964 497.347 748 386.52 748 249.816C748 113.108 636.96 2.28979 500.002 2.28979ZM500.002 465.564C461.034 465.564 429.44 439.582 429.44 407.54H570.564C570.564 439.577 538.97 465.564 500.002 465.564ZM616.548 388.325H383.443V346.136H616.552V388.325H616.548ZM615.712 324.422H384.109C383.338 323.535 382.551 322.661 381.806 321.761C357.946 292.844 352.327 277.747 346.869 262.362C346.777 261.855 375.802 268.281 396.385 272.902C396.385 272.902 406.976 275.349 422.46 278.166C407.593 260.772 398.765 238.66 398.765 216.059C398.765 166.44 436.893 123.08 423.138 88.034C436.526 89.1217 450.846 116.235 451.813 158.629C466.045 138.998 472.001 103.148 472.001 81.1672C472.001 58.4086 487.026 31.972 502.055 31.0678C488.658 53.1056 505.525 71.9982 520.519 118.865C526.143 136.469 525.425 166.095 529.767 184.882C531.207 145.861 537.929 88.9252 562.73 69.2681C551.789 94.0229 564.35 124.998 572.941 139.889C586.801 163.915 595.204 182.117 595.204 216.543C595.204 239.625 586.665 261.357 572.262 278.345C588.639 275.279 599.948 272.514 599.948 272.514L653.131 262.157C653.135 262.152 645.406 293.874 615.712 324.422Z" fill="#DA4E31"/>
</svg>
