<?xml version="1.0" encoding="UTF-8"?>
<svg width="1200pt" height="1200pt" version="1.1" viewBox="0 0 1200 1200" xmlns="http://www.w3.org/2000/svg">
 <path d="m600 250c193.3 0 350 156.7 350 350s-156.7 350-350 350-350-156.7-350-350 156.7-350 350-350zm-25.695 466.67c-22.348 0-41.219 17.078-41.219 41.406s18.871 41.926 41.219 41.926c22.848 0 42.215-17.598 42.215-41.926s-19.367-41.406-42.215-41.406zm26.445-316.67c-67.035 0-119.62 40.078-125.51 113.69l-0.21875 3.0898c-0.34766 5.6758 3.9766 10.562 9.6602 10.91l0.63281 0.019532h50.711c6.1133 0 11.43-4.0352 13.133-9.8008l0.28906-1.1719c5.3242-26.379 27.777-41.438 50.699-41.438 28.352 0 48.855 16.266 48.855 45.785 0 16.262-9.6484 33.734-31.363 42.77l-21.711 8.4336c-50.062 20.48-61.523 50.602-56.699 96.988 0 6.6523 5.4023 12.047 12.062 12.047h41c6.0547 0 11.113-4.4531 11.969-10.328l0.10938-1.1172c0-24.699 16.285-30.723 39.207-38.555 46.441-16.266 81.426-55.422 81.426-113.86 0-72.289-52.477-117.47-124.25-117.47z" fill-rule="evenodd"/>
</svg>
