<?xml version="1.0" encoding="UTF-8" standalone="no"?>
<svg
   xmlns:dc="http://purl.org/dc/elements/1.1/"
   xmlns:cc="http://creativecommons.org/ns#"
   xmlns:rdf="http://www.w3.org/1999/02/22-rdf-syntax-ns#"
   xmlns:svg="http://www.w3.org/2000/svg"
   xmlns="http://www.w3.org/2000/svg"
   xmlns:sodipodi="http://sodipodi.sourceforge.net/DTD/sodipodi-0.dtd"
   xmlns:inkscape="http://www.inkscape.org/namespaces/inkscape"
   inkscape:version="1.0beta1 (32d4812, 2019-09-19)"
   sodipodi:docname="redis.svg"
   xml:space="preserve"
   enable-background="new 0 0 50 50"
   viewBox="0 0 876.32336 738.52393"
   height="738.52393"
   width="876.32336"
   y="0px"
   x="0px"
   id="Layer_1"
   version="1.1"><metadata
   id="metadata49">
  <rdf:RDF>
    <cc:Work
       rdf:about="">
      <dc:format>image/svg+xml</dc:format>
      <dc:type
         rdf:resource="http://purl.org/dc/dcmitype/StillImage" />
      <dc:title></dc:title>
    </cc:Work>
  </rdf:RDF>
</metadata>
<defs
   id="defs47" />
<sodipodi:namedview
   inkscape:current-layer="Layer_1"
   inkscape:window-maximized="0"
   inkscape:window-y="72"
   inkscape:window-x="1059"
   inkscape:cy="556.1395"
   inkscape:cx="400.00005"
   inkscape:zoom="0.35"
   showgrid="false"
   id="namedview45"
   inkscape:window-height="1209"
   inkscape:window-width="1661"
   inkscape:pageshadow="2"
   inkscape:pageopacity="0"
   guidetolerance="10"
   gridtolerance="10"
   objecttolerance="10"
   borderopacity="1"
   inkscape:document-rotation="0"
   bordercolor="#666666"
   pagecolor="#ffffff" />

<g
   transform="matrix(17.5259,0,0,17.5259,9.3482305e-4,-67.658737)"
   id="g14">
	<path
   inkscape:connector-curvature="0"
   id="path10"
   d="m 0.01,35.63 c -0.085,0.532 0.369,1.076 1.362,1.483 l 20.316,8.324 c 1.829,0.75 4.795,0.75 6.625,0 l 20.316,-8.324 c 0.993,-0.407 1.447,-0.951 1.362,-1.483 l 0.005,-4.768 c 0.062,0.522 -0.394,1.052 -1.367,1.451 l -20.316,8.324 c -1.829,0.75 -4.795,0.75 -6.625,0 L 1.372,32.313 C 0.304,31.875 -0.141,31.279 0.039,30.709 Z"
   fill="#BA141A" />

	<path
   inkscape:connector-curvature="0"
   id="path12"
   d="m 48.628,29.599 c 1.829,0.75 1.829,1.965 0,2.714 l -20.316,8.324 c -1.829,0.75 -4.795,0.75 -6.625,0 L 1.372,32.313 c -1.829,-0.75 -1.829,-1.965 0,-2.714 l 20.316,-8.324 c 1.829,-0.75 4.795,-0.75 6.625,0 z"
   fill="#BA141A" />

</g>

<g
   transform="matrix(17.5259,0,0,17.5259,9.3482305e-4,-67.658737)"
   id="g20">
	<path
   inkscape:connector-curvature="0"
   id="path16"
   d="m 0.01,27.204 c -0.085,0.532 0.369,1.076 1.362,1.483 l 20.316,8.324 c 1.829,0.75 4.795,0.75 6.625,0 l 20.316,-8.324 c 0.993,-0.407 1.447,-0.951 1.362,-1.483 l 0.005,-4.768 c 0.062,0.522 -0.394,1.052 -1.367,1.451 l -20.316,8.324 c -1.829,0.75 -4.795,0.75 -6.625,0 L 1.372,23.887 C 0.304,23.449 -0.141,22.853 0.039,22.283 Z"
   fill="#BA141A" />

	<path
   inkscape:connector-curvature="0"
   id="path18"
   d="m 48.628,21.173 c 1.829,0.75 1.829,1.965 0,2.714 l -20.316,8.324 c -1.829,0.75 -4.795,0.75 -6.625,0 L 1.372,23.887 c -1.829,-0.75 -1.829,-1.965 0,-2.714 l 20.316,-8.324 c 1.829,-0.75 4.795,-0.75 6.625,0 z"
   fill="#BA141A" />

</g>

<g
   transform="matrix(17.5259,0,0,17.5259,9.3482305e-4,-67.658737)"
   id="g32">
	<path
   inkscape:connector-curvature="0"
   id="path22"
   d="m 0.01,18.778 c -0.085,0.532 0.369,1.076 1.362,1.483 l 20.316,8.324 c 1.829,0.75 4.795,0.75 6.625,0 l 20.316,-8.324 c 0.993,-0.407 1.447,-0.951 1.362,-1.483 l 0.005,-4.768 c 0.062,0.522 -0.394,1.052 -1.367,1.451 l -20.316,8.324 c -1.829,0.75 -4.795,0.75 -6.625,0 L 1.372,15.461 C 0.304,15.023 -0.141,14.427 0.039,13.857 Z"
   fill="#BA141A" />

	<path
   inkscape:connector-curvature="0"
   id="path24"
   d="m 0.01,35.63 c -0.085,0.532 0.369,1.076 1.362,1.483 l 20.316,8.324 c 1.829,0.75 4.795,0.75 6.625,0 l 20.316,-8.324 c 0.993,-0.407 1.447,-0.951 1.362,-1.483 l 0.005,-4.768 c 0.062,0.522 -0.394,1.052 -1.367,1.451 l -20.316,8.324 c -1.829,0.75 -4.795,0.75 -6.625,0 L 1.372,32.313 C 0.304,31.875 -0.141,31.279 0.039,30.709 Z"
   fill="#1E1E1E"
   opacity="0.25" />

	<path
   inkscape:connector-curvature="0"
   id="path26"
   d="m 0.01,27.204 c -0.085,0.532 0.369,1.076 1.362,1.483 l 20.316,8.324 c 1.829,0.75 4.795,0.75 6.625,0 l 20.316,-8.324 c 0.993,-0.407 1.447,-0.951 1.362,-1.483 l 0.005,-4.768 c 0.062,0.522 -0.394,1.052 -1.367,1.451 l -20.316,8.324 c -1.829,0.75 -4.795,0.75 -6.625,0 L 1.372,23.887 C 0.304,23.449 -0.141,22.853 0.039,22.283 Z"
   fill="#1E1E1E"
   opacity="0.25" />

	<path
   inkscape:connector-curvature="0"
   id="path28"
   d="m 0.01,18.778 c -0.085,0.532 0.369,1.076 1.362,1.483 l 20.316,8.324 c 1.829,0.75 4.795,0.75 6.625,0 l 20.316,-8.324 c 0.993,-0.407 1.447,-0.951 1.362,-1.483 l 0.005,-4.768 c 0.062,0.522 -0.394,1.052 -1.367,1.451 l -20.316,8.324 c -1.829,0.75 -4.795,0.75 -6.625,0 L 1.372,15.461 C 0.304,15.023 -0.141,14.427 0.039,13.857 Z"
   fill="#1E1E1E"
   opacity="0.25" />

	<path
   inkscape:connector-curvature="0"
   id="path30"
   d="m 48.628,12.747 c 1.829,0.75 1.829,1.965 0,2.714 l -20.316,8.324 c -1.829,0.75 -4.795,0.75 -6.625,0 L 1.372,15.461 c -1.829,-0.75 -1.829,-1.965 0,-2.714 L 21.688,4.423 c 1.829,-0.75 4.795,-0.75 6.625,0 z"
   fill="#BA141A" />

</g>

<path
   style="stroke-width:17.5259"
   inkscape:connector-curvature="0"
   id="path34"
   d="m 328.43629,207.0247 c -40.64256,18.06919 -106.52242,18.06919 -147.14745,0 -40.62504,-18.06921 -40.64256,-47.37251 0,-65.45924 40.64256,-18.08673 106.52242,-18.06921 147.14745,0 40.62505,18.0692 40.64256,47.39003 0,65.45924 z"
   fill="#FFFFFF" />

<polygon
   transform="matrix(17.5259,0,0,17.5259,9.3482305e-4,-67.658737)"
   id="polygon36"
   points="29.065,16.911 25.877,22.203 17.167,18.329 "
   fill="#FFFFFF" />

<polygon
   transform="matrix(17.5259,0,0,17.5259,9.3482305e-4,-67.658737)"
   id="polygon38"
   points="35.81,16.999 28.695,13.834 35.81,10.669 42.926,13.834 "
   fill="#1E1E1E"
   opacity="0.25" />

<polygon
   transform="matrix(17.5259,0,0,17.5259,9.3482305e-4,-67.658737)"
   id="polygon40"
   points="28.695,13.834 35.81,10.669 35.81,16.999 "
   fill="#1E1E1E"
   opacity="0.25" />

<polygon
   transform="matrix(17.5259,0,0,17.5259,9.3482305e-4,-67.658737)"
   id="polygon42"
   points="25.156,7.837 29.47,6.963 27.504,8.881 30.707,10.436 25.997,10.197 23.662,12.033 22.717,9.966 18.072,9.546 22.198,8.508 21.661,6.412 "
   fill="#FFFFFF" />

</svg>
