<?xml version="1.0" encoding="UTF-8" standalone="no"?>
<svg
   xmlns:dc="http://purl.org/dc/elements/1.1/"
   xmlns:cc="http://creativecommons.org/ns#"
   xmlns:rdf="http://www.w3.org/1999/02/22-rdf-syntax-ns#"
   xmlns:svg="http://www.w3.org/2000/svg"
   xmlns="http://www.w3.org/2000/svg"
   xmlns:sodipodi="http://sodipodi.sourceforge.net/DTD/sodipodi-0.dtd"
   xmlns:inkscape="http://www.inkscape.org/namespaces/inkscape"
   inkscape:version="1.0beta1 (32d4812, 2019-09-19)"
   sodipodi:docname="slack.svg"
   id="svg43"
   version="1.1"
   fill="none"
   viewBox="0 0 1002.3891 1001.5934"
   height="1001.5934"
   width="1002.3891">
  <metadata
     id="metadata47">
    <rdf:RDF>
      <cc:Work
         rdf:about="">
        <dc:format>image/svg+xml</dc:format>
        <dc:type
           rdf:resource="http://purl.org/dc/dcmitype/StillImage" />
      </cc:Work>
    </rdf:RDF>
  </metadata>
  <sodipodi:namedview
     inkscape:current-layer="svg43"
     inkscape:window-maximized="0"
     inkscape:window-y="23"
     inkscape:window-x="0"
     inkscape:cy="437"
     inkscape:cx="400"
     inkscape:zoom="0.35"
     showgrid="false"
     id="namedview45"
     inkscape:window-height="1209"
     inkscape:window-width="1600"
     inkscape:pageshadow="2"
     inkscape:pageopacity="0"
     guidetolerance="10"
     gridtolerance="10"
     objecttolerance="10"
     borderopacity="1"
     inkscape:document-rotation="0"
     bordercolor="#666666"
     pagecolor="#ffffff" />
  <g
     transform="matrix(3.9585231,0,0,3.9585231,0,-486.89834)"
     id="g36"
     clip-path="url(#clip0)">
    <path
       inkscape:connector-curvature="0"
       id="path20"
       fill="#E01E5A"
       d="m 53.3843,282.952 c 0,14.705 -11.8855,26.591 -26.5914,26.591 -14.7059,0 -26.591484,-11.886 -26.591484,-26.591 0,-14.706 11.885584,-26.592 26.591484,-26.592 h 26.5914 z" />
    <path
       inkscape:connector-curvature="0"
       id="path22"
       fill="#E01E5A"
       d="m 66.6801,282.952 c 0,-14.706 11.8855,-26.592 26.5914,-26.592 14.7055,0 26.5915,11.886 26.5915,26.592 v 66.478 c 0,14.706 -11.886,26.592 -26.5915,26.592 -14.7059,0 -26.5914,-11.886 -26.5914,-26.592 z" />
    <path
       inkscape:connector-curvature="0"
       id="path24"
       fill="#36C5F0"
       d="m 93.2716,176.183 c -14.7059,0 -26.5915,-11.886 -26.5915,-26.592 0,-14.705 11.8856,-26.591 26.5915,-26.591 14.7054,0 26.5914,11.886 26.5914,26.591 v 26.592 z" />
    <path
       inkscape:connector-curvature="0"
       id="path26"
       fill="#36C5F0"
       d="m 93.2716,189.68 c 14.7054,0 26.5914,11.886 26.5914,26.592 0,14.705 -11.886,26.591 -26.5914,26.591 H 26.5915 C 11.8856,242.863 0,230.977 0,216.272 0,201.566 11.8856,189.68 26.5915,189.68 Z" />
    <path
       inkscape:connector-curvature="0"
       id="path28"
       fill="#2EB67D"
       d="m 199.839,216.272 c 0,-14.706 11.885,-26.592 26.591,-26.592 14.706,0 26.592,11.886 26.592,26.592 0,14.705 -11.886,26.591 -26.592,26.591 h -26.591 z" />
    <path
       inkscape:connector-curvature="0"
       id="path30"
       fill="#2EB67D"
       d="m 186.543,216.272 c 0,14.705 -11.885,26.591 -26.591,26.591 -14.706,0 -26.592,-11.886 -26.592,-26.591 v -66.681 c 0,-14.705 11.886,-26.591 26.592,-26.591 14.706,0 26.591,11.886 26.591,26.591 z" />
    <path
       inkscape:connector-curvature="0"
       id="path32"
       fill="#ECB22E"
       d="m 159.952,322.839 c 14.706,0 26.591,11.885 26.591,26.591 0,14.706 -11.885,26.592 -26.591,26.592 -14.706,0 -26.592,-11.886 -26.592,-26.592 v -26.591 z" />
    <path
       inkscape:connector-curvature="0"
       id="path34"
       fill="#ECB22E"
       d="m 159.952,309.543 c -14.706,0 -26.592,-11.886 -26.592,-26.591 0,-14.706 11.886,-26.592 26.592,-26.592 h 66.68 c 14.706,0 26.591,11.886 26.591,26.592 0,14.705 -11.885,26.591 -26.591,26.591 z" />
  </g>
  <defs
     id="defs41">
    <clipPath
       id="clip0">
      <rect
         y="0"
         x="0"
         id="rect38"
         fill="white"
         height="500"
         width="1000" />
    </clipPath>
  </defs>
</svg>
