<?xml version="1.0" encoding="UTF-8" standalone="no"?>
<svg
   xmlns:dc="http://purl.org/dc/elements/1.1/"
   xmlns:cc="http://creativecommons.org/ns#"
   xmlns:rdf="http://www.w3.org/1999/02/22-rdf-syntax-ns#"
   xmlns:svg="http://www.w3.org/2000/svg"
   xmlns="http://www.w3.org/2000/svg"
   xmlns:sodipodi="http://sodipodi.sourceforge.net/DTD/sodipodi-0.dtd"
   xmlns:inkscape="http://www.inkscape.org/namespaces/inkscape"
   inkscape:version="1.0beta1 (32d4812, 2019-09-19)"
   sodipodi:docname="smtp.svg"
   id="svg38"
   version="1.1"
   fill="none"
   viewBox="0 0 1000 1000"
   height="1000"
   width="1000">
  <metadata
     id="metadata42">
    <rdf:RDF>
      <cc:Work
         rdf:about="">
        <dc:format>image/svg+xml</dc:format>
        <dc:type
           rdf:resource="http://purl.org/dc/dcmitype/StillImage" />
      </cc:Work>
    </rdf:RDF>
  </metadata>
  <sodipodi:namedview
     inkscape:current-layer="svg38"
     inkscape:window-maximized="0"
     inkscape:window-y="23"
     inkscape:window-x="0"
     inkscape:cy="560"
     inkscape:cx="400"
     inkscape:zoom="0.35"
     showgrid="false"
     id="namedview40"
     inkscape:window-height="1104"
     inkscape:window-width="1600"
     inkscape:pageshadow="2"
     inkscape:pageopacity="0"
     guidetolerance="10"
     gridtolerance="10"
     objecttolerance="10"
     borderopacity="1"
     inkscape:document-rotation="0"
     bordercolor="#666666"
     pagecolor="#ffffff" />
  <path
     inkscape:connector-curvature="0"
     style="fill:url(#paint0_radial);stroke-width:10"
     id="path10"
     fill="url(#paint0_radial)"
     d="M 913.75,0 H 86.2503 L 0,86.2503 V 913.75 L 86.2503,1000 H 913.75 L 1000,913.75 V 86.2503 Z" />
  <g
     transform="scale(10)"
     id="g14"
     filter="url(#filter0_d)">
    <path
       inkscape:connector-curvature="0"
       id="path12"
       fill="white"
       d="m 25.4219,55.0625 c 0,-0.4063 -0.0729,-0.7865 -0.2188,-1.1406 -0.1354,-0.3542 -0.375,-0.6823 -0.7187,-0.9844 -0.3334,-0.3125 -0.7761,-0.5937 -1.3282,-0.8437 -0.5416,-0.2605 -1.2187,-0.5 -2.0312,-0.7188 -0.9896,-0.2708 -1.9375,-0.6094 -2.8438,-1.0156 -0.8958,-0.4063 -1.6874,-0.8959 -2.375,-1.4688 -0.6874,-0.5729 -1.2395,-1.2396 -1.6562,-2 -0.4062,-0.7604 -0.6094,-1.6354 -0.6094,-2.625 0,-0.9583 0.2032,-1.8281 0.6094,-2.6094 0.4062,-0.7812 0.9688,-1.4479 1.6875,-2 0.7187,-0.552 1.5677,-0.9739 2.5469,-1.2656 0.9791,-0.3021 2.0416,-0.4531 3.1875,-0.4531 1.1875,0 2.2708,0.1719 3.25,0.5156 0.9896,0.3438 1.8385,0.8281 2.5469,1.4531 0.7083,0.6146 1.2604,1.349 1.6562,2.2032 0.3958,0.8541 0.5938,1.7916 0.5938,2.8125 H 25.4375 C 25.4167,44.4115 25.3229,43.9427 25.1562,43.5156 25,43.0885 24.7604,42.724 24.4375,42.4219 24.125,42.1094 23.7292,41.8698 23.25,41.7031 22.7812,41.526 22.2292,41.4375 21.5938,41.4375 c -0.5834,0 -1.1042,0.0729 -1.5626,0.2187 -0.4479,0.1355 -0.8281,0.3334 -1.1406,0.5938 -0.3125,0.25 -0.5521,0.5521 -0.7187,0.9062 -0.1563,0.3438 -0.2344,0.7188 -0.2344,1.125 0,0.4271 0.1042,0.8126 0.3125,1.1563 0.2188,0.3437 0.5312,0.6563 0.9375,0.9375 0.4063,0.2708 0.8958,0.5208 1.4687,0.75 0.5834,0.2292 1.2396,0.4427 1.9688,0.6406 1.0417,0.3021 2,0.6719 2.875,1.1094 0.875,0.4375 1.625,0.9583 2.25,1.5625 0.6354,0.5937 1.125,1.276 1.4688,2.0469 0.3541,0.7604 0.5312,1.6094 0.5312,2.5468 0,1 -0.2031,1.8907 -0.6094,2.6719 -0.3958,0.7709 -0.9479,1.4271 -1.6562,1.9688 -0.7084,0.5312 -1.5521,0.9375 -2.5313,1.2187 -0.9791,0.2709 -2.0469,0.4063 -3.2031,0.4063 -0.7188,0 -1.4375,-0.0677 -2.1562,-0.2031 -0.7084,-0.125 -1.3907,-0.323 -2.0469,-0.5938 -0.6459,-0.2708 -1.25,-0.6094 -1.8125,-1.0156 -0.5625,-0.4063 -1.0521,-0.8802 -1.4688,-1.4219 -0.4062,-0.5417 -0.7291,-1.1563 -0.9687,-1.8437 -0.2292,-0.6876 -0.3438,-1.448 -0.3438,-2.2813 h 4.3125 c 0.0209,0.6875 0.1406,1.276 0.3594,1.7656 0.2188,0.4896 0.5208,0.8907 0.9062,1.2031 0.3959,0.3126 0.8646,0.5417 1.4063,0.6876 0.5521,0.1458 1.1563,0.2187 1.8125,0.2187 0.5833,0 1.099,-0.0677 1.5469,-0.2031 0.4583,-0.1354 0.8437,-0.3229 1.1562,-0.5625 0.3125,-0.2396 0.5521,-0.5261 0.7188,-0.8594 0.1666,-0.3437 0.25,-0.7187 0.25,-1.125 z M 38.2188,38.25 40.375,46.7969 42.8281,38.25 h 5.4531 V 61 H 44.25 V 54.2656 L 44.4375,43.625 41.4531,53.5 h -2.1719 l -2.6718,-9.4531 0.1875,10.2187 V 61 H 32.7656 V 38.25 Z m 30.5468,3.5781 H 61.75 V 61 H 57.3438 V 41.8281 H 50.4219 V 38.25 h 18.3437 z m 7.1719,10.8281 V 61 H 71.5469 V 38.25 h 7.7812 c 1.2396,0 2.3594,0.1823 3.3594,0.5469 1,0.3541 1.849,0.8541 2.5469,1.5 0.7083,0.6354 1.25,1.401 1.625,2.2969 0.3854,0.8958 0.5781,1.8906 0.5781,2.9843 0,1.0209 -0.1927,1.9636 -0.5781,2.8281 -0.375,0.8646 -0.9167,1.6146 -1.625,2.25 -0.6979,0.625 -1.5469,1.1146 -2.5469,1.4688 -1,0.3542 -2.1198,0.5312 -3.3594,0.5312 z m 0,-3.5624 h 3.3906 c 0.625,0 1.1667,-0.0938 1.625,-0.2813 0.4584,-0.1875 0.8386,-0.4427 1.1407,-0.7656 0.3124,-0.3229 0.5416,-0.6927 0.6874,-1.1094 0.1563,-0.4271 0.2344,-0.8698 0.2344,-1.3281 0,-0.5313 -0.0781,-1.0261 -0.2344,-1.4844 -0.1458,-0.4583 -0.375,-0.8594 -0.6874,-1.2031 -0.3021,-0.3438 -0.6823,-0.6146 -1.1407,-0.8125 -0.4583,-0.1979 -1,-0.2969 -1.625,-0.2969 h -3.3906 z" />
  </g>
  <defs
     id="defs36">
    <filter
       color-interpolation-filters="sRGB"
       filterUnits="userSpaceOnUse"
       height="31.3594"
       width="82.484398"
       y="35.9375"
       x="8.9531202"
       id="filter0_d">
      <feFlood
         id="feFlood16"
         result="BackgroundImageFix"
         flood-opacity="0" />
      <feColorMatrix
         id="feColorMatrix18"
         values="0 0 0 0 0 0 0 0 0 0 0 0 0 0 0 0 0 0 127 0"
         type="matrix"
         in="SourceAlpha" />
      <feOffset
         id="feOffset20"
         dy="2" />
      <feGaussianBlur
         id="feGaussianBlur22"
         stdDeviation="2" />
      <feColorMatrix
         id="feColorMatrix24"
         values="0 0 0 0 0 0 0 0 0 0 0 0 0 0 0 0 0 0 0.15 0"
         type="matrix" />
      <feBlend
         id="feBlend26"
         result="effect1_dropShadow"
         in2="BackgroundImageFix"
         mode="normal" />
      <feBlend
         id="feBlend28"
         result="shape"
         in2="effect1_dropShadow"
         in="SourceGraphic"
         mode="normal" />
    </filter>
    <radialGradient
       gradientTransform="matrix(-900.0011,820.00102,-1140.0839,-1251.3115,1000,80)"
       gradientUnits="userSpaceOnUse"
       r="1"
       cy="0"
       cx="0"
       id="paint0_radial">
      <stop
         id="stop31"
         stop-color="#ACBAC7" />
      <stop
         id="stop33"
         stop-color="#677A8F"
         offset="1" />
    </radialGradient>
  </defs>
</svg>
