<?xml version="1.0" encoding="UTF-8" standalone="no"?>
<svg
   xmlns:dc="http://purl.org/dc/elements/1.1/"
   xmlns:cc="http://creativecommons.org/ns#"
   xmlns:rdf="http://www.w3.org/1999/02/22-rdf-syntax-ns#"
   xmlns:svg="http://www.w3.org/2000/svg"
   xmlns="http://www.w3.org/2000/svg"
   xmlns:xlink="http://www.w3.org/1999/xlink"
   xmlns:sodipodi="http://sodipodi.sourceforge.net/DTD/sodipodi-0.dtd"
   xmlns:inkscape="http://www.inkscape.org/namespaces/inkscape"
   inkscape:version="1.0beta1 (32d4812, 2019-09-19)"
   sodipodi:docname="spark.svg"
   id="svg27"
   version="1.1"
   text-anchor="middle"
   font-size="14px"
   font-family="Roboto"
   height="1032.4844"
   width="1008.5994"
   stroke-linejoin="round"
   stroke-linecap="round"
   stroke="#000"
   fill-rule="evenodd"
   fill="#fff"
   viewBox="0 0 215.16788 223.70495">
  <metadata
     id="metadata31">
    <rdf:RDF>
      <cc:Work
         rdf:about="">
        <dc:format>image/svg+xml</dc:format>
        <dc:type
           rdf:resource="http://purl.org/dc/dcmitype/StillImage" />
      </cc:Work>
    </rdf:RDF>
  </metadata>
  <sodipodi:namedview
     inkscape:current-layer="svg27"
     inkscape:window-maximized="0"
     inkscape:window-y="23"
     inkscape:window-x="0"
     inkscape:cy="557.68505"
     inkscape:cx="395.38499"
     inkscape:zoom="0.35"
     showgrid="false"
     id="namedview29"
     inkscape:window-height="1209"
     inkscape:window-width="1600"
     inkscape:pageshadow="2"
     inkscape:pageopacity="0"
     guidetolerance="10"
     gridtolerance="10"
     objecttolerance="10"
     borderopacity="1"
     inkscape:document-rotation="0"
     bordercolor="#666666"
     pagecolor="#ffffff" />
  <defs
     id="defs12">
    <style
       id="style10"
       type="text/css" />
  </defs>
  <use
     height="100%"
     width="100%"
     transform="matrix(3.4958998,0,0,3.4958998,1.2479501,-1.9396913e-8)"
     id="use14"
     y="0.5"
     x="0.5"
     xlink:href="#A" />
  <symbol
     transform="translate(-0.99991981,-0.50157358)"
     overflow="visible"
     id="A">
    <g
       id="g24"
       fill="#e25a1c"
       stroke="none">
      <path
         inkscape:connector-curvature="0"
         id="path16"
         d="m 48.104,44.333 -0.29,-0.62 -6.367,-12.07 c -0.215,-0.404 -0.188,-0.644 0.096,-0.988 l 10.073,-11.83 c 0.117,-0.14 0.224,-0.287 0.27,-0.533 l -2.94,0.77 -12.215,3.246 c -0.38,0.102 -0.55,-0.01 -0.74,-0.323 L 29.05,10.427 A 1.67,1.67 0 0 0 28.545,9.864 l -0.56,3.084 -1.936,10.897 -0.2,1.177 c -0.033,0.385 -0.225,0.514 -0.564,0.62 l -14.38,4.544 a 1.59,1.59 0 0 0 -0.642,0.358 l 11.83,4.697 -0.346,0.272 -7.36,4.758 A 0.78,0.78 0 0 1 13.534,40.34 L 4.737,36.42 c -1.316,-0.577 -2.5,-1.37 -3.422,-2.496 -2.084,-2.55 -1.673,-5.45 1.104,-7.214 0.91,-0.58 1.94,-1.015 2.97,-1.35 l 14.125,-4.487 c 0.385,-0.123 0.577,-0.3 0.65,-0.728 L 22.1,9.25 c 0.35,-1.94 0.537,-3.943 1.48,-5.71 0.363,-0.673 0.798,-1.354 1.315,-1.927 1.87,-2.077 4.482,-2.156 6.46,-0.18 0.668,0.668 1.25,1.455 1.738,2.263 l 6.446,10.71 c 0.252,0.423 0.48,0.5 0.947,0.385 l 15.79,-4.194 c 1.085,-0.287 2.183,-0.392 3.296,-0.192 2.424,0.454 3.485,2.308 2.664,4.642 -0.373,1.058 -1.018,1.97 -1.73,2.82 L 49.474,30.82 c -0.3,0.352 -0.308,0.606 -0.1,1 l 6.562,12.44 c 0.523,0.993 0.923,2.023 0.933,3.162 0.026,2.593 -1.87,4.715 -4.446,5.092 C 50.98,52.726 49.639,52.418 48.287,52 L 38.38,48.987 c -0.306,-0.09 -0.423,-0.212 -0.477,-0.54 l -1.195,-6.964 c -0.01,-0.063 0.008,-0.133 0.017,-0.275 l 11.37,3.136" />
      <g
         id="g22"
         fill-rule="nonzero">
        <path
           inkscape:connector-curvature="0"
           id="path18"
           d="m 22.085,35.243 2.097,0.914 -2.33,18.563 12.748,-14.12 2.148,0.603 2.645,8.04 -3.438,-1.212 -8.895,9.603 c 0,0 -3.978,4.118 -6.134,3.424 C 18.77,60.364 16.95,58.442 16.748,55.006 16.546,51.57 15.636,41.762 15.636,41.762 l -4.347,-3.134 z" />
        <path
           inkscape:connector-curvature="0"
           id="path20"
           d="m 15.625,41.765 c 0,0 -1.92,21.23 1.82,21.937 3.74,0.707 -0.404,-0.1 -0.404,-0.1 0,0 2.123,2.427 10.513,-6.57 l 8.39,-8.997 -16.782,9.907 C 19.566,57.436 21.285,40.25 21.285,40.25 Z" />
      </g>
    </g>
  </symbol>
</svg>
