<?xml version="1.0" encoding="UTF-8" standalone="no"?>
<svg
   xmlns:dc="http://purl.org/dc/elements/1.1/"
   xmlns:cc="http://creativecommons.org/ns#"
   xmlns:rdf="http://www.w3.org/1999/02/22-rdf-syntax-ns#"
   xmlns:svg="http://www.w3.org/2000/svg"
   xmlns="http://www.w3.org/2000/svg"
   xmlns:sodipodi="http://sodipodi.sourceforge.net/DTD/sodipodi-0.dtd"
   xmlns:inkscape="http://www.inkscape.org/namespaces/inkscape"
   inkscape:version="1.0beta1 (32d4812, 2019-09-19)"
   sodipodi:docname="storm.svg"
   id="svg20"
   version="1.1"
   fill-rule="evenodd"
   viewBox="-4.58 166.28 1002.6098 852.43012"
   height="972.3653"
   width="1021.4102">
  <metadata
     id="metadata26">
    <rdf:RDF>
      <cc:Work
         rdf:about="">
        <dc:format>image/svg+xml</dc:format>
        <dc:type
           rdf:resource="http://purl.org/dc/dcmitype/StillImage" />
      </cc:Work>
    </rdf:RDF>
  </metadata>
  <defs
     id="defs24" />
  <sodipodi:namedview
     inkscape:current-layer="svg20"
     inkscape:window-maximized="0"
     inkscape:window-y="23"
     inkscape:window-x="0"
     inkscape:cy="459.83278"
     inkscape:cx="400"
     inkscape:zoom="0.35"
     showgrid="false"
     id="namedview22"
     inkscape:window-height="1209"
     inkscape:window-width="1600"
     inkscape:pageshadow="2"
     inkscape:pageopacity="0"
     guidetolerance="10"
     gridtolerance="10"
     objecttolerance="10"
     borderopacity="1"
     inkscape:document-rotation="0"
     bordercolor="#666666"
     pagecolor="#ffffff" />
  <path
     style="stroke-width:15.957"
     inkscape:connector-curvature="0"
     id="path10"
     fill="#eea852"
     d="M 615.58857,628.70942 369.45194,817.40087 H 656.62996 L 338.65494,1069.7289 H 426.8652 L 818.65727,766.13105 H 529.43676 L 705.82537,628.70942 Z" />
  <path
     style="stroke-width:15.957"
     inkscape:connector-curvature="0"
     id="path12"
     fill="#3da0ca"
     d="M 339.96341,455.0335 H 251.37018 L -4.58,653.60233 323.55962,655.2459 c 152.59673,0 310.09226,-56.61541 310.09226,-199.38264 0,-142.76722 -159.15505,-235.47735 -426.59427,-137.0227 -18.0314,19.69093 -95.15155,91.91228 -108.284161,105.02893 C 353.08006,295.8944 577.03647,302.59634 577.03647,455.04946 c 0,144.41079 -230.51473,144.41079 -253.47685,144.41079 H 156.20267 Z" />
  <path
     style="stroke-width:15.957"
     inkscape:connector-curvature="0"
     id="path14"
     fill="#2c6ba3"
     d="m 207.05761,318.8246 c -18.0314,19.69093 -95.15155,91.91229 -108.284161,105.02893 56.774981,-28.72258 112.050011,-50.4241 163.638971,-65.47154 38.40849,-50.66346 141.53854,-188.86698 287.54503,-188.86698 155.86792,0 208.36643,91.91228 208.36643,146.05436 0,59.0728 -44.29662,103.40132 -44.29662,103.40132 0,0 67.25873,3.28715 100.08227,3.28715 32.82353,0 126.33152,9.84546 126.33152,100.09822 0,90.25276 -106.64059,103.40132 -142.73531,103.40132 H 619.01932 l -70.52991,55.80161 241.174,1.62761 c 108.28416,0 208.36643,-54.15804 208.36643,-160.81458 0,-106.65655 -91.88037,-154.25626 -187.01597,-154.25626 9.84547,-16.40379 13.13261,-32.82354 13.13261,-52.65808 0,-19.83455 -32.80758,-200.19645 -277.28469,-200.19645 -157.49552,0 -254.51405,124.46455 -339.6127,203.48359 z" />
  <path
     style="stroke-width:15.957"
     inkscape:connector-curvature="0"
     id="path16"
     fill="#928680"
     d="m 618.70018,625.80525 h 91.03465 l -72.85963,56.61541 -90.20489,-0.87763 z" />
  <path
     style="stroke-width:15.957"
     inkscape:connector-curvature="0"
     id="path18"
     fill="#3288ba"
     d="m 262.41242,358.36603 -1.67548,0.51063 c -36.92449,11.96774 -115.92756,44.67958 -161.963491,64.94496 13.132611,-13.11665 90.236801,-85.338 108.284161,-105.02893 40.8499,-15.04745 79.19456,-25.61098 114.82653,-32.23313 -26.48861,28.08431 -46.62634,54.82823 -59.47172,71.77456 z" />
</svg>
