<?xml version="1.0" encoding="UTF-8" standalone="no"?>
<svg
   xmlns:dc="http://purl.org/dc/elements/1.1/"
   xmlns:cc="http://creativecommons.org/ns#"
   xmlns:rdf="http://www.w3.org/1999/02/22-rdf-syntax-ns#"
   xmlns:svg="http://www.w3.org/2000/svg"
   xmlns="http://www.w3.org/2000/svg"
   xmlns:sodipodi="http://sodipodi.sourceforge.net/DTD/sodipodi-0.dtd"
   xmlns:inkscape="http://www.inkscape.org/namespaces/inkscape"
   inkscape:version="1.0beta1 (32d4812, 2019-09-19)"
   sodipodi:docname="Generic Icon.svg"
   id="svg38"
   version="1.1"
   fill="none"
   viewBox="0 0 1000 1000"
   height="1000"
   width="1000">
  <metadata
     id="metadata42">
    <rdf:RDF>
      <cc:Work
         rdf:about="">
        <dc:format>image/svg+xml</dc:format>
        <dc:type
           rdf:resource="http://purl.org/dc/dcmitype/StillImage" />
      </cc:Work>
    </rdf:RDF>
  </metadata>
  <sodipodi:namedview
     inkscape:current-layer="svg38"
     inkscape:window-maximized="0"
     inkscape:window-y="23"
     inkscape:window-x="0"
     inkscape:cy="560"
     inkscape:cx="400"
     inkscape:zoom="0.35"
     showgrid="false"
     id="namedview40"
     inkscape:window-height="1104"
     inkscape:window-width="1600"
     inkscape:pageshadow="2"
     inkscape:pageopacity="0"
     guidetolerance="10"
     gridtolerance="10"
     objecttolerance="10"
     borderopacity="1"
     inkscape:document-rotation="0"
     bordercolor="#666666"
     pagecolor="#ffffff" />
  <path
     inkscape:connector-curvature="0"
     style="fill:url(#paint0_radial);stroke-width:10"
     id="path10"
     fill="url(#paint0_radial)"
     d="M 913.75,0 H 86.2503 L 0,86.2503 V 913.75 L 86.2503,1000 H 913.75 L 1000,913.75 V 86.2503 Z" />
  <g
     transform="scale(10)"
     id="g14"
     filter="url(#filter0_d)">
    <path
       inkscape:connector-curvature="0"
       id="path12"
       fill="white"
       d="M 39.9375,41.8281 H 32.9219 V 61 H 28.5156 V 41.8281 H 21.5938 V 38.25 H 39.9375 Z M 58.2344,53.875 c -0.0729,1.1458 -0.3229,2.1771 -0.75,3.0938 -0.4167,0.9166 -0.9792,1.6979 -1.6875,2.3437 -0.7084,0.6458 -1.5521,1.1458 -2.5313,1.5 -0.9791,0.3437 -2.0625,0.5156 -3.25,0.5156 -1.3437,0 -2.5364,-0.2448 -3.5781,-0.7343 -1.0417,-0.5 -1.9167,-1.1928 -2.625,-2.0782 -0.7083,-0.8958 -1.25,-1.9687 -1.625,-3.2187 -0.375,-1.25 -0.5625,-2.625 -0.5625,-4.125 v -3.0625 c 0,-1.5104 0.1979,-2.8906 0.5938,-4.1406 0.3958,-1.25 0.9583,-2.323 1.6874,-3.2188 0.7292,-0.8958 1.6094,-1.5885 2.6407,-2.0781 1.0416,-0.5 2.2083,-0.75 3.5,-0.75 1.25,0 2.3593,0.1771 3.3281,0.5312 0.9792,0.3542 1.8125,0.8594 2.5,1.5157 0.6875,0.6562 1.2292,1.4583 1.625,2.4062 0.3958,0.9479 0.6458,2.0156 0.75,3.2031 H 53.875 C 53.8333,44.901 53.7292,44.3073 53.5625,43.7969 53.4062,43.2865 53.1719,42.8646 52.8594,42.5312 52.5573,42.1875 52.1719,41.9323 51.7031,41.7656 51.2448,41.5885 50.6927,41.5 50.0469,41.5 c -0.6771,0 -1.2657,0.1458 -1.7657,0.4375 -0.5,0.2917 -0.9166,0.7187 -1.25,1.2813 -0.3229,0.5624 -0.5624,1.2552 -0.7187,2.0781 -0.1563,0.8125 -0.2344,1.7396 -0.2344,2.7812 v 3.0938 c 0,2.2396 0.3125,3.8958 0.9375,4.9687 0.6354,1.0729 1.6354,1.6094 3,1.6094 1.1459,0 2.0521,-0.3021 2.7188,-0.9062 0.6666,-0.6146 1.0364,-1.6042 1.1094,-2.9688 z m 8.0937,-1.2188 V 61 H 61.9375 V 38.25 h 7.7813 c 1.2395,0 2.3593,0.1823 3.3593,0.5469 1,0.3541 1.849,0.8541 2.5469,1.5 0.7083,0.6354 1.25,1.401 1.625,2.2969 0.3854,0.8958 0.5781,1.8906 0.5781,2.9843 0,1.0209 -0.1927,1.9636 -0.5781,2.8281 -0.375,0.8646 -0.9167,1.6146 -1.625,2.25 -0.6979,0.625 -1.5469,1.1146 -2.5469,1.4688 -1,0.3542 -2.1198,0.5312 -3.3593,0.5312 z m 0,-3.5624 h 3.3907 c 0.625,0 1.1666,-0.0938 1.625,-0.2813 0.4583,-0.1875 0.8385,-0.4427 1.1406,-0.7656 0.3125,-0.3229 0.5416,-0.6927 0.6875,-1.1094 0.1562,-0.4271 0.2343,-0.8698 0.2343,-1.3281 0,-0.5313 -0.0781,-1.0261 -0.2343,-1.4844 -0.1459,-0.4583 -0.375,-0.8594 -0.6875,-1.2031 -0.3021,-0.3438 -0.6823,-0.6146 -1.1406,-0.8125 -0.4584,-0.1979 -1,-0.2969 -1.625,-0.2969 h -3.3907 z" />
  </g>
  <defs
     id="defs36">
    <filter
       color-interpolation-filters="sRGB"
       filterUnits="userSpaceOnUse"
       height="31.4062"
       width="64.234398"
       y="35.921902"
       x="17.5938"
       id="filter0_d">
      <feFlood
         id="feFlood16"
         result="BackgroundImageFix"
         flood-opacity="0" />
      <feColorMatrix
         id="feColorMatrix18"
         values="0 0 0 0 0 0 0 0 0 0 0 0 0 0 0 0 0 0 127 0"
         type="matrix"
         in="SourceAlpha" />
      <feOffset
         id="feOffset20"
         dy="2" />
      <feGaussianBlur
         id="feGaussianBlur22"
         stdDeviation="2" />
      <feColorMatrix
         id="feColorMatrix24"
         values="0 0 0 0 0 0 0 0 0 0 0 0 0 0 0 0 0 0 0.15 0"
         type="matrix" />
      <feBlend
         id="feBlend26"
         result="effect1_dropShadow"
         in2="BackgroundImageFix"
         mode="normal" />
      <feBlend
         id="feBlend28"
         result="shape"
         in2="effect1_dropShadow"
         in="SourceGraphic"
         mode="normal" />
    </filter>
    <radialGradient
       gradientTransform="matrix(-900.0011,820.00102,-1140.0839,-1251.3115,1000,80)"
       gradientUnits="userSpaceOnUse"
       r="1"
       cy="0"
       cx="0"
       id="paint0_radial">
      <stop
         id="stop31"
         stop-color="#ACBAC7" />
      <stop
         id="stop33"
         stop-color="#677A8F"
         offset="1" />
    </radialGradient>
  </defs>
</svg>
