<svg width="47" height="24" viewBox="0 0 47 24" fill="none" xmlns="http://www.w3.org/2000/svg">
<path d="M0.900391 3.2998V5.5998H24.8004C23.8004 7.0998 23.2004 8.89981 23.0004 10.7998H9.9004V13.1998H22.9004C23.1004 15.0998 23.7004 16.8998 24.7004 18.3998H14.8004V20.6998H26.7004C28.8004 22.4998 31.5004 23.6998 34.5004 23.6998C41.0004 23.6998 46.2004 18.4998 46.2004 11.9998C46.2004 5.4998 40.9004 0.299805 34.4004 0.299805C31.4004 0.299805 28.7004 1.3998 26.6004 3.2998H0.900391ZM25.2004 11.8998C25.2004 6.7998 29.3004 2.6998 34.4004 2.6998C39.5004 2.6998 43.6004 6.7998 43.6004 11.8998C43.6004 16.9998 39.5004 21.0998 34.4004 21.0998C29.4004 21.0998 25.2004 16.9998 25.2004 11.8998Z" fill="#A674E5"/>
</svg>
