<?xml version="1.0" encoding="UTF-8" standalone="no"?>
<svg
   xmlns:dc="http://purl.org/dc/elements/1.1/"
   xmlns:cc="http://creativecommons.org/ns#"
   xmlns:rdf="http://www.w3.org/1999/02/22-rdf-syntax-ns#"
   xmlns:svg="http://www.w3.org/2000/svg"
   xmlns="http://www.w3.org/2000/svg"
   xmlns:sodipodi="http://sodipodi.sourceforge.net/DTD/sodipodi-0.dtd"
   xmlns:inkscape="http://www.inkscape.org/namespaces/inkscape"
   inkscape:version="1.0beta1 (32d4812, 2019-09-19)"
   sodipodi:docname="travis.svg"
   id="svg94"
   version="1.1"
   fill="none"
   viewBox="0 0 998.22539 991.71406"
   height="991.71405"
   width="998.2254">
  <metadata
     id="metadata100">
    <rdf:RDF>
      <cc:Work
         rdf:about="">
        <dc:format>image/svg+xml</dc:format>
        <dc:type
           rdf:resource="http://purl.org/dc/dcmitype/StillImage" />
      </cc:Work>
    </rdf:RDF>
  </metadata>
  <defs
     id="defs98" />
  <sodipodi:namedview
     inkscape:current-layer="svg94"
     inkscape:window-maximized="0"
     inkscape:window-y="23"
     inkscape:window-x="0"
     inkscape:cy="553"
     inkscape:cx="164"
     inkscape:zoom="0.35"
     showgrid="false"
     id="namedview96"
     inkscape:window-height="1209"
     inkscape:window-width="1600"
     inkscape:pageshadow="2"
     inkscape:pageopacity="0"
     guidetolerance="10"
     gridtolerance="10"
     objecttolerance="10"
     borderopacity="1"
     inkscape:document-rotation="0"
     bordercolor="#666666"
     pagecolor="#ffffff" />
  <path
     style="stroke-width:2.04056"
     inkscape:connector-curvature="0"
     id="path10"
     fill="#B93346"
     d="m 239.7276,434.84845 c 0,0 -154.4728,108.80904 -160.518994,150.26312 l 11.59653,-2.38542 c 0,0 184.985364,-122.70325 331.622394,-137.66875 l 3.32,-18.62016 z"
     clip-rule="evenodd"
     fill-rule="evenodd" />
  <path
     style="stroke-width:2.04056"
     inkscape:connector-curvature="0"
     id="path12"
     fill="#B93346"
     d="m 483.10985,416.5303 -121.71969,88.77273 6.5747,5.42995 c 4.96469,-4.11378 216.21621,-70.45867 216.21621,-70.45867 l 44.53737,-28.71278 c -29.88408,3.82401 -145.60859,4.96877 -145.60859,4.96877 z"
     clip-rule="evenodd"
     fill-rule="evenodd" />
  <path
     style="stroke-width:2.04056"
     inkscape:connector-curvature="0"
     id="path14"
     fill="#B93346"
     d="m 589.00088,520.65012 c 87.20762,0 217.93845,-85.1242 217.93845,-85.1242 l -42.2601,-8.01942 c -2.09158,2.08546 -68.14262,-2.30788 -68.14262,-2.30788 l -31.35736,-8.67852 -74.9173,85.06911 -6.09721,14.76144 c 5.3871,-2.17524 4.83614,4.29947 4.83614,4.29947 z"
     clip-rule="evenodd"
     fill-rule="evenodd" />
  <path
     style="stroke-width:2.04056"
     inkscape:connector-curvature="0"
     id="path16"
     fill="#B93346"
     d="m 222.72153,844.73875 c -0.59992,-0.27139 -1.20393,-0.54891 -1.80386,-0.82438 -4.27294,-3.67098 -7.77047,-6.67265 -10.05386,-8.62955 z m 650.49535,-50.71211 -26.84976,7.52152 -124.04593,-2.66498 -77.60472,-60.05586 -93.79049,23.35222 -108.48459,-9.33966 -60.74557,66.05716 -113.99412,33.8795 -56.91747,-17.55498 c -1.81202,-1.55899 -2.86087,-2.46092 -2.86087,-2.46092 l 25.54583,62.24947 c 0,0 57.86225,61.73525 90.1848,68.99354 32.31643,7.26645 90.70515,-0.51626 134.49771,-7.26441 43.78644,-6.74203 78.71275,-22.30542 92.78857,-47.71861 14.07173,-25.42544 16.15719,-32.68577 16.15719,-32.68577 0,0 41.71119,58.62135 77.67818,65.36745 35.967,6.74203 142.83342,-29.57594 142.83342,-29.57594 0,0 65.16748,-17.63456 76.63341,-39.94202 11.46594,-22.30541 41.70711,-95.44538 41.70711,-95.44538 z"
     clip-rule="evenodd"
     fill-rule="evenodd" />
  <path
     style="stroke-width:2.04056"
     inkscape:connector-curvature="0"
     id="path18"
     fill="#F4EEAA"
     d="m 974.35543,351.37506 c -0.27139,-3.35468 -0.64277,-6.70733 -1.04885,-10.03957 -0.2918,-2.36502 -0.66318,-4.8341 -1.06925,-7.11953 -8.9438,-7.53989 -19.10377,-14.25335 -29.68614,-20.34648 -11.46185,-6.71346 -23.46241,-12.727 -35.7058,-18.30999 -12.15973,-5.75235 -24.64595,-10.95783 -37.21174,-16.03067 -6.26658,-2.55275 -12.58825,-5.02183 -18.94053,-7.38685 -6.32779,-2.47316 -12.71884,-4.779 -19.13029,-7.11545 13.4514,2.23238 26.76405,5.29119 39.9767,8.70301 8.5969,2.22626 17.14483,4.71983 25.63358,7.38072 C 836.76831,122.88139 692.34325,19.83429 534.65248,19.83429 c -157.71118,0 -302.12603,103.0471 -362.51859,261.27596 8.49487,-2.66089 17.0428,-5.15446 25.62133,-7.38072 13.22694,-3.41182 26.54367,-6.47063 39.99099,-8.70301 -6.43186,2.33645 -12.8025,4.64229 -19.15478,7.11545 -6.31759,2.36502 -12.64538,4.8341 -18.94256,7.38685 -12.55968,5.07284 -25.01529,10.27832 -37.20562,16.03067 -12.21278,5.58299 -24.21947,11.59653 -35.6854,18.30999 -10.58237,6.09313 -20.73214,12.80659 -29.710626,20.34648 -0.371383,2.28543 -0.748887,4.75451 -1.044769,7.11953 -0.399951,3.33224 -0.777456,6.68489 -1.048851,10.03957 -0.583601,6.73795 -0.820307,13.5065 -0.879483,20.29954 -0.134677,13.55956 0.775415,27.11911 2.49153,40.54195 1.850792,13.45548 4.313749,26.82118 7.956159,39.74204 1.7957,6.47471 3.83218,12.85556 6.18291,19.03439 1.18761,3.08329 2.46909,6.12373 3.80974,9.07847 0.66726,1.47125 1.36514,2.92005 2.06301,4.31783 l 0.85908,1.64062 c 0.98967,0.50606 2.03444,1.02232 3.02412,1.50185 l 6.00538,2.8772 c 3.34244,1.52226 7.97861,3.72811 11.81283,5.44831 l 0.61217,-0.56524 -11.14353,-42.55394 c 2.3589,-0.65094 23.52567,-6.12373 60.00893,-13.08002 -2.94861,-0.55911 -5.91559,-1.21005 -8.83972,-1.90384 -8.3051,-2.07322 -16.50205,-4.59128 -24.43169,-7.81945 -3.93829,-1.6651 -7.82148,-3.48528 -11.51694,-5.57278 -3.69955,-2.13035 -7.34196,-4.54026 -10.1559,-7.74394 40.07466,13.10858 122.88486,7.17054 196.50028,-0.45097 67.32639,-6.95629 134.80787,-11.46797 202.63421,-11.59653 67.83654,0.12856 135.34659,4.64024 202.63829,11.59653 73.64399,7.62151 156.45419,13.55955 196.52884,0.45097 -2.81394,3.20368 -6.45022,5.61359 -10.14977,7.74394 -3.69546,2.0875 -7.57865,3.90768 -11.51694,5.57278 -7.93984,3.22817 -16.13271,5.74623 -24.43169,7.81945 -1.2325,0.29792 -2.4752,0.56523 -3.70566,0.83255 39.99915,7.43786 63.28404,13.47589 65.77352,14.15131 l -10.65991,40.54195 c 2.14056,-0.96723 4.30764,-1.90997 6.42982,-2.87108 l 5.99518,-2.8772 c 0.9958,-0.47953 2.00996,-0.99579 3.0282,-1.50185 l 0.82643,-1.64062 c 0.73256,-1.39778 1.4284,-2.84658 2.09158,-4.31783 1.34677,-2.95474 2.63233,-5.99518 3.80973,-9.07847 2.35482,-6.17883 4.39742,-12.55968 6.18904,-19.03439 3.64445,-12.92086 6.10945,-26.28656 7.95412,-39.74204 1.72224,-13.42284 2.62621,-26.98239 2.49765,-40.54195 -0.0592,-6.79304 -0.302,-13.56159 -0.88969,-20.29954 z"
     clip-rule="evenodd"
     fill-rule="evenodd" />
  <path
     style="stroke-width:2.04056"
     inkscape:connector-curvature="0"
     id="path20"
     fill="#E1C8A5"
     d="m 584.16474,910.16947 c -5.76255,0.7346 -11.52511,1.34677 -17.25093,1.71407 -3.69342,0.14896 -7.59906,0.46729 -11.14353,0.46729 l -1.31004,0.0265 c 4.45251,-8.39693 7.82557,-14.90225 10.38648,-19.83429 5.20956,4.93204 11.84139,11.04762 19.31802,17.6264 z"
     clip-rule="evenodd"
     fill-rule="evenodd" />
  <path
     style="stroke-width:2.04056"
     inkscape:connector-curvature="0"
     id="path22"
     fill="#E1C8A5"
     d="m 594.01047,924.88806 c 16.50205,16.65101 36.94851,26.18045 59.46206,27.87616 -37.80759,15.64297 -73.43789,21.68508 -100.88553,23.5624 -27.36193,1.86712 -55.10137,-1.41819 -82.28577,-9.01522 2.27931,-0.41423 3.94441,-0.71215 5.95436,-0.95906 2.23442,-0.27752 50.98556,-6.75223 72.95836,-40.03997 l 2.06097,0.051 5.39525,-0.051 c 3.65057,0 6.97057,-0.30404 10.4579,-0.44484 8.29285,-0.73052 16.39798,-1.93241 24.36638,-3.57303 0.83663,0.86724 1.66306,1.7202 2.51602,2.59356 z"
     clip-rule="evenodd"
     fill-rule="evenodd" />
  <path
     style="stroke-width:2.04056"
     inkscape:connector-curvature="0"
     id="path24"
     fill="#5F655D"
     d="m 638.61926,436.35439 c -1.57532,1.99567 -3.33837,4.19948 -5.21365,6.49308 -9.6233,11.82507 -22.97063,26.9477 -38.80134,41.74383 -18.39977,-0.55707 -37.31172,-0.85908 -56.77667,-0.85908 -32.16135,0 -62.99836,0.82439 -92.27843,2.20789 41.36837,-16.68774 91.08266,-32.98573 144.91072,-42.78044 15.72255,-2.88944 31.81444,-5.19732 48.15937,-6.80528 z"
     clip-rule="evenodd"
     fill-rule="evenodd" />
  <path
     style="stroke-width:2.04056"
     inkscape:connector-curvature="0"
     id="path26"
     fill="#5F655D"
     d="m 396.04303,456.18868 c -14.61861,10.54768 -31.14106,24.00112 -47.15745,40.32972 -41.0174,4.20969 -76.79258,9.31722 -106.30935,14.21458 45.38216,-21.41573 97.17578,-41.11738 153.4668,-54.5443 z"
     clip-rule="evenodd"
     fill-rule="evenodd" />
  <path
     style="stroke-width:2.04056"
     inkscape:connector-curvature="0"
     id="path28"
     fill="#5F655D"
     d="M 905.94958,541.43328 889.06799,661.05935 808.19836,718.42371 597.28149,694.14099 565.53235,588.24587 c -0.75297,-2.57723 -2.89965,-4.47087 -5.52585,-4.90551 -7.81741,-1.27944 -14.73084,-1.93038 -20.48931,-1.93038 -5.78909,0 -12.67599,0.65094 -20.52809,1.93038 -2.60172,0.43464 -4.73819,2.32828 -5.51564,4.90551 l -30.9717,103.3138 -209.7415,47.26765 -83.11424,-58.96212 -16.37758,-134.24264 c 3.56691,-2.03853 7.18891,-4.07297 10.85581,-6.10333 5.14426,-1.12232 10.93334,-2.30992 17.33664,-3.55671 l 15.43075,126.6701 c 0.24283,1.97323 1.31616,3.7424 2.92413,4.879 l 57.17458,40.57867 c 1.17741,0.80602 2.57316,1.2427 3.9689,1.2427 0.50402,0 0.98968,-0.049 1.52839,-0.16528 l 172.43997,-38.85848 c 0.58972,-0.13672 1.18353,-0.35098 1.71611,-0.62645 1.60389,-0.86316 2.87108,-2.35686 3.40571,-4.175 L 491.1007,561.9532 c 8.32551,-2.16912 29.66573,-7.21544 48.41649,-7.21544 18.70177,0 40.0522,5.04632 48.38791,7.21544 l 31.05127,103.55458 c 0.80603,2.68538 3.11187,4.60964 5.86867,4.94021 l 172.44405,19.83837 c 1.66715,0.18569 3.37918,-0.25507 4.74432,-1.2223 l 57.21131,-40.53786 c 1.54879,-1.11211 2.59152,-2.86087 2.85884,-4.78104 l 15.2777,-108.21932 c 11.4639,2.22422 21.05863,4.25866 28.58832,5.90744 z"
     clip-rule="evenodd"
     fill-rule="evenodd" />
  <path
     style="stroke-width:2.04056"
     inkscape:connector-curvature="0"
     id="path30"
     fill="#5F655D"
     d="M 925.75122,467.58319 910.8857,525.6087 c -30.39829,-6.89711 -97.20026,-20.43014 -188.10539,-29.53922 29.70043,-13.02901 59.94568,-29.37189 87.58105,-49.79795 54.09537,7.86434 93.81497,16.28575 115.38986,21.31166 z"
     clip-rule="evenodd"
     fill-rule="evenodd" />
  <path
     style="stroke-width:2.04056"
     inkscape:connector-curvature="0"
     id="path32"
     fill="#E0C59B"
     d="m 574.26392,501.16681 c -8.30101,6.74203 -17.05096,13.04737 -26.158,18.55077 l -30.38809,18.38957 c -19.05683,2.33033 -35.60173,7.05832 -36.53631,7.33175 -0.55912,0.15917 -1.09375,0.39587 -1.58348,0.69788 -1.47329,0.85908 -2.59356,2.27523 -3.13431,3.97094 L 445.52265,652.35634 280.1267,689.24159 228.03108,652.65426 212.87377,529.54086 c 29.58206,-5.44626 69.15066,-11.75161 116.67337,-17.09177 -5.09325,6.11762 -10.04162,12.53111 -14.72675,19.26906 l -28.29856,40.72151 41.20513,-27.54559 c 0.61421,-0.42647 26.84975,-17.73659 69.76895,-38.78501 42.77228,-3.22205 89.97259,-5.29323 140.48677,-5.29323 12.31481,0 24.39699,0.14284 36.28124,0.35098 z M 316.80177,639.84972 c 11.75162,-6.36452 25.02957,-5.42178 45.80252,-5.39321 2.23034,0.049 4.52802,0.0245 6.9318,-0.0286 2.04057,-0.0265 4.09746,-0.0551 6.26658,-0.11019 21.41572,-0.20814 39.21761,1.82834 38.90133,-31.88791 -0.32037,-33.71217 -15.25935,-60.96596 -36.65059,-60.74762 -21.41573,0.18161 -42.13358,27.80882 -40.85415,61.50059 0.3469,8.77443 1.63653,15.10834 3.6975,19.67512 -18.65688,4.6933 -23.80318,16.26331 -24.09499,16.99179 z"
     clip-rule="evenodd"
     fill-rule="evenodd" />
  <path
     style="stroke-width:2.04056"
     inkscape:connector-curvature="0"
     id="path34"
     fill="#E0C59B"
     d="m 861.39384,533.40569 -14.94305,104.23818 -52.62209,36.722 -165.48981,-18.7385 -30.8717,-101.34466 c -0.69788,-2.24666 -2.46501,-3.9791 -4.71983,-4.65044 -1.02436,-0.29589 -21.51368,-6.1217 -43.23753,-7.99698 l 3.96686,-0.26119 c 3.43223,-0.24691 60.51499,-7.2236 128.66578,-30.64112 75.48049,5.7748 137.11371,15.02264 179.25137,22.67271 z M 755.63749,629.8836 c -0.21426,-0.7999 -4.72187,-14.2962 -24.67655,-11.93118 2.3038,-4.99122 3.32408,-11.72305 2.60172,-20.95048 -2.63641,-33.49792 -22.18502,-60.12116 -43.61503,-59.38044 -21.43206,0.76113 -35.16506,28.5271 -33.98153,62.10459 1.17945,33.55301 19.17723,33.3163 40.60724,32.56742 28.80665,-0.53871 44.63123,-9.36007 59.06415,-2.40991 z"
     clip-rule="evenodd"
     fill-rule="evenodd" />
  <path
     style="stroke-width:2.04056"
     inkscape:connector-curvature="0"
     id="path36"
     fill="#BFAC91"
     d="m 574.26392,501.16681 c -8.30101,6.74203 -17.05096,13.04737 -26.158,18.55077 l -30.38809,18.38957 c -19.05683,2.33033 -35.60173,7.05832 -36.53631,7.33175 -0.55912,0.15917 -1.09375,0.39587 -1.58348,0.69788 -1.47329,0.85908 -2.59356,2.27523 -3.13431,3.97094 L 445.52265,652.35634 280.1267,689.24159 228.03108,652.65426 212.87377,529.54086 c 29.58206,-5.44626 69.15066,-11.75161 116.67337,-17.09177 -5.09325,6.11762 -10.04162,12.53111 -14.72675,19.26906 l -28.29856,40.72151 41.20513,-27.54559 c 0.61421,-0.42647 26.84975,-17.73659 69.76895,-38.78501 42.77228,-3.22205 89.97259,-5.29323 140.48677,-5.29323 12.31481,0 24.39699,0.14284 36.28124,0.35098 z M 316.80177,639.84972 c 11.75162,-6.36452 25.02957,-5.42178 45.80252,-5.39321 2.23034,0.049 4.52802,0.0245 6.9318,-0.0286 2.04057,-0.0265 4.09746,-0.0551 6.26658,-0.11019 21.41572,-0.20814 39.21761,1.82834 38.90133,-31.88791 -0.32037,-33.71217 -15.25935,-60.96596 -36.65059,-60.74762 -21.41573,0.18161 -42.13358,27.80882 -40.85415,61.50059 0.3469,8.77443 1.63653,15.10834 3.6975,19.67512 -18.65688,4.6933 -23.80318,16.26331 -24.09499,16.99179 z"
     clip-rule="evenodd"
     fill-rule="evenodd" />
  <path
     style="stroke-width:2.04056"
     inkscape:connector-curvature="0"
     id="path38"
     fill="#BFAC91"
     d="m 861.39384,533.40569 -14.94305,104.23818 -52.62209,36.722 -165.48981,-18.7385 -30.8717,-101.34466 c -0.69788,-2.24666 -2.46501,-3.9791 -4.71983,-4.65044 -1.02436,-0.29589 -21.51368,-6.1217 -43.23753,-7.99698 l 3.96686,-0.26119 c 3.43223,-0.24691 60.51499,-7.2236 128.66578,-30.64112 75.48049,5.7748 137.11371,15.02264 179.25137,22.67271 z M 755.63749,629.8836 c -0.21426,-0.7999 -4.72187,-14.2962 -24.67655,-11.93118 2.3038,-4.99122 3.32408,-11.72305 2.60172,-20.95048 -2.63641,-33.49792 -22.18502,-60.12116 -43.61503,-59.38044 -21.43206,0.76113 -35.16506,28.5271 -33.98153,62.10459 1.17945,33.55301 19.17723,33.3163 40.60724,32.56742 28.80665,-0.53871 44.63123,-9.36007 59.06415,-2.40991 z"
     clip-rule="evenodd"
     fill-rule="evenodd" />
  <path
     style="stroke-width:2.04056"
     inkscape:connector-curvature="0"
     id="path40"
     fill="#E1C8A5"
     d="m 937.30082,576.89421 c 2.56499,2.08954 4.59739,7.50112 2.30379,32.73474 -2.82006,30.89415 -15.95517,85.114 -24.08682,93.85374 -8.97441,1.71816 -27.79862,-0.31628 -39.27067,-2.97106 1.98138,-7.78475 2.54866,-11.51287 4.15051,-19.46903 l 20.07099,-13.89012 c 1.59776,-1.09987 2.65478,-2.82211 2.92413,-4.6933 l 14.02684,-97.1819 c 8.51324,4.56066 17.27134,9.4927 19.88123,11.61693 z"
     clip-rule="evenodd"
     fill-rule="evenodd" />
  <path
     style="stroke-width:2.04056"
     inkscape:connector-curvature="0"
     id="path42"
     fill="#E1C8A5"
     d="m 204.85027,703.74797 c 0.98151,3.47712 2.00791,6.95016 3.07309,10.37423 -10.52932,3.09962 -31.97974,6.07272 -41.68466,4.37701 -8.03779,-8.12349 -23.03594,-64.02476 -26.31921,-93.70886 -2.6711,-24.05214 -0.79582,-29.25354 1.64062,-31.27166 2.83434,-2.38542 13.43712,-8.43365 22.61762,-13.3657 l 12.40051,100.96919 c 0.23875,1.93854 1.26923,3.65874 2.88536,4.77492 z"
     clip-rule="evenodd"
     fill-rule="evenodd" />
  <path
     style="stroke-width:2.04056"
     inkscape:connector-curvature="0"
     id="path44"
     fill="#E1C8A5"
     d="m 608.9168,708.00867 -0.75501,6.54409 c 0,0 -22.94411,21.29737 -59.8763,26.06209 -36.9383,4.76472 -65.96942,-17.95697 -65.96942,-17.95697 1.2121,3.94849 2.93637,12.86576 11.30269,20.48931 -9.84164,-1.18353 -20.47095,-1.97526 -31.61447,-1.97526 -4.02808,0 -8.09696,0.12039 -12.02505,0.30812 -22.73189,1.18965 -54.71163,35.60174 -77.19865,70.26277 -11.03333,3.49957 -45.51684,14.45536 -85.43641,26.25595 C 250.08347,786.31534 231.75919,733.5096 229.90636,728.03885 l 0.0245,-0.0245 c -0.75093,-2.09974 -1.50594,-4.20764 -2.20585,-6.36044 l 9.58249,6.70734 v 0.0245 l 23.67055,16.58979 7.91331,5.51973 c 1.18149,0.84071 2.57724,1.26923 3.97706,1.26923 0.51219,0 1.02437,-0.0551 1.53043,-0.15509 l 217.53033,-48.47973 c 2.43848,-0.53667 4.40558,-2.37318 5.13202,-4.76472 l 31.02067,-102.2323 c 5.35444,-0.72644 10.05386,-1.10395 14.09214,-1.10395 4.00971,0 8.74382,0.37751 14.09826,1.10395 l 31.92056,105.2707 c 0.81418,2.66497 3.1241,4.60963 5.86662,4.89939 z"
     clip-rule="evenodd"
     fill-rule="evenodd" />
  <path
     style="stroke-width:2.04056"
     inkscape:connector-curvature="0"
     id="path46"
     fill="#E1C8A5"
     d="m 854.37022,699.18118 7.02362,-4.98102 c -1.1672,4.92389 -2.42827,9.809 -3.74443,14.64514 -9.76206,31.58998 -21.28105,59.5294 -34.08356,84.21615 -2.82618,0.19997 -5.81765,0.31017 -9.01113,0.31017 -9.88042,0 -19.96489,-0.84684 -31.12678,-1.87528 -19.37312,-1.7957 -50.11831,-5.35241 -59.83548,-6.49104 -8.36019,-6.73386 -36.9832,-29.6943 -60.79863,-48.61646 -0.93458,-0.76725 -1.73856,-1.47533 -2.52826,-2.12627 -4.19336,-3.58119 -8.95604,-7.64803 -18.61403,-7.64803 -8.77239,0 -21.57898,3.21797 -52.53639,12.67803 16.08374,-12.13728 16.19393,-27.81086 16.19393,-27.81086 l 0.75501,-6.59919 204.07893,23.40528 c 1.65898,0.19181 3.38325,-0.24079 4.78512,-1.21822 l 20.50156,-14.50433 z"
     clip-rule="evenodd"
     fill-rule="evenodd" />
  <path
     style="stroke-width:2.04056"
     inkscape:connector-curvature="0"
     id="path48"
     fill="#E7D193"
     d="m 702.79502,272.72149 c 0.59789,17.92432 0.15917,50.404 -8.05615,80.81453 -0.33465,1.17129 -0.28568,2.36298 0,3.48121 -10.45177,-1.11823 -20.91171,-2.06914 -31.36552,-2.92209 11.73325,-24.99284 14.2962,-51.60181 14.85123,-60.9782 9.01318,-6.50328 17.98554,-14.31048 24.57044,-20.39545 z"
     clip-rule="evenodd"
     fill-rule="evenodd" />
  <path
     style="stroke-width:2.04056"
     inkscape:connector-curvature="0"
     id="path50"
     fill="#E7D193"
     d="m 396.05935,293.13122 c 0.54688,9.38252 3.10574,35.95476 14.83695,60.93739 -10.47014,0.84888 -20.92803,1.83039 -31.37368,2.94862 0.28568,-1.08966 0.31424,-2.25687 0,-3.43019 -8.21124,-30.36973 -8.63159,-62.90041 -8.05819,-80.86555 6.5951,6.08905 15.54094,13.90237 24.59492,20.40973 z"
     clip-rule="evenodd"
     fill-rule="evenodd" />
  <path
     style="stroke-width:2.04056"
     inkscape:connector-curvature="0"
     id="path52"
     fill="#292C2D"
     d="m 690.57408,578.33689 c 5.99314,-0.1306 10.78234,-5.07284 10.67828,-11.04354 -0.10407,-5.99926 -5.05448,-10.77826 -11.08231,-10.64154 -6.01151,0.098 -10.78235,5.04019 -10.66808,11.03945 0.10815,5.9707 5.05856,10.75378 11.07211,10.64563 z m 66.85911,48.81643 c -14.32681,-6.90119 -30.03508,1.85896 -58.62951,2.39359 -21.27289,0.7448 -39.14008,0.97947 -40.31136,-32.33683 -1.17333,-33.34283 12.45969,-60.91495 33.73258,-61.66996 21.27493,-0.7346 40.6807,25.70092 43.2967,58.96417 0.71624,9.16009 -0.29588,15.84702 -2.58131,20.80151 19.80776,-2.34665 24.28272,11.05374 24.4929,11.84752 z"
     clip-rule="evenodd"
     fill-rule="evenodd" />
  <path
     style="stroke-width:2.04056"
     inkscape:connector-curvature="0"
     id="path54"
     fill="#EEF7F8"
     d="m 698.02622,565.09362 c 0.0939,5.46056 -4.26478,9.97837 -9.72125,10.09876 -5.47279,0.098 -9.9804,-4.27498 -10.07835,-9.73553 -0.10203,-5.48708 4.23825,-10.00489 9.71105,-10.09468 5.48708,-0.12447 9.99469,4.24438 10.08855,9.73145 z"
     clip-rule="evenodd"
     fill-rule="evenodd" />
  <path
     style="stroke-width:2.04056"
     inkscape:connector-curvature="0"
     id="path56"
     fill="#292C2D"
     d="m 382.40593,588.99068 c 6.08905,-0.15508 10.91295,-5.26262 10.74766,-11.36187 -0.16325,-6.12985 -5.24833,-10.95783 -11.33738,-10.79254 -6.12373,0.1612 -10.94967,5.25853 -10.78438,11.36186 0.16528,6.13598 5.25445,10.95784 11.3741,10.79255 z m 33.43466,17.82229 c 0.32037,34.06111 -17.68149,32.00218 -39.33801,32.21236 -2.19565,0.0551 -4.27498,0.0857 -6.34003,0.11019 -2.43032,0.0551 -4.75452,0.0816 -7.00934,0.0306 -21.00762,-0.0306 -34.43454,-0.98151 -46.31879,5.44831 0.29589,-0.73665 5.49933,-12.42296 24.36639,-17.16523 -2.08342,-4.61168 -3.38938,-11.01293 -3.73832,-19.87511 -1.29575,-34.03662 19.65677,-61.94542 41.31328,-62.12907 21.63203,-0.22039 36.74037,27.31092 37.06482,61.36794 z"
     clip-rule="evenodd"
     fill-rule="evenodd" />
  <path
     style="stroke-width:2.04056"
     inkscape:connector-curvature="0"
     id="path58"
     fill="#EEF7F8"
     d="m 391.09058,574.93935 c 0.14692,5.45851 -4.17092,10.02938 -9.61922,10.16814 -5.47484,0.14896 -10.02938,-4.16684 -10.1763,-9.658 -0.14692,-5.46259 4.16887,-10.02529 9.64983,-10.16813 5.44831,-0.14896 9.99673,4.17295 10.14569,9.65799 z"
     clip-rule="evenodd"
     fill-rule="evenodd" />
  <path
     style="stroke-width:2.04056"
     inkscape:connector-curvature="0"
     id="path60"
     fill="#EAD698"
     d="m 245.11673,381.81009 -2.44255,-4.75656 -0.0979,-12.4454 6.3686,-74.22351 110.51495,-27.58027 6.88079,95.75554 c -5.36057,-7.49091 -13.38203,-24.43168 -18.3508,-47.68188 -2.65886,-12.41683 -11.20474,-15.95109 -21.03823,-15.95109 -8.58057,0 -18.13858,2.68742 -25.61521,4.52597 -16.0674,3.94033 -37.09951,9.45598 -40.5399,18.12226 -6.67673,16.81221 -9.94163,60.6864 -9.94163,60.6864 z"
     clip-rule="evenodd"
     fill-rule="evenodd" />
  <path
     style="stroke-width:2.04056"
     inkscape:connector-curvature="0"
     id="path62"
     fill="#EAD698"
     d="m 825.13097,381.81009 -5.78705,-3.54854 c 0,0 -3.2853,-43.87419 -10.01101,-60.6864 -3.471,-8.66628 -24.6643,-14.18193 -40.84394,-18.12226 -7.53785,-1.83855 -17.1734,-4.52597 -25.81315,-4.52597 -9.91306,0 -18.52425,3.53426 -21.20351,15.95109 -5.00346,23.2502 -13.10042,40.19097 -18.49568,47.68188 l 6.942,-95.75554 111.35975,27.58027 5.46259,63.24323 -0.19589,25.454 z"
     clip-rule="evenodd"
     fill-rule="evenodd" />
  <path
     style="stroke-width:2.04056"
     inkscape:connector-curvature="0"
     id="path64"
     fill="#EAD799"
     d="m 652.34206,366.93437 -227.09039,-0.42444 -11.76793,-26.76404 -8.41325,-45.87598 -18.50792,-14.86348 -0.42036,-106.83622 26.06005,-77.857343 c 0,0 4.28723,229.320723 57.34192,229.320723 53.05468,0 63.67378,0 63.67378,0 h 10.60686 c 0,0 10.60889,0 63.66358,0 53.05469,0 56.03595,-229.420915 56.03595,-229.420915 l 34.50187,128.606805 -25.07242,72.32578 -1.26923,20.38932 -8.8336,32.2797 z"
     clip-rule="evenodd"
     fill-rule="evenodd" />
  <path
     style="stroke-width:2.04056"
     inkscape:connector-curvature="0"
     id="path66"
     fill="#EAD799"
     d="m 886.14794,401.64438 c 0,0 -3.27307,-1.57123 -13.09023,-6.28698 0.73869,0.35302 13.09023,6.28698 13.09023,6.28698 z m -13.09023,-6.28698 c 0,-0.004 0,-0.004 0,-0.004 z m 0,-0.004 c -0.0102,-0.006 -0.0204,-0.0102 -0.0347,-0.0143 0,0 0.0143,0.004 0.0347,0.0143 z m -0.0347,-0.0143 -41.33164,-12.24951 0.0653,-7.79291 2.12015,-3.94442 -1.91609,-21.34022 0.3877,-47.53904 c 0,0 11.15169,78.67602 40.67458,92.8661 z"
     clip-rule="evenodd"
     fill-rule="evenodd" />
  <path
     style="stroke-width:2.04056"
     inkscape:connector-curvature="0"
     id="path68"
     fill="#E9D294"
     d="m 831.69138,376.85152 0.19794,-24.79287 1.87732,20.926 z"
     clip-rule="evenodd"
     fill-rule="evenodd" />
  <path
     style="stroke-width:2.04056"
     inkscape:connector-curvature="0"
     id="path70"
     fill="#EAD799"
     d="m 193.07008,401.64438 13.12288,-6.30535 c -9.83961,4.72799 -13.12288,6.30535 -13.12288,6.30535 z m 13.12288,-6.30535 c 29.52085,-14.19008 40.67662,-92.8661 40.67662,-92.8661 l 0.47545,58.44586 -0.93662,10.4334 1.03661,1.93038 0.0816,9.80695 z"
     clip-rule="evenodd"
     fill-rule="evenodd" />
  <path
     style="stroke-width:2.04056"
     inkscape:connector-curvature="0"
     id="path72"
     fill="#E9D294"
     d="m 243.59039,371.89294 -1.01416,-1.54878 0.91621,-8.36836 z"
     clip-rule="evenodd"
     fill-rule="evenodd" />
  <path
     style="stroke-width:2.04056"
     inkscape:connector-curvature="0"
     id="path74"
     fill="#292C2D"
     d="m 369.19532,354.49713 -0.48566,-1.2223 c -9.87021,-35.7507 -9.44373,-73.23587 -8.55609,-90.52354 L 257.6356,291.76608 c -6.89507,44.67409 -3.67302,77.5129 -2.97923,83.54685 8.5112,-2.29972 17.04484,-4.40966 25.6397,-6.38289 14.16764,-3.12818 28.44751,-5.74419 42.75595,-8.15205 14.33497,-2.37726 28.72504,-4.19336 43.10898,-5.92988 1.02028,-0.13264 2.01199,-0.21222 3.03432,-0.35098 z m 44.64348,-4.29539 c -12.03526,-25.11935 -14.66146,-51.83443 -15.22262,-61.26796 -9.28865,-6.54205 -18.46711,-14.39618 -25.23362,-20.51788 -0.58973,18.06104 -0.15917,50.76721 8.26837,81.30223 0.3224,1.1774 0.2918,2.35277 0,3.44855 10.715,-1.12639 21.44633,-2.11198 32.18787,-2.96494 z m 283.74462,-0.48361 c 8.43569,-30.59419 8.88666,-63.26976 8.27245,-81.30223 -6.76243,6.1217 -15.97558,13.97583 -25.22954,20.51788 -0.57136,9.43353 -3.19757,36.2037 -15.25731,61.34142 10.74154,0.85704 21.48307,1.82018 32.2144,2.94454 -0.29384,-1.12436 -0.34282,-2.32421 0,-3.50161 z m 126.97415,25.61929 c 0.69379,-6.00334 3.94441,-38.84215 -2.95882,-83.57134 L 719.05424,262.75129 c 0.91826,17.28767 1.32433,54.77284 -8.52956,90.52354 l -0.50606,1.28148 c 1.0162,0.10406 2.03649,0.18773 3.0282,0.3224 28.8291,3.28531 57.52148,7.87863 85.89962,14.07582 8.56017,1.97731 17.12442,4.08929 25.61113,6.38289 z m 16.47552,4.81573 c 13.76973,4.48516 27.61904,9.24172 40.16444,16.53266 -6.71754,-2.63845 -13.64118,-4.53822 -20.62603,-6.25025 -6.94813,-1.76101 -13.95135,-3.25674 -20.99129,-4.59331 -14.09214,-2.64458 -28.23326,-4.88512 -42.46212,-6.60123 -14.20233,-1.84059 -28.42303,-3.3955 -42.70698,-4.59943 -14.27987,-1.19782 -28.53118,-2.39767 -42.84166,-3.23022 -57.19907,-3.49957 -114.55731,-4.37701 -171.95432,-4.43619 -57.38476,0.0306 -114.74708,1.09987 -171.95228,4.46476 -14.30436,0.82847 -28.55974,2.0324 -42.83961,3.23634 -14.2758,1.19373 -28.53118,2.72415 -42.70699,4.58923 -14.22681,1.71611 -28.37201,3.96073 -42.46415,6.60122 -7.02771,1.31209 -14.04113,2.83639 -21.01578,4.56883 -6.95016,1.71203 -13.90849,3.6118 -20.61583,6.25025 12.53723,-7.29094 26.38451,-12.07198 40.18485,-16.56327 1.15496,-0.37342 2.3344,-0.69379 3.51385,-1.06517 l -0.21834,-0.88357 c -0.23671,-1.57327 -5.33812,-39.09314 3.54446,-92.74163 0.43056,-2.56703 2.28543,-4.64841 4.80757,-5.34424 l 14.5778,-4.13418 c 3.16287,-112.54205 49.73468,-165.47063 51.18757,-167.0988 -41.60712,66.63424 -41.22962,145.66674 -40.50522,164.07468 l 90.59292,-25.62541 0.21222,-0.049 1.12435,-0.15916 0.37751,-0.0286 c 0.46116,-0.0245 0.97131,0.0286 1.48757,0.13264 l 0.26119,0.0837 1.12639,0.37138 0.42648,0.24079 0.88765,0.55707 0.24282,0.16325 0.16325,0.15712 0.26731,0.21834 c 0.0551,0.0837 2.46909,2.45684 6.30535,6.01355 -0.90805,-29.71471 0.51014,-114.94482 41.28879,-185.585294 -0.86316,2.476838 -33.2102,96.640944 -22.06259,202.173044 3.61792,2.89148 7.42562,5.71766 11.1374,8.20307 1.79366,1.23046 2.89556,3.25674 2.92005,5.42382 0.0347,0.34894 0.80194,33.98765 15.73276,62.60249 0.21221,0.42444 0.37546,0.87949 0.51422,1.33657 37.11991,-2.51601 74.35002,-3.52609 111.49646,-3.55058 37.15869,0.0245 74.36431,1.08966 111.4781,3.63016 0.13468,-0.48361 0.29792,-0.9611 0.54075,-1.41615 14.92061,-28.61484 15.70215,-62.25355 15.70215,-62.60249 0.0449,-2.16708 1.15088,-4.19336 2.95473,-5.42382 3.70363,-2.48541 7.46031,-5.31159 11.11292,-8.20307 11.16189,-105.5321 -21.18922,-199.696206 -22.04218,-202.173044 40.74396,70.640474 42.20092,155.870584 41.28879,185.585294 3.80769,-3.55671 6.22576,-5.92988 6.30126,-6.01355 l 0.26732,-0.21834 0.16324,-0.15712 0.24283,-0.16325 0.88152,-0.58768 0.40608,-0.21018 1.18148,-0.39995 0.24283,-0.0551 c 0.47953,-0.10407 0.99988,-0.15713 1.47533,-0.13264 l 0.34689,0.0286 1.15496,0.15916 0.21426,0.049 90.59292,25.62541 c 0.73256,-18.40794 1.10395,-97.44044 -40.49705,-164.07468 1.44268,1.62817 48.01653,54.55675 51.159,167.0988 l 14.60228,4.13418 c 2.49357,0.69583 4.37702,2.77721 4.80758,5.34424 8.88257,53.64849 3.75667,91.16836 3.53833,92.74163 l -0.21221,0.90805 c 1.17944,0.3469 2.32828,0.69176 3.51385,1.0713 z"
     clip-rule="evenodd"
     fill-rule="evenodd" />
  <path
     style="stroke-width:2.04056"
     inkscape:connector-curvature="0"
     id="path76"
     fill="#292C2D"
     d="M 630.34477,160.85589 V 112.19862 H 453.78081 v 48.65727 h 24.13784 v -24.72063 h 49.94691 v 150.23761 h -20.55461 v 27.86596 h 69.50164 V 286.37287 H 556.25798 V 136.13526 h 49.94282 v 24.72063 z M 435.64835,94.212675 h 212.87173 v 84.629165 h -60.49663 v -24.72573 h -13.63301 v 114.23041 h 20.5995 v 63.87784 H 489.17441 v -63.87784 h 20.5138 V 154.11611 h -13.5922 v 24.72573 h -60.44766 z"
     clip-rule="evenodd"
     fill-rule="evenodd" />
  <path
     style="stroke-width:2.04056"
     inkscape:connector-curvature="0"
     id="path78"
     fill="#B93346"
     d="m 628.71844,114.04697 v 48.96131 h -24.36843 v -24.8751 H 553.9399 v 151.17606 h 20.74642 v 28.03941 h -70.15258 v -28.03941 h 20.74642 V 138.13318 h -50.41623 v 24.8751 h -24.36435 v -48.96131 z"
     clip-rule="evenodd"
     fill-rule="evenodd" />
  <path
     style="stroke-width:2.04056"
     inkscape:connector-curvature="0"
     id="path80"
     fill="#5F655D"
     d="m 153.4668,464.11627 c 8.64792,-2.15075 20.32811,-4.88919 34.65287,-7.92759 -8.80299,6.5849 -19.21395,14.84919 -30.58194,24.79286 z"
     clip-rule="evenodd"
     fill-rule="evenodd" />
  <path
     style="stroke-width:2.04056"
     inkscape:connector-curvature="0"
     id="path82"
     fill="#BFAC91"
     d="m 475.17205,699.15874 c 0,0 2.43848,15.92252 -19.52208,22.73189 -21.9524,6.81753 -161.03934,48.87357 -176.89861,46.59834 -15.85927,-2.26911 -56.11757,-29.5535 -56.11757,-29.5535 l -9.76002,-35.2324 59.56817,37.6872 z"
     clip-rule="evenodd"
     fill-rule="evenodd" />
  <path
     style="stroke-width:2.04056"
     inkscape:connector-curvature="0"
     id="path84"
     fill="#BFAC91"
     d="m 599.04862,696.43458 c 0,0 -1.75692,16.38574 20.48728,22.37275 22.23603,5.98294 163.04317,42.71923 178.79429,39.67471 15.75112,-3.04453 54.81365,-32.75719 54.81365,-32.75719 l 8.25,-36.48326 -54.77488,33.92847 z"
     clip-rule="evenodd"
     fill-rule="evenodd" />
  <path
     style="stroke-width:2.04056"
     inkscape:connector-curvature="0"
     id="path86"
     fill="#BFAC91"
     d="m 143.56598,669.4073 c 0,0 19.70165,37.82187 51.52426,24.72757 l 22.73394,7.99901 -2.27319,16.00415 -47.73902,5.81357 -12.88004,-7.27053 z"
     clip-rule="evenodd"
     fill-rule="evenodd" />
  <path
     style="stroke-width:2.04056"
     inkscape:connector-curvature="0"
     id="path88"
     fill="#BFAC91"
     d="m 936.08872,659.0045 c 0,0 -31.70834,40.56643 -63.04529,27.11911 l -10.08039,6.5094 2.2385,16.43879 47.01053,5.98498 12.67803,-7.47867 z"
     clip-rule="evenodd"
     fill-rule="evenodd" />
  <path
     style="stroke-width:2.04056"
     inkscape:connector-curvature="0"
     id="path90"
     fill="#BFAC91"
     d="m 445.59815,964.36891 c 0,0 114.94706,58.04999 245.09632,-20.9362 l -41.79689,-2.85679 c 0,0 -91.19896,36.15473 -163.39823,16.17556 z"
     clip-rule="evenodd"
     fill-rule="evenodd" />
  <path
     style="stroke-width:2.04056"
     inkscape:connector-curvature="0"
     id="path92"
     fill="#292C2D"
     d="m 188.39311,458.17211 c -14.54923,2.81598 -26.41103,5.35444 -35.19362,7.34807 l 4.13418,15.63481 c 11.54348,-9.21723 22.11768,-16.87955 31.05944,-22.98288 z m 19.04051,256.76019 c -1.08966,-3.46692 -2.12015,-6.98689 -3.09962,-10.50687 l -25.76213,-18.059 c -1.63041,-1.14067 -2.66498,-2.87107 -2.92209,-4.84634 L 163.09623,579.29596 c -9.30702,4.99326 -20.05059,11.12107 -22.92167,13.53098 -2.47928,2.04261 -4.36681,7.2991 -1.67734,31.65528 3.3302,30.04528 18.52425,86.65055 26.68855,94.88219 9.82123,1.7304 31.57774,-1.29372 42.24785,-4.43211 z M 361.41056,443.9861 c 19.09357,-5.35648 38.78706,-10.04162 58.96008,-13.97379 -28.94133,1.0611 -57.90102,2.40583 -86.81175,4.04032 -16.80405,0.92846 -33.51627,2.06913 -50.23462,3.33837 -8.37652,0.64481 -16.69794,1.31412 -24.9908,2.22625 -2.37522,0.22854 -4.70146,0.48566 -7.07872,0.79786 C 229.44723,453.48697 145.80856,506.07641 88.391148,574.8414 144.18427,535.99721 241.38862,477.63502 361.41056,443.9861 Z m -10.77826,49.74489 c 16.22249,-16.12658 32.96532,-29.43107 47.74718,-39.82774 -56.97461,13.24938 -109.42121,32.70617 -155.36657,53.87499 29.9004,-4.83614 66.10002,-9.87838 107.61939,-14.04725 z m 218.68121,-65.71231 c -11.53123,-0.18365 -23.08083,-0.28772 -34.60594,-0.31221 h -0.0245 c -16.92037,0.0245 -33.87542,0.20814 -50.857,0.54484 l -31.28594,14.85123 -0.43668,0.23874 c -4.7035,2.29972 -45.78824,23.06247 -84.44674,60.09668 34.65491,-18.24673 85.58129,-42.08257 145.50656,-60.56397 17.95085,-5.50748 36.76282,-10.58645 56.15022,-14.85531 z m -19.04459,93.92108 c 9.11725,-5.50953 17.87535,-11.82711 26.19269,-18.55486 -11.91078,-0.20405 -24.00112,-0.36322 -36.32205,-0.36322 -50.59581,0 -97.85733,2.07322 -140.69491,5.30547 -42.97634,21.04027 -69.25269,38.35038 -69.8669,38.79114 l -41.26838,27.57007 28.34344,-40.73988 c 4.67698,-6.75835 9.63759,-13.17388 14.75737,-19.27925 -47.59618,5.32587 -87.23007,11.64346 -116.84275,17.10809 l 15.16344,123.13585 52.17316,36.59957 165.62449,-36.88117 31.00638,-102.30576 c 0.52035,-1.68551 1.65286,-3.1037 3.12819,-3.96278 0.48974,-0.3122 1.006,-0.54075 1.57532,-0.69787 0.95498,-0.25915 17.52029,-4.99326 36.61385,-7.32359 z m 16.74284,393.10462 c 5.26669,-0.41628 10.564,-1.08967 15.88987,-1.88753 -6.90119,-7.19095 -13.00043,-13.87584 -17.80596,-19.28538 -2.35278,5.40954 -5.47076,12.52499 -9.58454,21.69529 h 1.21822 c 3.27715,0 6.8665,-0.3571 10.28241,-0.52238 z m 86.84235,37.29336 c -22.47682,-1.6549 -42.91716,-11.02313 -59.40696,-27.3803 -0.85092,-0.87336 -1.67938,-1.70999 -2.50581,-2.55887 -7.98065,1.60184 -16.06945,2.79149 -24.36639,3.51998 -3.48528,0.13059 -6.791,0.4326 -10.43545,0.4326 l -5.40545,0.053 -2.06097,-0.053 c -21.94016,32.69189 -70.66885,39.05845 -72.8951,39.34617 -2.01608,0.22854 -3.66894,0.51626 -5.94621,0.92641 27.164,7.45827 54.88099,10.69052 82.22252,8.85197 27.41295,-1.83446 63.02693,-7.79087 100.79982,-23.13796 z M 635.95224,441.99247 c 1.8814,-2.35481 3.63833,-4.62596 5.21364,-6.69918 -16.38165,1.65694 -32.5062,4.03624 -48.26956,7.03587 -53.97498,10.1212 -103.8219,26.94566 -145.2923,44.18027 29.3821,-1.42635 60.28237,-2.27523 92.53554,-2.27523 19.50576,0 38.47077,0.33261 56.91543,0.87744 15.86743,-15.27158 29.25354,-30.89619 38.89725,-43.11917 z m 149.1102,-4.62596 -0.15305,-0.0592 c -16.33268,-1.21005 -32.65924,-2.32624 -49.04497,-3.2547 -22.73394,-1.2978 -45.47603,-2.38338 -68.21405,-3.3404 -1.32228,1.9671 -4.00562,5.84621 -7.85617,11.1272 -12.37195,16.76936 -36.92198,47.54108 -68.39769,73.63378 44.55573,-7.99901 121.82784,-27.79658 188.68083,-74.51327 1.67938,-1.19373 3.33224,-2.43439 4.9851,-3.59343 z m 75.03973,257.92536 -7.00322,4.91368 -18.86298,13.24938 -20.44034,14.33905 c -1.39167,0.96315 -3.0935,1.40391 -4.75656,1.22026 l -203.37493,-23.16041 -14.80226,-1.68755 c -2.74252,-0.3122 -5.04428,-2.23034 -5.84622,-4.88919 L 553.18489,594.30431 c -5.31771,-0.7244 -10.05591,-1.08966 -14.0248,-1.08966 -4.04032,0 -8.74382,0.36526 -14.06154,1.08966 L 494.1942,696.24889 c -0.7244,2.3793 -2.68334,4.19336 -5.11978,4.73003 l -216.78961,48.35527 c -0.51014,0.1 -1.02436,0.14896 -1.52022,0.14896 -1.39575,0 -2.79149,-0.41628 -3.9791,-1.26515 l -7.8827,-5.48912 -23.58893,-16.53674 v -0.0531 l -9.53352,-6.67468 c 0.67339,2.14667 1.44472,4.24845 2.19769,6.34207 l -0.0306,0.0245 c 1.83651,5.45851 20.10568,58.09896 57.23784,109.62935 39.76449,-11.75162 74.15413,-22.67068 85.13645,-26.16617 22.39928,-34.57737 54.28719,-68.8711 76.9497,-70.06075 3.89748,-0.18365 7.96024,-0.30609 11.99036,-0.30609 11.08435,0 21.68304,0.80195 31.49,1.96711 -8.33979,-7.58682 -10.04366,-16.49185 -11.26188,-20.42401 0,0 28.91684,22.64618 65.73271,17.91615 36.82812,-4.76675 59.69061,-26.0172 59.69061,-26.0172 0,0 -0.10407,15.51034 -16.14903,27.50886 30.85538,-9.34171 43.61911,-12.54948 52.35069,-12.54948 9.63963,0 14.3921,4.03624 18.55077,7.5909 0.80195,0.64482 1.60389,1.33862 2.5303,2.09362 23.72157,18.7079 52.24663,41.40919 60.59866,48.06347 9.66411,1.13455 40.30319,4.62596 59.60898,6.41553 11.13536,1.00192 21.1831,1.85896 31.03087,1.85896 3.17716,0 6.15434,-0.12856 8.96624,-0.31221 12.7719,-24.39495 24.24191,-52.0446 33.97949,-83.253 1.31208,-4.79125 2.58947,-9.63147 3.72199,-14.49413 z m -11.49859,-59.21516 14.9349,-104.72178 c -42.1193,-7.68069 -103.71375,-16.97342 -179.16976,-22.76863 -68.10997,23.52772 -125.16008,30.53502 -128.60048,30.76764 l -3.97502,0.2816 c 21.72794,1.8712 42.19276,7.7215 43.22325,8.02962 2.25278,0.67339 4.00971,2.40379 4.70758,4.66065 l 30.87579,101.81398 165.3939,18.81809 z m 40.28279,22.05443 16.89588,-118.36501 c -7.5154,-1.62633 -17.12442,-3.64036 -28.60464,-5.84213 l -15.2675,107.09088 c -0.2816,1.88956 -1.32229,3.62404 -2.87108,4.71983 l -57.25825,40.10934 c -1.34677,0.95703 -3.06901,1.39983 -4.72799,1.21618 l -172.5522,-19.64044 c -2.76088,-0.31425 -5.06264,-2.2283 -5.87071,-4.86471 L 587.55616,560.06567 c -8.32754,-2.15279 -29.6943,-7.14605 -48.39607,-7.14605 -18.78748,0 -40.13587,4.99326 -48.4573,7.14605 l -31.08392,102.48941 c -0.54483,1.77938 -1.78141,3.26287 -3.4057,4.1097 -0.52035,0.28772 -1.11007,0.49178 -1.70796,0.62441 l -172.5522,38.45445 c -0.54483,0.11019 -1.00396,0.16324 -1.5243,0.16324 -1.39575,0 -2.78742,-0.41627 -3.95462,-1.24882 l -57.23376,-40.13995 c -1.5998,-1.11619 -2.66294,-2.87516 -2.91597,-4.84022 l -15.42667,-125.3417 c -6.41145,1.24475 -12.19237,2.43439 -17.36521,3.51589 -3.66893,2.0222 -7.28889,4.04032 -10.85172,6.06456 l 16.37961,132.81425 83.17955,58.36219 209.86393,-46.76362 30.97986,-102.22618 c 0.77745,-2.56907 2.91597,-4.45863 5.52993,-4.87491 7.85821,-1.26311 14.72267,-1.90793 20.54645,-1.90793 5.75643,0 12.65354,0.64482 20.48523,1.90793 2.63845,0.41628 4.77696,2.30584 5.52993,4.87491 l 31.77567,104.76464 211.03318,24.03377 z m 23.35631,-136.16689 14.86143,-56.44407 c -21.5504,-4.88919 -61.23939,-13.06982 -115.29395,-20.73214 -27.59864,19.87919 -57.80716,35.76702 -87.49126,48.44709 90.8235,8.85606 157.56222,22.02586 187.92378,28.72912 z m 25.76213,88.22382 c 2.27727,-25.25403 0.2918,-30.6901 -2.27319,-32.76127 -2.55887,-2.14872 -11.2129,-7.0624 -19.63839,-11.64346 l -13.87176,97.30637 c -0.25712,1.88956 -1.32025,3.60568 -2.88944,4.71167 l -19.85266,13.90236 c -1.57327,7.96433 -2.13851,11.72305 -4.07909,19.51189 11.34146,2.63845 29.94529,4.69125 38.80746,2.97514 8.03983,-8.74586 21.03007,-63.04733 23.79707,-94.0027 z M 997.8709,370.07276 c 0.73257,14.56963 0.34282,29.16171 -1.29167,43.65993 -1.52023,14.46964 -4.26274,28.80461 -8.0786,43.01714 -1.99567,7.06444 -4.29335,14.05133 -7.00526,20.98313 -1.37126,3.46692 -2.84251,6.91344 -4.44639,10.35383 -0.80194,1.70591 -1.65286,3.39142 -2.60784,5.12794 l -1.42024,2.55887 c -0.52034,0.93253 -0.93253,1.63041 -1.73448,2.87107 l -1.4692,2.28543 -2.30176,1.17945 c -2.45684,1.27535 -4.4668,2.22626 -6.69917,3.26899 l -6.47472,2.92412 c -4.3464,1.861 -8.70709,3.61997 -13.08002,5.32588 -3.0486,1.19577 -5.73602,2.28543 -8.29081,3.37305 l -7.20932,27.42928 c -0.17753,-0.049 -2.35073,-0.59993 -6.40533,-1.57532 l -0.39179,2.86495 c 7.95616,4.1648 23.58485,12.61069 28.91276,17.01219 10.72113,8.87646 11.4741,22.92983 9.09888,49.19394 -1.21821,13.48813 -5.68297,39.72367 -11.88629,63.82275 -10.70276,41.48876 -16.38777,46.35755 -23.7236,48.24099 -3.72199,0.95702 -9.45598,1.91405 -15.01448,1.91405 -11.31289,0 -26.71916,0.31425 -37.0791,-2.19157 -2.65886,9.43762 -10.25792,34.05703 -25.29893,64.80018 0.75297,-0.3673 1.49982,-0.66931 2.1732,-1.03253 18.55078,-9.75798 54.21373,-25.31728 55.70947,-25.98659 l 28.16795,-12.26379 -14.42067,27.1742 c -0.33669,0.58972 -31.26757,58.85193 -50.2081,96.9003 -18.80788,37.67903 -54.07905,45.88618 -75.19481,50.74477 -3.17716,0.75501 -6.19312,1.45288 -8.64792,2.12831 -15.14915,4.26478 -45.8168,11.59245 -72.86653,18.10797 l -0.98151,0.21426 c -16.64285,10.30281 -34.80591,19.49147 -54.67897,27.04769 -72.71349,27.58435 -149.34691,26.03352 -218.83222,0.46116 -11.2884,1.45289 -26.12535,3.2343 -45.8821,5.48504 -8.58874,0.95703 -16.93057,1.45288 -24.88673,1.45288 -66.19796,0 -101.28752,-33.6734 -126.89661,-66.6428 -27.41703,-35.30586 -60.95167,-87.71776 -62.3719,-89.90933 l -19.4323,-30.38605 32.8633,14.80021 c 15.73683,7.09709 62.50862,28.78013 75.89064,34.99365 1.08354,-0.30812 2.14464,-0.62033 3.20369,-0.93254 -22.2442,-31.77975 -40.48685,-68.0161 -53.38118,-108.15197 -10.96191,3.30775 -27.8333,5.8707 -40.95617,5.8707 -4.80349,0 -9.0948,-0.36118 -12.39643,-1.14068 -7.34196,-1.67938 -15.71848,-8.76626 -27.10891,-48.96539 -6.61551,-23.33998 -11.5496,-48.81235 -12.99636,-61.92706 -2.84658,-25.60093 -2.32624,-39.31761 8.29286,-48.17366 6.40533,-5.35444 28.00471,-16.71426 32.47559,-19.04051 l -0.95499,-7.89902 C 91.025517,591.84135 49.895892,627.53287 49.069463,628.26135 L 0,671.40093 34.960998,616.17713 c 27.67414,-43.77012 59.633467,-79.14943 89.040052,-106.40118 -1.21822,-0.49177 -2.35074,-0.98151 -3.54447,-1.47329 l -6.48491,-2.92412 c -2.22218,-1.04273 -4.23825,-1.99364 -6.68897,-3.26899 l -2.30176,-1.17945 -1.46921,-2.28543 c -0.82847,-1.24066 -1.18965,-1.93854 -1.73244,-2.87107 l -1.44676,-2.55887 c -0.906008,-1.73652 -1.787532,-3.42203 -2.583352,-5.12794 -1.628371,-3.44039 -3.099618,-6.88691 -4.440269,-10.35383 -2.718032,-6.9318 -5.015708,-13.91869 -7.011381,-20.98313 -3.846465,-14.21253 -6.558375,-28.5475 -8.084718,-43.01714 -1.603884,-14.49822 -2.014037,-29.0903 -1.291677,-43.65993 0.385666,-7.27461 1.08558,-14.5431 2.089538,-21.76875 0.520344,-3.61792 1.065175,-7.24808 1.787535,-10.84356 0.746847,-3.67505 1.475328,-7.09096 2.583355,-11.10271 l 0.773374,-2.81598 2.014038,-1.58756 c 11.45165,-9.00297 23.797067,-15.80621 36.356747,-21.83608 10.3375,-4.86471 20.87702,-9.16418 31.5002,-13.07594 C 183.68961,204.59111 234.69149,131.47665 301.71996,80.51722 371.02366,27.847385 452.51974,0 537.39704,0 c 84.88137,0 166.37745,27.847385 235.67504,80.51722 67.02643,50.95943 118.03647,124.07389 147.67976,206.50047 10.64358,3.93625 21.15861,8.20511 31.5206,13.10043 12.54947,6.02987 24.90714,12.83311 36.34654,21.83608 l 2.02016,1.58756 0.77746,2.81598 c 1.13863,4.01175 1.85691,7.42766 2.57927,11.10271 0.73256,3.59548 1.29576,7.22564 1.78141,10.84356 1.0162,7.22565 1.73856,14.49414 2.09362,21.76875 z M 202.13631,278.50853 c -12.55967,5.06673 -25.03569,10.29874 -37.23418,16.04088 -12.22299,5.59319 -24.23783,11.59858 -35.71193,18.29775 -10.59053,6.10741 -20.74846,12.81271 -29.714704,20.373 -0.385667,2.27727 -0.746847,4.75656 -1.052931,7.11137 -0.391789,3.33632 -0.777456,6.67877 -1.040688,10.04162 -0.589724,6.72774 -0.826429,13.51262 -0.895808,20.28933 -0.132637,13.5616 0.79786,27.12931 2.499691,40.55623 1.861,13.46365 4.31784,26.84159 7.95616,39.75837 1.81202,6.47063 3.82606,12.86168 6.20332,19.01602 1.16312,3.1139 2.4548,6.13802 3.80157,9.08868 0.66727,1.47328 1.36718,2.92617 2.06505,4.31987 l 0.855,1.63041 c 1.006,0.52035 2.04057,1.03253 3.02004,1.5039 l 6.01966,2.87107 c 3.36285,1.55695 7.98677,3.7526 11.80875,5.4626 l 0.62237,-0.56932 -11.1374,-42.54986 c 2.35073,-0.64482 23.54404,-6.13394 60.04974,-13.0943 -2.94657,-0.54075 -5.94212,-1.19169 -8.86217,-1.88957 -8.29286,-2.06913 -16.51429,-4.60759 -24.43984,-7.81536 -3.93217,-1.68143 -7.83781,-3.49141 -11.52512,-5.59319 -3.69954,-2.12219 -7.34195,-4.52801 -10.15997,-7.73578 40.10118,13.12083 122.96648,7.17054 196.64108,-0.44076 67.38149,-6.96241 134.89766,-11.4639 202.77909,-11.61898 67.87735,0.15508 135.45269,4.65657 202.78521,11.61898 73.71745,7.6113 156.59091,13.56159 196.68597,0.44076 -2.81802,3.20777 -6.45635,5.61359 -10.15386,7.73578 -3.68934,2.10178 -7.59498,3.91176 -11.52102,5.59319 -7.96025,3.20777 -16.15312,5.74623 -24.47046,7.81536 -1.21822,0.2816 -2.4548,0.56932 -3.6975,0.82847 40.02976,7.42766 63.33301,13.48201 65.8123,14.1554 l -10.66808,40.52766 c 2.14872,-0.95703 4.31172,-1.88548 6.42574,-2.87108 l 6.02987,-2.87107 c 0.97947,-0.47137 2.01404,-0.98355 3.02004,-1.5039 l 0.82643,-1.63041 c 0.72236,-1.3937 1.42023,-2.84659 2.09362,-4.31987 1.34677,-2.95066 2.63436,-5.97478 3.82605,-9.08868 2.35278,-6.15434 4.38722,-12.54539 6.16863,-19.01602 3.64853,-12.91678 6.12986,-26.29472 7.96025,-39.75837 1.73448,-13.42692 2.64049,-26.99463 2.50989,-40.55623 -0.049,-6.77671 -0.30608,-13.56159 -0.8754,-20.28933 -0.2816,-3.36285 -0.6489,-6.7053 -1.06518,-10.04162 -0.2816,-2.35481 -0.67134,-4.8341 -1.05905,-7.11137 -8.97032,-7.56029 -19.11805,-14.26559 -29.71675,-20.373 -11.47205,-6.69917 -23.48078,-12.70456 -35.73437,-18.29775 -12.16789,-5.74214 -24.66839,-10.97415 -37.22806,-16.04088 -6.28086,-2.53846 -12.61886,-5.02795 -18.96909,-7.38276 -6.3278,-2.4548 -12.73925,-4.78104 -19.14458,-7.11137 13.45548,2.22626 26.79669,5.30139 39.99507,8.69281 8.60506,2.22626 17.18768,4.74023 25.65806,7.40317 C 839.73733,121.84213 695.19596,18.788093 537.39704,18.788093 c -157.82953,0 -302.34029,103.054037 -362.7757,261.322287 8.49487,-2.66294 17.04892,-5.17691 25.62745,-7.40317 13.23306,-3.39142 26.55999,-6.46655 40.0318,-8.69281 -6.44206,2.33033 -12.82291,4.65657 -19.17927,7.11137 -6.33187,2.35481 -12.65762,4.8443 -18.96501,7.38276 z m 359.99237,578.90213 7.95209,9.49679 c 0.17752,0.22854 17.85698,21.29738 39.46044,42.75188 14.3717,14.26558 31.72874,21.48714 51.62425,21.48714 6.79712,0 13.93094,-0.87948 21.13821,-2.61804 6.68897,-1.63245 13.95134,-3.36693 21.39736,-5.15243 26.87016,-6.43594 57.30723,-13.74116 72.06459,-17.88147 2.91597,-0.82847 6.17271,-1.57735 9.60494,-2.36093 19.6384,-4.54026 46.56365,-10.80887 60.8272,-39.43392 10.72725,-21.48102 25.19281,-49.3633 35.91598,-69.79752 -9.29681,4.29335 -19.04459,8.94992 -25.97027,12.60049 -10.67011,5.61155 -24.6439,8.32959 -42.70902,8.32959 -10.74358,0 -21.2933,-0.90193 -32.97145,-1.94262 -23.33182,-2.14872 -62.81675,-6.79916 -63.22282,-6.85426 l -3.02412,-0.33669 -2.38134,-1.91405 c -0.35709,-0.25711 -34.95691,-27.87208 -62.92285,-49.89793 -1.13252,-0.93254 -2.163,-1.7855 -3.0935,-2.56295 -2.94453,-2.51398 -2.94453,-2.51398 -4.7035,-2.51398 -8.97032,0 -35.03446,8.10104 -92.14783,25.83355 l -3.50569,1.11619 -3.44039,-1.29984 c -0.39179,-0.12856 -37.85656,-14.04725 -82.75919,-14.04725 -3.67302,0 -7.33583,0.0939 -10.90478,0.27752 -4.50149,0.23262 -29.73919,12.23727 -62.01685,63.38606 l -2.09362,3.28123 -3.6975,1.18965 c -0.53463,0.18365 -56.09105,18.14879 -115.00215,35.02426 l -3.82606,1.08558 -3.61996,-1.68755 c -0.38567,-0.15304 -23.43589,-10.86397 -45.36992,-20.96476 11.96383,17.70394 27.26194,39.78285 40.72151,57.10316 23.51139,30.333 53.15467,58.35812 109.97216,58.35812 7.12973,0 14.70227,-0.44076 22.4809,-1.32433 57.79696,-6.54409 72.68288,-9.18254 80.69414,-10.58033 2.70783,-0.46729 4.85654,-0.85907 7.59906,-1.19169 0.43464,-0.053 47.77167,-6.18291 61.0537,-36.02821 13.69424,-30.66357 16.45716,-37.96879 16.56123,-38.24631 l 4.83614,-12.91065 c 0,0 0.59788,-3.34857 1.57939,-4.38313 l 0.0245,0.0245 0.0939,0.0796 c 1.5243,1.08967 3.78116,4.50557 3.78116,4.50557 z"
     clip-rule="evenodd"
     fill-rule="evenodd" />
</svg>
