<svg width="1000" height="500" viewBox="0 0 1000 500" fill="none" xmlns="http://www.w3.org/2000/svg">
<g clip-path="url(#clip0)">
<path d="M135.416 208.539C123.397 228.688 111.882 248.201 100.127 267.566C97.1081 272.538 95.6139 276.588 98.0256 282.907C104.684 300.366 95.291 317.355 77.6373 321.967C60.9884 326.317 44.7676 315.405 41.4643 297.629C38.5372 281.896 50.7806 266.472 68.176 264.013C69.6328 263.805 71.1214 263.781 73.5705 263.598L100.031 219.35C83.3886 202.848 73.4833 183.558 75.6753 159.654C77.2249 142.757 83.8881 128.154 96.0659 116.186C119.39 93.2668 154.974 89.5557 182.438 107.147C208.815 124.045 220.895 156.96 210.598 185.132C202.833 183.033 195.015 180.916 186.42 178.591C189.653 162.927 187.262 148.863 176.669 136.813C169.67 128.858 160.689 124.688 150.478 123.152C130.006 120.068 109.907 133.184 103.942 153.222C97.1726 175.963 107.419 194.541 135.416 208.54V208.539Z" fill="#C73A63"/>
<path d="M169.742 184.71C178.209 199.608 186.807 214.73 195.328 229.713C238.398 216.425 270.871 240.201 282.521 265.657C296.593 296.406 286.973 332.825 259.338 351.797C230.972 371.27 195.1 367.943 169.968 342.927C176.373 337.58 182.81 332.21 189.687 326.472C214.509 342.505 236.22 341.75 252.337 322.764C266.082 306.568 265.784 282.418 251.641 266.562C235.319 248.264 213.457 247.706 187.031 265.27C176.068 245.876 164.916 226.636 154.3 207.101C150.721 200.517 146.769 196.697 138.702 195.304C125.229 192.974 116.531 181.437 116.009 168.511C115.496 155.727 123.048 144.171 134.852 139.669C146.545 135.208 160.267 138.808 168.132 148.723C174.56 156.823 176.602 165.939 173.219 175.929C172.279 178.715 171.061 181.411 169.742 184.712V184.71Z" fill="#4B4B4B"/>
<path d="M189.981 306.492H138.132C133.162 326.876 122.428 343.334 103.932 353.799C89.5534 361.933 74.0565 364.691 57.5627 362.035C27.1943 357.151 2.36303 329.888 0.176705 299.19C-2.29736 264.413 21.6718 233.501 53.6206 226.558C55.8261 234.546 58.0555 242.611 60.2611 250.58C30.9484 265.494 20.803 284.285 29.0068 307.783C36.2285 328.461 56.7426 339.795 79.0171 335.412C101.764 330.936 113.233 312.084 111.832 281.828C133.397 281.828 154.979 281.606 176.546 281.938C184.967 282.07 191.468 281.199 197.812 273.795C208.256 261.612 227.481 262.712 238.73 274.218C250.226 285.977 249.675 304.897 237.51 316.16C225.773 327.028 207.23 326.447 196.249 314.736C193.992 312.323 192.213 309.457 189.981 306.492Z" fill="#4A4A4A"/>
<path d="M447.72 236.976L424.824 312H409.416L393.72 264.912L378.024 312H362.616L339.576 236.976H359.448L371.544 283.344L386.808 236.976H400.488L415.896 283.344L427.992 236.976H447.72ZM513.41 280.32H466.466C466.466 285.312 467.906 289.344 470.786 292.416C473.762 295.488 477.794 297.024 482.882 297.024C489.506 297.024 495.17 294.672 499.874 289.968L511.25 301.056C507.122 305.184 503.09 308.112 499.154 309.84C494.642 311.856 489.17 312.864 482.738 312.864C459.602 312.864 448.034 300.048 448.034 274.416C448.034 262.416 451.058 252.96 457.106 246.048C462.962 239.424 470.834 236.112 480.722 236.112C490.898 236.112 498.962 239.52 504.914 246.336C510.578 252.864 513.41 261.408 513.41 271.968V280.32ZM494.978 267.504C494.882 264.432 494.306 261.744 493.25 259.44C490.946 254.256 486.77 251.664 480.722 251.664C474.674 251.664 470.498 254.256 468.194 259.44C467.138 261.744 466.562 264.432 466.466 267.504H494.978ZM586.452 274.416C586.452 282.096 586.116 287.856 585.444 291.696C584.388 297.936 582.18 302.736 578.82 306.096C574.308 310.608 568.212 312.864 560.532 312.864C552.852 312.864 546.612 310.224 541.812 304.944V312H523.668V209.472H542.388V243.6C546.9 238.608 552.948 236.112 560.532 236.112C568.212 236.112 574.308 238.368 578.82 242.88C582.18 246.24 584.388 251.04 585.444 257.28C586.116 261.12 586.452 266.832 586.452 274.416ZM567.732 274.416C567.732 267.792 567.204 263.04 566.148 260.16C564.228 255.36 560.532 252.96 555.06 252.96C549.588 252.96 545.892 255.36 543.972 260.16C542.916 263.04 542.388 267.792 542.388 274.416C542.388 281.04 542.916 285.792 543.972 288.672C545.892 293.568 549.588 296.016 555.06 296.016C560.532 296.016 564.228 293.568 566.148 288.672C567.204 285.792 567.732 281.04 567.732 274.416ZM659.022 312H640.302V266.208C640.302 261.6 639.006 258.144 636.414 255.84C634.206 253.92 631.422 252.96 628.062 252.96C624.702 252.96 621.966 253.92 619.854 255.84C617.262 258.24 615.966 261.696 615.966 266.208V312H597.246V209.472H615.966V243.888C621.054 238.704 627.054 236.112 633.966 236.112C641.934 236.112 648.174 238.704 652.686 243.888C656.91 248.784 659.022 255.312 659.022 263.472V312ZM732.567 274.416C732.567 281.616 731.991 287.328 730.839 291.552C729.591 296.256 727.335 300.288 724.071 303.648C718.215 309.792 710.439 312.864 700.743 312.864C691.143 312.864 683.415 309.792 677.559 303.648C674.295 300.288 672.039 296.256 670.791 291.552C669.639 287.328 669.063 281.616 669.063 274.416C669.063 260.976 671.943 251.232 677.703 245.184C683.463 239.136 691.143 236.112 700.743 236.112C710.439 236.112 718.167 239.136 723.927 245.184C729.687 251.232 732.567 260.976 732.567 274.416ZM713.847 274.416C713.847 265.2 712.407 259.152 709.527 256.272C707.319 254.064 704.391 252.96 700.743 252.96C697.191 252.96 694.311 254.064 692.103 256.272C689.223 259.152 687.783 265.2 687.783 274.416C687.783 283.728 689.223 289.824 692.103 292.704C694.311 294.912 697.191 296.016 700.743 296.016C704.391 296.016 707.319 294.912 709.527 292.704C712.407 289.824 713.847 283.728 713.847 274.416ZM803.754 274.416C803.754 281.616 803.178 287.328 802.026 291.552C800.778 296.256 798.522 300.288 795.258 303.648C789.402 309.792 781.626 312.864 771.93 312.864C762.33 312.864 754.602 309.792 748.746 303.648C745.482 300.288 743.226 296.256 741.978 291.552C740.826 287.328 740.25 281.616 740.25 274.416C740.25 260.976 743.13 251.232 748.89 245.184C754.65 239.136 762.33 236.112 771.93 236.112C781.626 236.112 789.354 239.136 795.114 245.184C800.874 251.232 803.754 260.976 803.754 274.416ZM785.034 274.416C785.034 265.2 783.594 259.152 780.714 256.272C778.506 254.064 775.578 252.96 771.93 252.96C768.378 252.96 765.498 254.064 763.29 256.272C760.41 259.152 758.97 265.2 758.97 274.416C758.97 283.728 760.41 289.824 763.29 292.704C765.498 294.912 768.378 296.016 771.93 296.016C775.578 296.016 778.506 294.912 780.714 292.704C783.594 289.824 785.034 283.728 785.034 274.416ZM882.862 312H859.678L841.246 280.752L833.326 289.68V312H814.606V209.472H833.326V267.648L858.238 236.976H880.846L854.062 267.216L882.862 312ZM944.491 288.384C944.491 296.352 941.419 302.496 935.275 306.816C929.515 310.848 921.979 312.864 912.667 312.864C905.659 312.864 899.947 312.24 895.531 310.992C889.963 309.36 885.019 306.384 880.699 302.064L892.939 289.824C897.643 294.528 904.315 296.88 912.955 296.88C921.787 296.88 926.203 294.288 926.203 289.104C926.203 284.976 923.563 282.672 918.283 282.192L906.475 281.04C891.883 279.6 884.587 272.592 884.587 260.016C884.587 252.528 887.515 246.576 893.371 242.16C898.747 238.128 905.467 236.112 913.531 236.112C926.395 236.112 935.947 239.04 942.187 244.896L930.667 256.56C926.923 253.2 921.115 251.52 913.243 251.52C906.139 251.52 902.587 253.92 902.587 258.72C902.587 262.56 905.179 264.72 910.363 265.2L922.171 266.352C937.051 267.792 944.491 275.136 944.491 288.384Z" fill="black"/>
</g>
<defs>
<clipPath id="clip0">
<rect width="1000" height="500" fill="white"/>
</clipPath>
</defs>
</svg>
