<?xml version="1.0" encoding="UTF-8" standalone="no"?>
<svg
   xmlns:dc="http://purl.org/dc/elements/1.1/"
   xmlns:cc="http://creativecommons.org/ns#"
   xmlns:rdf="http://www.w3.org/1999/02/22-rdf-syntax-ns#"
   xmlns:svg="http://www.w3.org/2000/svg"
   xmlns="http://www.w3.org/2000/svg"
   xmlns:sodipodi="http://sodipodi.sourceforge.net/DTD/sodipodi-0.dtd"
   xmlns:inkscape="http://www.inkscape.org/namespaces/inkscape"
   inkscape:version="1.0beta1 (32d4812, 2019-09-19)"
   sodipodi:docname="webhook.svg"
   id="svg38"
   version="1.1"
   fill="none"
   viewBox="0 0 1000 1000"
   height="1000"
   width="1000">
  <metadata
     id="metadata42">
    <rdf:RDF>
      <cc:Work
         rdf:about="">
        <dc:format>image/svg+xml</dc:format>
        <dc:type
           rdf:resource="http://purl.org/dc/dcmitype/StillImage" />
      </cc:Work>
    </rdf:RDF>
  </metadata>
  <sodipodi:namedview
     inkscape:current-layer="svg38"
     inkscape:window-maximized="0"
     inkscape:window-y="23"
     inkscape:window-x="0"
     inkscape:cy="560"
     inkscape:cx="400"
     inkscape:zoom="0.35"
     showgrid="false"
     id="namedview40"
     inkscape:window-height="1104"
     inkscape:window-width="1600"
     inkscape:pageshadow="2"
     inkscape:pageopacity="0"
     guidetolerance="10"
     gridtolerance="10"
     objecttolerance="10"
     borderopacity="1"
     inkscape:document-rotation="0"
     bordercolor="#666666"
     pagecolor="#ffffff" />
  <path
     inkscape:connector-curvature="0"
     style="fill:url(#paint0_radial);stroke-width:10"
     id="path10"
     fill="url(#paint0_radial)"
     d="M 913.75,0 H 86.2503 L 0,86.2503 V 913.75 L 86.2503,1000 H 913.75 L 1000,913.75 V 86.2503 Z" />
  <g
     transform="scale(10)"
     id="g14"
     filter="url(#filter0_d)">
    <path
       inkscape:connector-curvature="0"
       id="path12"
       fill="white"
       d="m 12.8105,51.7803 1.1387,-9.4209 h 2.7715 L 14.5508,58 H 11.8223 L 10.3398,48.7617 8.91113,58 H 6.18262 L 4.03418,42.3594 h 2.76074 l 1.11719,9.3564 1.33203,-9.3564 h 2.15916 z m 11.3116,6.4345 c -0.8952,0 -1.708,-0.1468 -2.4385,-0.4404 -0.7305,-0.2936 -1.3571,-0.6911 -1.8799,-1.1924 -0.5228,-0.5084 -0.9274,-1.1028 -1.2139,-1.7832 -0.2793,-0.6875 -0.4189,-1.4215 -0.4189,-2.2021 V 52.167 c 0,-0.888 0.1396,-1.6973 0.4189,-2.4277 0.2793,-0.7377 0.6696,-1.3715 1.1709,-1.9014 0.5013,-0.53 1.0957,-0.9417 1.7832,-1.2354 0.6875,-0.2936 1.4359,-0.4404 2.2452,-0.4404 0.8379,0 1.5826,0.1397 2.2343,0.419 0.6589,0.2721 1.2139,0.6588 1.6651,1.1601 0.4583,0.5013 0.8056,1.1065 1.042,1.8154 0.2363,0.7019 0.3545,1.4789 0.3545,2.3311 v 1.2676 h -7.8848 c 0.0573,0.3939 0.1719,0.7555 0.3437,1.0849 0.1791,0.3223 0.4047,0.6016 0.6768,0.8379 0.2721,0.2364 0.5837,0.419 0.9346,0.5479 0.3509,0.1289 0.734,0.1933 1.1494,0.1933 0.2936,0 0.5836,-0.0286 0.8701,-0.0859 0.2936,-0.0573 0.5729,-0.1396 0.8379,-0.2471 0.265,-0.1146 0.512,-0.2542 0.7412,-0.4189 0.2292,-0.1647 0.4297,-0.3581 0.6016,-0.5801 l 1.4931,1.6113 c -0.1862,0.265 -0.4297,0.5264 -0.7304,0.7842 -0.2937,0.2507 -0.6446,0.4762 -1.0528,0.6768 -0.401,0.1933 -0.8486,0.3509 -1.3427,0.4726 -0.4942,0.1218 -1.0277,0.1826 -1.6006,0.1826 z m -0.3545,-9.6357 c -0.3366,0 -0.6446,0.0609 -0.9238,0.1826 -0.2793,0.1146 -0.5264,0.2829 -0.7413,0.5049 -0.2076,0.222 -0.3831,0.487 -0.5263,0.7949 -0.1433,0.308 -0.2507,0.6517 -0.3223,1.0313 h 4.8984 V 50.8564 C 26.138,50.5413 26.0771,50.2441 25.9697,49.9648 25.8623,49.6855 25.7083,49.4456 25.5078,49.2451 25.3073,49.0374 25.0602,48.8763 24.7666,48.7617 24.4801,48.64 24.1471,48.5791 23.7676,48.5791 Z m 18.4013,3.7275 c 0,0.8666 -0.0966,1.6615 -0.29,2.3848 -0.1862,0.7233 -0.4691,1.3464 -0.8486,1.8691 -0.3796,0.5228 -0.8522,0.931 -1.418,1.2247 -0.5658,0.2864 -1.2246,0.4296 -1.9766,0.4296 -0.6803,0 -1.2711,-0.1253 -1.7724,-0.3759 C 35.3691,57.5811 34.943,57.223 34.585,56.7646 L 34.4453,58 H 31.7598 V 41.5 h 2.9863 v 5.9297 c 0.3437,-0.4011 0.7484,-0.7126 1.2139,-0.9346 0.4726,-0.222 1.024,-0.333 1.6543,-0.333 0.7591,0 1.4215,0.1468 1.9873,0.4404 0.5729,0.2937 1.0491,0.7019 1.4287,1.2246 0.3795,0.5228 0.6624,1.1495 0.8486,1.8799 0.1934,0.7233 0.29,1.5147 0.29,2.3741 z m -2.9863,-0.2255 c 0,-0.4727 -0.0358,-0.9203 -0.1074,-1.3428 -0.0716,-0.4225 -0.1969,-0.7914 -0.376,-1.1065 -0.1719,-0.3222 -0.4082,-0.5765 -0.709,-0.7627 -0.3007,-0.1862 -0.6767,-0.2793 -1.1279,-0.2793 -0.5443,0 -0.9883,0.1146 -1.332,0.3438 -0.3366,0.2292 -0.598,0.5443 -0.7842,0.9453 v 4.6299 c 0.1862,0.401 0.4476,0.7161 0.7842,0.9453 0.3437,0.2292 0.7949,0.3438 1.3535,0.3438 0.4512,0 0.8236,-0.086 1.1172,-0.2579 0.2936,-0.179 0.5263,-0.4225 0.6982,-0.7304 0.1791,-0.3151 0.3044,-0.6839 0.376,-1.1065 0.0716,-0.4297 0.1074,-0.8952 0.1074,-1.3965 z m 8.7119,-4.1036 c 0.3867,-0.5657 0.8558,-1.0097 1.4073,-1.332 0.5586,-0.3223 1.1816,-0.4834 1.8691,-0.4834 0.6087,0 1.1673,0.0931 1.6758,0.2793 0.5084,0.179 0.9453,0.4619 1.3105,0.8486 0.3653,0.3868 0.6481,0.8845 0.8487,1.4932 0.2076,0.6016 0.3115,1.3285 0.3115,2.1807 V 58 h -2.9863 v -7.0576 c 0,-0.4154 -0.0538,-0.7735 -0.1612,-1.0742 -0.1002,-0.3008 -0.247,-0.5443 -0.4404,-0.7305 -0.1934,-0.1862 -0.4261,-0.3223 -0.6983,-0.4082 -0.2721,-0.0931 -0.58,-0.1397 -0.9238,-0.1397 -0.5013,0 -0.9381,0.0896 -1.3105,0.2686 -0.3653,0.179 -0.666,0.4297 -0.9024,0.752 V 58 H 44.9082 V 41.5 h 2.9863 z m 9.8184,4.1036 c 0,-0.8451 0.1217,-1.6257 0.3652,-2.3418 0.2435,-0.7233 0.598,-1.35 1.0635,-1.8799 0.4727,-0.53 1.0456,-0.9453 1.7188,-1.2461 0.6803,-0.3008 1.4573,-0.4512 2.331,-0.4512 0.8737,0 1.6507,0.1504 2.3311,0.4512 0.6803,0.3008 1.2532,0.7161 1.7187,1.2461 0.4727,0.5299 0.8307,1.1566 1.0742,1.8799 0.2435,0.7161 0.3653,1.4967 0.3653,2.3418 v 0.2255 c 0,0.8523 -0.1218,1.64 -0.3653,2.3633 -0.2435,0.7162 -0.598,1.3392 -1.0634,1.8692 -0.4655,0.5299 -1.0385,0.9453 -1.7188,1.2461 -0.6803,0.2936 -1.4538,0.4404 -2.3203,0.4404 -0.8737,0 -1.6543,-0.1468 -2.3418,-0.4404 -0.6803,-0.3008 -1.2568,-0.7162 -1.7295,-1.2461 -0.4655,-0.53 -0.82,-1.153 -1.0635,-1.8692 -0.2435,-0.7233 -0.3652,-1.511 -0.3652,-2.3633 z m 2.9863,0.2255 c 0,0.487 0.0466,0.9454 0.1397,1.375 0.0931,0.4226 0.2399,0.795 0.4404,1.1172 0.2005,0.3151 0.4583,0.5658 0.7734,0.752 0.3223,0.1862 0.709,0.2793 1.1602,0.2793 0.4368,0 0.8128,-0.0931 1.1279,-0.2793 0.3151,-0.1862 0.5694,-0.4369 0.7627,-0.752 0.2005,-0.3222 0.3473,-0.6946 0.4404,-1.1172 0.0931,-0.4296 0.1397,-0.888 0.1397,-1.375 v -0.2255 c 0,-0.4727 -0.0466,-0.9203 -0.1397,-1.3428 -0.0931,-0.4225 -0.2399,-0.7949 -0.4404,-1.1172 -0.1933,-0.3223 -0.4476,-0.5765 -0.7627,-0.7627 -0.3151,-0.1862 -0.6982,-0.2793 -1.1494,-0.2793 -0.444,0 -0.8236,0.0931 -1.1387,0.2793 -0.3151,0.1862 -0.5729,0.4404 -0.7734,0.7627 -0.2005,0.3223 -0.3473,0.6947 -0.4404,1.1172 -0.0931,0.4225 -0.1397,0.8701 -0.1397,1.3428 z m 10.2266,-0.2255 c 0,-0.8451 0.1217,-1.6257 0.3652,-2.3418 0.2435,-0.7233 0.598,-1.35 1.0635,-1.8799 0.4726,-0.53 1.0456,-0.9453 1.7187,-1.2461 0.6804,-0.3008 1.4574,-0.4512 2.3311,-0.4512 0.8737,0 1.6507,0.1504 2.3311,0.4512 0.6803,0.3008 1.2532,0.7161 1.7187,1.2461 0.4727,0.5299 0.8307,1.1566 1.0742,1.8799 0.2435,0.7161 0.3653,1.4967 0.3653,2.3418 v 0.2255 c 0,0.8523 -0.1218,1.64 -0.3653,2.3633 -0.2435,0.7162 -0.598,1.3392 -1.0635,1.8692 -0.4655,0.5299 -1.0384,0.9453 -1.7187,1.2461 -0.6803,0.2936 -1.4538,0.4404 -2.3203,0.4404 -0.8737,0 -1.6543,-0.1468 -2.3418,-0.4404 -0.6804,-0.3008 -1.2569,-0.7162 -1.7295,-1.2461 -0.4655,-0.53 -0.82,-1.153 -1.0635,-1.8692 -0.2435,-0.7233 -0.3652,-1.511 -0.3652,-2.3633 z m 2.9863,0.2255 c 0,0.487 0.0466,0.9454 0.1397,1.375 0.0931,0.4226 0.2399,0.795 0.4404,1.1172 0.2005,0.3151 0.4583,0.5658 0.7734,0.752 0.3223,0.1862 0.709,0.2793 1.1602,0.2793 0.4368,0 0.8128,-0.0931 1.1279,-0.2793 0.3151,-0.1862 0.5693,-0.4369 0.7627,-0.752 0.2005,-0.3222 0.3473,-0.6946 0.4404,-1.1172 0.0931,-0.4296 0.1397,-0.888 0.1397,-1.375 v -0.2255 c 0,-0.4727 -0.0466,-0.9203 -0.1397,-1.3428 -0.0931,-0.4225 -0.2399,-0.7949 -0.4404,-1.1172 -0.1934,-0.3223 -0.4476,-0.5765 -0.7627,-0.7627 -0.3151,-0.1862 -0.6982,-0.2793 -1.1494,-0.2793 -0.444,0 -0.8236,0.0931 -1.1387,0.2793 -0.3151,0.1862 -0.5729,0.4404 -0.7734,0.7627 -0.2005,0.3223 -0.3473,0.6947 -0.4404,1.1172 -0.0931,0.4225 -0.1397,0.8701 -0.1397,1.3428 z m 15.0068,0.8916 -1.3535,1.2569 V 58 H 84.5791 V 41.5 h 2.9863 v 9.4316 l 0.9024,-1.0312 3.2119,-3.5234 h 3.5879 L 90.8848,51.2217 95.8799,58 h -3.6631 z" />
  </g>
  <defs
     id="defs36">
    <filter
       color-interpolation-filters="sRGB"
       filterUnits="userSpaceOnUse"
       height="24.725599"
       width="99.845703"
       y="39.5"
       x="0.034179699"
       id="filter0_d">
      <feFlood
         id="feFlood16"
         result="BackgroundImageFix"
         flood-opacity="0" />
      <feColorMatrix
         id="feColorMatrix18"
         values="0 0 0 0 0 0 0 0 0 0 0 0 0 0 0 0 0 0 127 0"
         type="matrix"
         in="SourceAlpha" />
      <feOffset
         id="feOffset20"
         dy="2" />
      <feGaussianBlur
         id="feGaussianBlur22"
         stdDeviation="2" />
      <feColorMatrix
         id="feColorMatrix24"
         values="0 0 0 0 0 0 0 0 0 0 0 0 0 0 0 0 0 0 0.15 0"
         type="matrix" />
      <feBlend
         id="feBlend26"
         result="effect1_dropShadow"
         in2="BackgroundImageFix"
         mode="normal" />
      <feBlend
         id="feBlend28"
         result="shape"
         in2="effect1_dropShadow"
         in="SourceGraphic"
         mode="normal" />
    </filter>
    <radialGradient
       gradientTransform="matrix(-900.0011,820.00102,-1140.0839,-1251.3115,1000,80)"
       gradientUnits="userSpaceOnUse"
       r="1"
       cy="0"
       cx="0"
       id="paint0_radial">
      <stop
         id="stop31"
         stop-color="#ACBAC7" />
      <stop
         id="stop33"
         stop-color="#677A8F"
         offset="1" />
    </radialGradient>
  </defs>
</svg>
