<svg width="20" height="20" viewBox="0 0 20 20" fill="none" xmlns="http://www.w3.org/2000/svg">
<path d="M19.6211 7.45312C19.7734 7.33203 20 7.44531 20 7.63672V15.625C20 16.6602 19.1602 17.5 18.125 17.5H1.875C0.839844 17.5 0 16.6602 0 15.625V7.64062C0 7.44531 0.222656 7.33594 0.378906 7.45703C1.25391 8.13672 2.41406 9 6.39844 11.8945C7.22266 12.4961 8.61328 13.7617 10 13.7539C11.3945 13.7656 12.8125 12.4727 13.6055 11.8945C17.5898 9 18.7461 8.13281 19.6211 7.45312ZM10 12.5C10.9062 12.5156 12.2109 11.3594 12.8672 10.8828C18.0508 7.12109 18.4453 6.79297 19.6406 5.85547C19.8672 5.67969 20 5.40625 20 5.11719V4.375C20 3.33984 19.1602 2.5 18.125 2.5H1.875C0.839844 2.5 0 3.33984 0 4.375V5.11719C0 5.40625 0.132812 5.67578 0.359375 5.85547C1.55469 6.78906 1.94922 7.12109 7.13281 10.8828C7.78906 11.3594 9.09375 12.5156 10 12.5Z" fill="url(#paint0_radial)"/>
<defs>
<radialGradient id="paint0_radial" cx="0" cy="0" r="1" gradientUnits="userSpaceOnUse" gradientTransform="translate(20 5.08621) rotate(149.66) scale(28.501 20.3153)">
<stop stop-color="#F57286"/>
<stop offset="0.804269" stop-color="#8060C9"/>
</radialGradient>
</defs>
</svg>