<svg width="358" height="309" viewBox="0 0 358 309" fill="none" xmlns="http://www.w3.org/2000/svg" style="background-color:black">
<g clip-path="url(#clip0_575_8)">
<path d="M354.75 215.609L278.412 87.8475C274.911 81.9755 266.285 77.1714 259.242 77.1714H211.583C200.506 77.1714 195.965 69.6237 201.49 60.3991L227.626 16.7722C229.7 13.3099 229.695 9.04737 227.615 5.5887C225.534 2.13003 221.691 0 217.533 0H151.048C144.004 0 135.36 4.79349 131.836 10.6524L2.6449 225.448C-0.880053 231.307 -0.881407 240.895 2.63949 246.755L35.8815 302.08C41.4207 311.297 50.5038 311.308 56.0661 302.103L82.0403 259.123C87.6039 249.918 96.6855 249.928 102.225 259.146L125.773 298.338C129.294 304.198 137.937 308.992 144.98 308.992H298.613C305.653 308.992 314.298 304.198 317.819 298.338L354.711 236.941C358.232 231.081 358.249 221.482 354.75 215.609ZM251.654 209.46C257.159 218.696 252.599 226.254 241.522 226.254H122.021C110.944 226.254 106.412 218.712 111.951 209.494L171.747 109.977C177.286 100.759 186.349 100.76 191.888 109.978L251.654 209.46Z" fill="white"/>
</g>
<defs>
<clipPath id="clip0_575_8">
<rect width="358" height="309" fill="white"/>
</clipPath>
</defs>
</svg>
