<svg viewBox="0 0 1766 300" fill="none" xmlns="http://www.w3.org/2000/svg">
<g>
<path d="M617.267 225.88H522.185L510.47 259.389C508.564 264.843 502.111 269.304 496.13 269.304H444.773C438.793 269.304 435.698 264.927 437.897 259.577L530.973 33.0921C533.169 27.7415 539.863 23.3639 545.845 23.3639H594.006C599.986 23.3639 606.674 27.7439 608.864 33.0971L701.569 259.571C703.759 264.924 700.658 269.304 694.678 269.304H643.323C637.342 269.304 630.888 264.843 628.981 259.389L617.267 225.88ZM600.487 177.46L569.725 88.3068L538.966 177.46H600.487ZM920.483 269.304C914.501 269.304 907.075 265.276 903.98 260.353L860.071 190.527L816.163 260.353C813.067 265.276 805.64 269.304 799.66 269.304H737.116C731.135 269.304 729.02 265.43 732.417 260.694L816.924 142.876L739.876 32.059C736.552 27.2767 738.726 23.3639 744.706 23.3639H802.455C808.435 23.3639 815.905 27.3662 819.053 32.2581L860.071 95.9941L900.722 32.2792C903.851 27.3757 911.305 23.3639 917.286 23.3639H975.436C981.416 23.3639 983.575 27.2669 980.231 32.0373L902.816 142.49L987.719 260.699C991.12 265.431 989.007 269.304 983.026 269.304H920.483ZM1098.73 258.843C1098.73 264.597 1093.83 269.304 1087.85 269.304H1041.69C1035.71 269.304 1030.81 264.597 1030.81 258.843V33.8244C1030.81 28.0712 1035.71 23.3639 1041.69 23.3639H1087.85C1093.83 23.3639 1098.73 28.0712 1098.73 33.8244V258.843ZM1139.63 145.565C1139.63 74.0893 1195.55 16.4478 1281.44 16.4478C1367.34 16.4478 1423.27 74.0893 1423.27 145.565C1423.27 217.427 1367.34 275.068 1281.44 275.068C1195.55 275.068 1139.63 217.427 1139.63 145.565ZM1353.75 145.565C1353.75 108.291 1326.59 74.4725 1281.44 74.4725C1236.7 74.4725 1209.14 108.291 1209.14 145.565C1209.14 182.843 1236.7 217.426 1281.44 217.426C1326.19 217.426 1353.75 182.843 1353.75 145.565ZM1713.13 269.304C1707.16 269.304 1701.63 264.636 1700.86 258.93L1683.09 127.121L1631.76 259.503C1629.68 264.894 1623.07 269.304 1617.09 269.304H1594.49C1588.5 269.304 1581.92 264.89 1579.85 259.494L1528.49 125.967L1510.7 258.929C1509.93 264.636 1504.42 269.304 1498.44 269.304H1455.07C1449.09 269.304 1444.86 264.641 1445.67 258.941L1477.87 33.7271C1478.68 28.0274 1484.24 23.3639 1490.22 23.3639H1530.39C1536.37 23.3639 1543.01 27.7644 1545.13 33.1432L1605.59 186.3L1666.43 33.1356C1668.56 27.761 1675.2 23.3639 1681.17 23.3639H1721.35C1727.34 23.3639 1732.9 28.0274 1733.71 33.7271L1765.9 258.941C1766.71 264.641 1762.49 269.304 1756.51 269.304H1713.13ZM344.035 209.33L270.003 85.2888C266.608 79.5879 258.243 74.9237 251.412 74.9237H205.193C194.45 74.9237 190.046 67.5959 195.404 58.64L220.751 16.2837C222.762 12.9222 222.758 8.78385 220.74 5.42592C218.722 2.06799 214.995 0 210.962 0H146.485C139.655 0 131.272 4.65387 127.854 10.3421L2.56501 218.882C-0.853473 224.57 -0.854786 233.879 2.55977 239.568L34.7977 293.281C40.1696 302.23 48.9785 302.241 54.3727 293.304L79.5624 251.576C84.958 242.639 93.7653 242.649 99.1374 251.598L121.975 289.649C125.389 295.338 133.771 299.993 140.602 299.993H289.594C296.422 299.993 304.805 295.338 308.22 289.649L343.997 230.04C347.412 224.351 347.429 215.031 344.035 209.33ZM244.053 203.36C249.392 212.327 244.97 219.665 234.227 219.665H118.335C107.593 219.665 103.198 212.342 108.57 203.393L166.56 106.774C171.932 97.8246 180.721 97.8249 186.092 106.775L244.053 203.36Z" fill="white"/>
</g>
</svg>
