<svg xmlns="http://www.w3.org/2000/svg" width="16" height="16" fill="none" viewBox="0 0 16 16" class="icon inline-block"><path fill="currentColor" d="m11.3 10.6 3.7 3.7-.7.7-3.65-3.65C9.55 12.35 8.1 13 6.5 13c-1.8 0-3.5-.8-4.6-2.15l.75-.65C3.6 11.35 5 12 6.5 12c2.75 0 5-2.25 5-5s-2.25-5-5-5c-1.4 0-2.7.55-3.6 1.6l-.75-.7C3.3 1.65 4.85 1 6.5 1c3.3 0 6 2.7 6 6 0 1.35-.45 2.6-1.2 3.6M3 4.5h4v1H3zM7 7a.5.5 0 1 1-1 0 .5.5 0 0 1 1 0M1.5 9.5a.5.5 0 1 0 0-1 .5.5 0 0 0 0 1m3.5-2v-1H1v1zm-3.5-2a.5.5 0 1 0 0-1 .5.5 0 0 0 0 1m1.5 3v1h4v-1z" clip-path="url(#a)" clip-rule="evenodd" fill-rule="evenodd"></path></svg>