<svg aria-hidden="true" focusable="false" data-prefix="fal" data-icon="chart-scatter" class="svg-inline--fa fa-chart-scatter icon" role="img" xmlns="http://www.w3.org/2000/svg" width="512" height="512" viewBox="0 0 512 512"><path fill="currentColor" d="M32 48c0-8.8-7.2-16-16-16S0 39.2 0 48V400c0 44.2 35.8 80 80 80H496c8.8 0 16-7.2 16-16s-7.2-16-16-16H80c-26.5 0-48-21.5-48-48V48zM192 184a24 24 0 1 0 0-48 24 24 0 1 0 0 48zm120 72a24 24 0 1 0 -48 0 24 24 0 1 0 48 0zm72 88a24 24 0 1 0 0-48 24 24 0 1 0 0 48zm56-216a24 24 0 1 0 -48 0 24 24 0 1 0 48 0zM160 344a24 24 0 1 0 0-48 24 24 0 1 0 0 48z"></path></svg>