<svg xmlns="http://www.w3.org/2000/svg" width="16" height="16" viewBox="0 0 16 16" fill="none" class="icon"><g clip-path="url(#clip0_319_5827)"><path d="M14 2H2C1.73478 2 1.48043 2.10536 1.29289 2.29289C1.10536 2.48043 1 2.73478 1 3V13C1 13.2652 1.10536 13.5196 1.29289 13.7071C1.48043 13.8946 1.73478 14 2 14H14C14.2652 14 14.5196 13.8946 14.7071 13.7071C14.8946 13.5196 15 13.2652 15 13V3C15 2.73478 14.8946 2.48043 14.7071 2.29289C14.5196 2.10536 14.2652 2 14 2ZM2 3H9V13H2V3ZM14 13H10V3H14V13Z" fill="currentColor"></path></g><defs><clipPath id="clip0_319_5827"><rect width="16" height="16" fill="white"></rect></clipPath></defs></svg>