<svg xmlns="http://www.w3.org/2000/svg" width="16" height="16" fill="none" viewBox="0 0 16 16" class="icon"><g fill="currentColor" clip-path="url(#a)"><path fill-rule="evenodd" clip-rule="evenodd" d="M8 1C6.61553 1 5.26216 1.41054 4.11101 2.17971C2.95987 2.94888 2.06266 4.04213 1.53285 5.32122C1.00303 6.6003 0.86441 8.00776 1.13451 9.36563C1.4046 10.7235 2.07129 11.9708 3.05026 12.9497C4.02922 13.9287 5.2765 14.5954 6.63437 14.8655C7.29664 14.9972 7.97071 15.0317 8.63593 14.9711C8.29972 14.6933 8.00454 14.3677 7.76085 14.0046C7.72888 14.0037 7.69693 14.0021 7.665 14C6.62915 12.3481 6.05426 10.4491 6 8.5H8.14584C8.50995 8.09318 8.94699 7.753 9.4364 7.5H6C6.04975 5.55234 6.61942 3.65341 7.65 2C7.87264 1.97498 8.09737 1.97498 8.32 2C9.31831 3.58251 9.89273 5.39371 9.99011 7.25957C10.3041 7.14775 10.6342 7.06983 10.976 7.03019C10.8576 5.35239 10.3913 3.71573 9.605 2.225C10.7893 2.54895 11.8457 3.22842 12.6316 4.17171C13.4175 5.115 13.8952 6.27669 14 7.5H13.5636C14.1066 7.78069 14.5851 8.16869 14.9711 8.63594C14.9903 8.42511 15 8.21292 15 8C15 6.14348 14.2625 4.36301 12.9497 3.05025C11.637 1.7375 9.85652 1 8 1ZM3.3684 4.17171C4.15045 3.23308 5.2003 2.55566 6.37748 2.22982C5.52472 3.85938 5.05368 5.66154 5 7.5L2 7.5C2.10485 6.27669 2.58247 5.115 3.3684 4.17171ZM2.025 8.5H5.025C5.07718 10.3399 5.54739 12.1438 6.4 13.775C5.21943 13.4476 4.16739 12.7666 3.38528 11.8236C2.60317 10.8806 2.12848 9.72076 2.025 8.5ZM13.9497 11H15V12H13.9497C13.8847 12.3186 13.7575 12.6143 13.5836 12.8766L14.3283 13.6214L13.6213 14.3284L12.8764 13.5836C12.6142 13.7574 12.3186 13.8846 12 13.9495V15H11V13.9495C10.6814 13.8846 10.3857 13.7574 10.1235 13.5836L9.37865 14.3284L8.6716 13.6214L9.41625 12.8766C9.24245 12.6143 9.11525 12.3186 9.0503 12L8 12V11L9.0503 11C9.1152 10.6814 9.2424 10.3858 9.41625 10.1236L8.6716 9.3787L9.37865 8.67165L10.1235 9.4165C10.3857 9.2427 10.6814 9.1155 11 9.05055L11 8L12 8L12 9.05055C12.3186 9.11545 12.6142 9.24265 12.8764 9.4165L13.6213 8.67165L14.3283 9.3787L13.5836 10.1236C13.7574 10.3858 13.8847 10.6814 13.9497 11ZM9.99995 11.5C9.99995 12.3284 10.6716 13 11.5 13C12.3283 13 13 12.3284 13 11.5C13 10.6716 12.3283 10 11.5 10C10.6716 10 9.99995 10.6716 9.99995 11.5Z"></path></g></svg>